<svg width="194" height="218" viewBox="0 0 194 218" fill="none" xmlns="http://www.w3.org/2000/svg">
<path d="M93.16 217.95C135.049 217.95 169.007 211.159 169.007 202.782C169.007 194.405 135.049 187.613 93.16 187.613C51.2709 187.613 17.313 194.405 17.313 202.782C17.313 211.159 51.2709 217.95 93.16 217.95Z" fill="#F39E3A"/>
<path opacity="0.5" d="M93.16 217.95C135.049 217.95 169.007 211.159 169.007 202.782C169.007 194.405 135.049 187.613 93.16 187.613C51.2709 187.613 17.313 194.405 17.313 202.782C17.313 211.159 51.2709 217.95 93.16 217.95Z" fill="white"/>
<path d="M173.68 1.00003H118.992C117.124 1.00003 115.609 2.51446 115.609 4.3826V64.6686C115.609 66.5367 117.124 68.0512 118.992 68.0512H173.68C175.548 68.0512 177.062 66.5367 177.062 64.6686V4.3826C177.062 2.51446 175.548 1.00003 173.68 1.00003Z" fill="white" stroke="#263238" stroke-linecap="round" stroke-linejoin="round"/>
<path d="M118.992 1.00004H173.674C174.567 1.00004 175.423 1.35465 176.054 1.98584C176.685 2.61704 177.04 3.47313 177.04 4.36578V7.87737H115.609V4.38261C115.607 3.93778 115.693 3.49692 115.862 3.08552C116.032 2.67413 116.281 2.30035 116.595 1.9858C116.91 1.67126 117.283 1.42218 117.695 1.25298C118.106 1.08378 118.547 0.997813 118.992 1.00004Z" fill="#263238" stroke="#263238" stroke-linecap="round" stroke-linejoin="round"/>
<path d="M118.958 36.8003H143.685" stroke="#263238" stroke-linecap="round" stroke-linejoin="round"/>
<path d="M118.958 39.9922H143.685" stroke="#263238" stroke-linecap="round" stroke-linejoin="round"/>
<path d="M118.958 43.184H143.685" stroke="#263238" stroke-linecap="round" stroke-linejoin="round"/>
<path d="M118.958 46.3758H143.685" stroke="#263238" stroke-linecap="round" stroke-linejoin="round"/>
<path d="M118.958 49.5677H143.685" stroke="#263238" stroke-linecap="round" stroke-linejoin="round"/>
<path d="M118.958 52.7651H143.685" stroke="#263238" stroke-linecap="round" stroke-linejoin="round"/>
<path d="M118.958 55.957H143.685" stroke="#263238" stroke-linecap="round" stroke-linejoin="round"/>
<path d="M118.958 59.1488H143.685" stroke="#263238" stroke-linecap="round" stroke-linejoin="round"/>
<path d="M118.958 62.3406H143.685" stroke="#263238" stroke-linecap="round" stroke-linejoin="round"/>
<path d="M148.033 36.8003H172.76" stroke="#263238" stroke-linecap="round" stroke-linejoin="round"/>
<path d="M148.033 39.9922H172.76" stroke="#263238" stroke-linecap="round" stroke-linejoin="round"/>
<path d="M148.033 43.184H172.76" stroke="#263238" stroke-linecap="round" stroke-linejoin="round"/>
<path d="M148.033 46.3758H172.76" stroke="#263238" stroke-linecap="round" stroke-linejoin="round"/>
<path d="M148.033 49.5677H172.76" stroke="#263238" stroke-linecap="round" stroke-linejoin="round"/>
<path d="M148.033 52.7651H172.76" stroke="#263238" stroke-linecap="round" stroke-linejoin="round"/>
<path d="M148.033 55.957H172.76" stroke="#263238" stroke-linecap="round" stroke-linejoin="round"/>
<path d="M148.033 59.1488H172.76" stroke="#263238" stroke-linecap="round" stroke-linejoin="round"/>
<path d="M148.033 62.3406H172.76" stroke="#263238" stroke-linecap="round" stroke-linejoin="round"/>
<path d="M135.495 16.589C135.617 16.21 135.682 15.8148 135.686 15.4166C135.686 13.9637 134.211 13.8796 132.763 13.8796H132.399V13.5374H138.715V13.8796C137.072 13.8796 136.471 14.9286 135.961 16.4824L132.595 26.5292C132.343 27.2752 132.13 27.8306 131.339 27.8306H131.271L128.309 18.2326L125.555 26.5516C125.297 27.2977 125.084 27.853 124.293 27.853H124.231L119.923 13.8796H118.409V13.5374H123.951V13.8796H122.374L125.572 24.8856H125.701L128.113 17.5763L126.991 13.9076H125.477V13.5374H131.024V13.8796H129.448L132.646 24.8856H132.769L135.495 16.589Z" fill="#F39E3A"/>
<path d="M172.934 10.3568H147.489V33.356H172.934V10.3568Z" fill="#F39E3A" stroke="#263238" stroke-width="2" stroke-linecap="round" stroke-linejoin="round"/>
<path d="M172.934 19.9716C172.08 20.0202 171.232 20.1384 170.398 20.325C166.533 21.1664 165.523 26.7143 161.153 26.7143C157.283 26.7143 156.952 21.503 151.404 20.8299C150.054 20.6173 148.672 20.8621 147.477 21.5254V33.356H172.934V19.9716Z" fill="#263238" stroke="#263238" stroke-linecap="round" stroke-linejoin="round"/>
<path d="M155.942 15.6186C155.943 16.1849 155.776 16.7388 155.462 17.2101C155.148 17.6814 154.702 18.049 154.179 18.2662C153.656 18.4834 153.08 18.5406 152.525 18.4304C151.969 18.3202 151.459 18.0476 151.058 17.6471C150.658 17.2467 150.385 16.7364 150.275 16.1809C150.165 15.6255 150.222 15.0498 150.439 14.5268C150.657 14.0038 151.024 13.557 151.495 13.2431C151.967 12.9292 152.521 12.7622 153.087 12.7633C153.844 12.7633 154.57 13.0641 155.106 13.5996C155.641 14.1351 155.942 14.8613 155.942 15.6186Z" fill="white" stroke="#263238" stroke-linecap="round" stroke-linejoin="round"/>
<path d="M174.095 3.01389H117.455V5.19601H174.095V3.01389Z" fill="white" stroke="#263238" stroke-linecap="round" stroke-linejoin="round"/>
<path d="M170.561 81.43H146.041C145.077 81.43 144.153 81.813 143.471 82.4947C142.789 83.1764 142.406 84.1009 142.406 85.065V98.1802C142.406 99.1442 142.789 100.069 143.471 100.75C144.153 101.432 145.077 101.815 146.041 101.815H146.793C146.03 103.498 144.549 106.078 142.21 107.61C142.21 107.61 147.186 107.262 152.369 101.815H170.549C171.513 101.815 172.438 101.432 173.12 100.75C173.801 100.069 174.184 99.1442 174.184 98.1802V85.065C174.184 84.1029 173.803 83.18 173.124 82.4986C172.444 81.8172 171.523 81.433 170.561 81.43Z" fill="#263238" stroke="#263238" stroke-linecap="round" stroke-linejoin="round"/>
<path d="M154.085 91.157C154.087 90.786 153.977 90.423 153.772 90.114C153.567 89.805 153.274 89.564 152.931 89.4215C152.589 89.279 152.212 89.2414 151.848 89.3136C151.484 89.3857 151.149 89.5642 150.887 89.8266C150.625 90.089 150.446 90.4233 150.374 90.7873C150.302 91.1512 150.339 91.5284 150.482 91.871C150.624 92.2136 150.865 92.5062 151.174 92.7116C151.483 92.917 151.846 93.0261 152.217 93.025C152.712 93.0235 153.187 92.8263 153.537 92.4763C153.887 92.1263 154.084 91.652 154.085 91.157Z" fill="#F39E3A" stroke="#263238" stroke-linecap="round" stroke-linejoin="round"/>
<path d="M160.441 91.157C160.441 90.7876 160.331 90.4264 160.126 90.1192C159.921 89.812 159.629 89.5726 159.288 89.4312C158.946 89.2898 158.571 89.2529 158.209 89.3249C157.846 89.397 157.513 89.5749 157.252 89.8362C156.991 90.0974 156.813 90.4302 156.741 90.7926C156.669 91.1549 156.706 91.5305 156.847 91.8719C156.989 92.2132 157.228 92.5049 157.535 92.7102C157.842 92.9154 158.203 93.025 158.573 93.025C159.068 93.0235 159.542 92.8262 159.892 92.4763C160.242 92.1263 160.439 91.652 160.441 91.157Z" fill="#F39E3A" stroke="#263238" stroke-linecap="round" stroke-linejoin="round"/>
<path d="M166.802 91.157C166.803 90.7862 166.694 90.4234 166.489 90.1145C166.284 89.8057 165.992 89.5647 165.65 89.422C165.307 89.2793 164.93 89.2414 164.567 89.3131C164.203 89.3848 163.868 89.5627 163.606 89.8245C163.343 90.0864 163.164 90.4202 163.092 90.7838C163.019 91.1474 163.056 91.5244 163.197 91.8671C163.339 92.2097 163.579 92.5027 163.887 92.7088C164.195 92.9149 164.558 93.025 164.929 93.025C165.424 93.0235 165.899 92.8264 166.25 92.4766C166.601 92.1267 166.799 91.6525 166.802 91.157Z" fill="#F39E3A" stroke="#263238" stroke-linecap="round" stroke-linejoin="round"/>
<path d="M35.7234 8.95441H76.1123C77.0734 8.95441 77.9951 9.3362 78.6747 10.0158C79.3543 10.6954 79.7361 11.6171 79.7361 12.5782V40.5755H32.1165V12.5782C32.1164 11.62 32.4959 10.7008 33.1719 10.0217C33.8478 9.34261 34.7652 8.95886 35.7234 8.95441Z" fill="#F39E3A" stroke="#263238" stroke-linecap="round" stroke-linejoin="round"/>
<path d="M79.7136 36.0598H32.1165V40.5587H79.7136V36.0598Z" fill="#263238" stroke="#263238" stroke-linecap="round" stroke-linejoin="round"/>
<path d="M77.5371 37.5968H34.2986V39.0217H77.5371V37.5968Z" fill="white" stroke="#263238" stroke-linecap="round" stroke-linejoin="round"/>
<path d="M55.9179 29.8781C59.5488 29.8781 62.4923 26.9346 62.4923 23.3037C62.4923 19.6727 59.5488 16.7292 55.9179 16.7292C52.2869 16.7292 49.3434 19.6727 49.3434 23.3037C49.3434 26.9346 52.2869 29.8781 55.9179 29.8781Z" fill="#263238" stroke="#263238" stroke-linecap="round" stroke-linejoin="round"/>
<path d="M52.9503 19.2143L60.0464 23.3093L52.9503 27.4043V19.2143Z" fill="white" stroke="#263238" stroke-linecap="round" stroke-linejoin="round"/>
<path d="M59.1266 52.0751H13.9527C13.0791 52.0751 12.3708 52.7834 12.3708 53.657V70.8728C12.3708 71.7464 13.0791 72.4547 13.9527 72.4547H59.1266C60.0002 72.4547 60.7085 71.7464 60.7085 70.8728V53.657C60.7085 52.7834 60.0002 52.0751 59.1266 52.0751Z" fill="#263238" stroke="#263238" stroke-linecap="round" stroke-linejoin="round"/>
<path d="M18.1262 54.8519L18.3618 55.2445C17.296 55.8391 16.3031 56.8825 16.3031 58.1054C16.2894 58.3155 16.3179 58.5262 16.3867 58.7251C16.4555 58.9241 16.5634 59.1073 16.7039 59.264C16.8444 59.4207 17.0148 59.5478 17.2051 59.6379C17.3954 59.7279 17.6018 59.779 17.8121 59.7883C17.9691 59.7883 18.0757 59.7098 18.0757 59.5527C18.0757 59.3956 17.9972 59.3451 17.8401 59.3171C17.6283 59.2597 17.4438 59.1289 17.3194 58.9481C17.1951 58.7672 17.1391 58.5481 17.1614 58.3298C17.1654 58.1556 17.2049 57.9841 17.2774 57.8257C17.3498 57.6672 17.4537 57.5252 17.5828 57.4081C17.7119 57.2911 17.8634 57.2016 18.0282 57.145C18.193 57.0884 18.3676 57.0659 18.5413 57.0789C18.7303 57.0795 18.9173 57.1181 19.0911 57.1922C19.2649 57.2664 19.4222 57.3747 19.5534 57.5107C19.6847 57.6466 19.7874 57.8076 19.8554 57.9839C19.9234 58.1603 19.9553 58.3484 19.9493 58.5374C19.9466 58.7748 19.896 59.0092 19.8006 59.2266C19.7053 59.444 19.5671 59.64 19.3943 59.8029C19.2215 59.9657 19.0177 60.092 18.795 60.1744C18.5723 60.2567 18.3353 60.2933 18.0981 60.2819C17.8033 60.301 17.5078 60.2579 17.2306 60.1555C16.9535 60.0531 16.701 59.8936 16.4895 59.6873C16.2779 59.4811 16.1121 59.2327 16.0027 58.9582C15.8932 58.6838 15.8427 58.3894 15.8543 58.0942C15.8375 56.675 16.9314 55.5306 18.1262 54.8519ZM22.9448 54.8519L23.1804 55.2445C22.109 55.8391 21.1217 56.8825 21.1217 58.1054C21.1073 58.3157 21.1352 58.5266 21.2037 58.7259C21.2722 58.9252 21.38 59.1087 21.5207 59.2656C21.6614 59.4225 21.8321 59.5496 22.0228 59.6394C22.2134 59.7291 22.4201 59.7798 22.6307 59.7883C22.7877 59.7883 22.8943 59.7098 22.8943 59.5527C22.8943 59.3956 22.8158 59.3451 22.6587 59.3171C22.4469 59.2597 22.2624 59.1289 22.1381 58.9481C22.0137 58.7672 21.9577 58.5481 21.98 58.3298C21.9832 58.1554 22.0222 57.9835 22.0944 57.8246C22.1666 57.6658 22.2705 57.5234 22.3997 57.4063C22.529 57.2891 22.6809 57.1996 22.846 57.1433C23.0111 57.087 23.186 57.0651 23.3599 57.0789C23.5489 57.0795 23.7359 57.1181 23.9097 57.1922C24.0836 57.2664 24.2408 57.3747 24.372 57.5107C24.5033 57.6466 24.606 57.8076 24.674 57.9839C24.742 58.1603 24.7739 58.3484 24.7679 58.5374C24.7644 58.7745 24.7133 59.0086 24.6177 59.2257C24.5221 59.4427 24.3839 59.6384 24.2112 59.8011C24.0386 59.9638 23.8351 60.0901 23.6128 60.1727C23.3904 60.2553 23.1537 60.2925 22.9168 60.2819C22.6221 60.3001 22.327 60.2565 22.0502 60.1537C21.7735 60.051 21.5214 59.8914 21.31 59.6854C21.0986 59.4793 20.9328 59.2312 20.8231 58.9572C20.7133 58.6832 20.6622 58.3892 20.6729 58.0942C20.6505 56.675 21.7444 55.5306 22.9448 54.8519Z" fill="#F39E3A"/>
<path d="M27.5558 59.003H55.0652" stroke="white" stroke-linecap="round" stroke-linejoin="round"/>
<path d="M27.5558 61.3646H55.0652" stroke="white" stroke-linecap="round" stroke-linejoin="round"/>
<path d="M27.5558 63.7262H55.0652" stroke="white" stroke-linecap="round" stroke-linejoin="round"/>
<path d="M27.5558 66.0934H55.0652" stroke="white" stroke-linecap="round" stroke-linejoin="round"/>
<path d="M50.1979 104.053C55.8759 103.126 59.7275 97.7722 58.8008 92.0942C57.874 86.4162 52.5198 82.5645 46.8418 83.4913C41.1638 84.418 37.3122 89.7722 38.2389 95.4502C39.1657 101.128 44.5199 104.98 50.1979 104.053Z" fill="#263238" stroke="#263238" stroke-linecap="round" stroke-linejoin="round"/>
<path d="M55.1272 99.5844C58.3307 95.9367 57.9705 90.3828 54.3228 87.1793C50.6751 83.9758 45.1211 84.336 41.9177 87.9837C38.7142 91.6314 39.0743 97.1854 42.722 100.389C46.3698 103.592 51.9237 103.232 55.1272 99.5844Z" fill="white" stroke="#263238" stroke-linecap="round" stroke-linejoin="round"/>
<path d="M48.5245 87.4154V93.771H52.8215" stroke="#263238" stroke-width="2" stroke-linecap="round" stroke-linejoin="round"/>
<path d="M113.696 93.7935C113.696 93.7935 119.671 106.544 119.671 107.217C119.671 107.89 114.37 110.774 113.36 111.379C112.577 111.826 111.77 112.228 110.942 112.586L111.548 118.492C111.548 118.492 120.675 116.411 124.5 114.33C128.326 112.249 128.191 109.899 127.305 106.409C126.419 102.92 120.523 89.4348 120.523 89.4348L113.696 93.7935Z" fill="white"/>
<mask id="mask0_108_4335" style="mask-type:luminance" maskUnits="userSpaceOnUse" x="110" y="89" width="18" height="30">
<path d="M113.696 93.7935C113.696 93.7935 119.671 106.544 119.671 107.217C119.671 107.89 114.37 110.774 113.36 111.379C112.577 111.826 111.77 112.228 110.942 112.586L111.548 118.492C111.548 118.492 120.675 116.411 124.5 114.33C128.326 112.249 128.191 109.899 127.305 106.409C126.419 102.92 120.523 89.4348 120.523 89.4348L113.696 93.7935Z" fill="white"/>
</mask>
<g mask="url(#mask0_108_4335)">
<g style="mix-blend-mode:multiply" opacity="0.5">
<path d="M124.483 114.33C128.309 112.249 128.175 109.899 127.288 106.409C126.402 102.92 120.506 89.4349 120.506 89.4349L119.553 90.0407L119.25 90.6017C119.25 90.6017 124.753 104.109 125.084 108.608C125.308 111.632 119.222 115.402 115.2 117.556C118.184 116.765 122.245 115.547 124.483 114.33Z" fill="#F39E3A"/>
</g>
</g>
<path d="M113.696 93.7935C113.696 93.7935 119.671 106.544 119.671 107.217C119.671 107.89 114.37 110.774 113.36 111.379C112.577 111.826 111.77 112.228 110.942 112.586L111.548 118.492C111.548 118.492 120.675 116.411 124.5 114.33C128.326 112.249 128.192 109.899 127.305 106.409C126.419 102.92 120.523 89.4348 120.523 89.4348L113.696 93.7935Z" stroke="#263238" stroke-linecap="round" stroke-linejoin="round"/>
<path d="M70.5925 90.9775C70.5925 90.9775 66.2339 106.948 66.1048 109.77C65.9758 112.591 74.7604 118.156 75.0801 118.492C75.3999 118.829 74.5809 108.788 74.5809 108.788L77.5596 94.203L70.5925 90.9775Z" fill="white"/>
<mask id="mask1_108_4335" style="mask-type:luminance" maskUnits="userSpaceOnUse" x="66" y="90" width="12" height="29">
<path d="M70.5925 90.9775C70.5925 90.9775 66.2339 106.948 66.1048 109.77C65.9758 112.591 74.7604 118.156 75.0801 118.492C75.3999 118.829 74.5809 108.788 74.5809 108.788L77.5596 94.203L70.5925 90.9775Z" fill="white"/>
</mask>
<g mask="url(#mask1_108_4335)">
<g style="mix-blend-mode:multiply" opacity="0.5">
<path d="M72.5895 92.2845L72.4941 91.8526L70.5925 90.9775C70.5925 90.9775 66.2339 106.948 66.1048 109.77C65.9758 112.591 74.7604 118.156 75.0801 118.492C75.2092 118.627 75.1587 117.124 75.0521 115.267C72.438 113.051 68.6852 109.932 68.2477 108.62" fill="#F39E3A"/>
</g>
</g>
<path d="M70.5925 90.9775C70.5925 90.9775 66.2339 106.948 66.1048 109.77C65.9758 112.591 74.7604 118.156 75.0801 118.492C75.3999 118.829 74.5809 108.788 74.5809 108.788L77.5596 94.203L70.5925 90.9775Z" stroke="#263238" stroke-linecap="round" stroke-linejoin="round"/>
<path d="M91.0617 74.9341C91.0617 74.9341 89.3789 76.1458 86.0973 76.2804C82.8157 76.4151 82.6586 74.0366 78.5804 74.0366C73.6384 74.0366 67.4398 89.6705 67.4398 89.6705C67.4398 89.6705 70.5251 92.694 73.5487 93.9674C75.2213 94.7001 76.9798 95.2184 78.7824 95.51L79.2536 105.781H112.541L112.939 95.51L123.345 88.7617C123.345 88.7617 118.24 79.6349 115.761 76.2131C113.281 72.7913 109.113 74.0646 107.84 74.9341C106.567 75.8036 102.791 76.0112 101.4 75.8092C99.5853 75.4076 97.7917 74.9152 96.0262 74.3339C96.0262 74.3339 93.8833 72.5501 91.0617 74.9341Z" fill="#F39E3A" stroke="#263238" stroke-linecap="round" stroke-linejoin="round"/>
<path d="M79.119 78.5579L78.9844 95.6054" stroke="#263238" stroke-width="0.5" stroke-linecap="round" stroke-linejoin="round"/>
<path d="M80.3251 80.1061C80.3251 80.1061 80.7963 88.4251 82.5689 93.0586" stroke="#263238" stroke-width="0.5" stroke-linecap="round" stroke-linejoin="round"/>
<path d="M82.8774 93.7262C83.2603 94.857 83.7311 95.956 84.2854 97.0134" stroke="#263238" stroke-width="0.5" stroke-linecap="round" stroke-linejoin="round"/>
<path d="M81.3965 79.1637C82.0333 82.1886 82.9323 85.1523 84.0834 88.0212" stroke="#263238" stroke-width="0.5" stroke-linecap="round" stroke-linejoin="round"/>
<path d="M110.331 80.639C110.331 80.639 108.721 87.2191 107.307 90.1753" stroke="#263238" stroke-width="0.5" stroke-linecap="round" stroke-linejoin="round"/>
<path d="M112.939 95.5381L112.872 82.249" stroke="#263238" stroke-width="0.5" stroke-linecap="round" stroke-linejoin="round"/>
<path d="M112.204 82.5182C112.204 82.5182 110.992 90.9326 108.042 95.3361" stroke="#263238" stroke-width="0.5" stroke-linecap="round" stroke-linejoin="round"/>
<path d="M110.729 93.6588C110.729 93.6588 109.383 96.2112 108.446 97.5519" stroke="#263238" stroke-width="0.5" stroke-linecap="round" stroke-linejoin="round"/>
<path d="M89.1826 75.9438C89.1826 75.9438 90.125 81.7161 91.4657 84.6667C92.8064 87.6174 95.1568 88.2232 97.1706 87.3537C99.1844 86.4842 100.66 82.1817 100.536 76.6955" stroke="#263238" stroke-width="0.5" stroke-linecap="round" stroke-linejoin="round"/>
<path d="M84.4201 63.8608C84.4201 63.8608 83.1411 61.6507 82.137 62.7894C81.1329 63.9282 82.9448 66.5478 83.9489 67.4173C84.953 68.2868 85.6934 67.7539 85.6317 66.8171C85.57 65.8803 84.4201 63.8608 84.4201 63.8608Z" fill="#F39E3A" stroke="#263238" stroke-linecap="round" stroke-linejoin="round"/>
<path opacity="0.5" d="M84.4201 63.8608C84.4201 63.8608 83.1411 61.6507 82.137 62.7894C81.1329 63.9282 82.9448 66.5478 83.9489 67.4173C84.953 68.2868 85.6934 67.7539 85.6317 66.8171C85.57 65.8803 84.4201 63.8608 84.4201 63.8608Z" fill="white"/>
<path d="M84.4201 63.8608C84.4201 63.8608 83.1411 61.6507 82.137 62.7894C81.1329 63.9282 82.9448 66.5478 83.9489 67.4173C84.953 68.2868 85.6934 67.7539 85.6317 66.8171C85.57 65.8803 84.4201 63.8608 84.4201 63.8608Z" stroke="#263238" stroke-linecap="round" stroke-linejoin="round"/>
<path d="M104.721 63.8608C104.721 63.8608 105.994 61.6507 107.004 62.7894C108.014 63.9282 106.196 66.5478 105.192 67.4173C104.188 68.2868 103.442 67.7539 103.509 66.8171C103.577 65.8803 104.721 63.8608 104.721 63.8608Z" fill="#F39E3A" stroke="#263238" stroke-linecap="round" stroke-linejoin="round"/>
<path opacity="0.5" d="M104.721 63.8608C104.721 63.8608 105.994 61.6507 107.004 62.7894C108.014 63.9282 106.196 66.5478 105.192 67.4173C104.188 68.2868 103.442 67.7539 103.509 66.8171C103.577 65.8803 104.721 63.8608 104.721 63.8608Z" fill="white"/>
<path d="M104.721 63.8608C104.721 63.8608 105.994 61.6507 107.004 62.7894C108.014 63.9282 106.196 66.5478 105.192 67.4173C104.188 68.2868 103.442 67.7539 103.509 66.8171C103.577 65.8803 104.721 63.8608 104.721 63.8608Z" stroke="#263238" stroke-linecap="round" stroke-linejoin="round"/>
<path d="M90.456 74.4685C91.0896 77.3329 91.897 80.156 92.8737 82.9222C94.0854 85.9401 96.3628 85.9401 97.3052 83.9936C98.2476 82.0471 98.8479 74.7939 98.8479 74.7939C98.8479 74.7939 92.5371 75.6746 90.456 74.4685Z" fill="white" stroke="#263238" stroke-linecap="round" stroke-linejoin="round"/>
<path d="M84.5547 64.6013C84.5547 64.6013 86.2992 70.7718 89.6033 74.4012C92.9073 78.0306 94.0909 78.8889 95.8467 78.6252C97.6025 78.3616 99.4705 76.0785 102.085 71.3328C104.699 66.5871 104.889 62.9465 105.108 62.6099C105.327 62.2733 104.547 55.5643 100.811 52.6754C97.0752 49.7864 92.8905 48.5187 89.2667 51.6712C85.6429 54.8238 83.343 59.9678 84.5547 64.6013Z" fill="white"/>
<mask id="mask2_108_4335" style="mask-type:luminance" maskUnits="userSpaceOnUse" x="84" y="49" width="22" height="30">
<path d="M84.5547 64.6013C84.5547 64.6013 86.2992 70.7718 89.6033 74.4012C92.9073 78.0306 94.0909 78.8889 95.8467 78.6252C97.6025 78.3616 99.4705 76.0785 102.085 71.3328C104.699 66.5871 104.889 62.9465 105.108 62.6099C105.327 62.2733 104.547 55.5643 100.811 52.6754C97.0752 49.7864 92.8905 48.5187 89.2667 51.6712C85.6429 54.8238 83.343 59.9678 84.5547 64.6013Z" fill="white"/>
</mask>
<g mask="url(#mask2_108_4335)">
<g style="mix-blend-mode:multiply" opacity="0.5">
<path d="M100.794 52.6529C97.0359 49.7696 92.8736 48.4962 89.2499 51.6488C85.6261 54.8014 83.343 59.9678 84.5547 64.6013C84.5547 64.6013 84.8856 65.7905 85.5419 67.4061C85.54 67.1992 85.5684 66.9932 85.6261 66.7946C86.4283 64.2535 88.7955 59.3339 96.7611 61.589C103.089 63.3728 102.315 68.9375 101.726 71.9049L102.068 71.2879C104.687 66.5254 104.873 62.9016 105.091 62.565C105.31 62.2284 104.553 55.5418 100.794 52.6529Z" fill="#F39E3A"/>
</g>
</g>
<path d="M84.5547 64.6013C84.5547 64.6013 86.2992 70.7718 89.6033 74.4012C92.9073 78.0306 94.0909 78.8889 95.8467 78.6252C97.6025 78.3616 99.4705 76.0785 102.085 71.3328C104.699 66.5871 104.889 62.9465 105.108 62.6099C105.327 62.2733 104.547 55.5643 100.811 52.6754C97.0752 49.7864 92.8905 48.5187 89.2667 51.6712C85.6429 54.8238 83.343 59.9678 84.5547 64.6013Z" stroke="#263238" stroke-linecap="round" stroke-linejoin="round"/>
<path d="M95.8299 67.8212C95.6218 69.1314 95.5094 70.455 95.4933 71.7815C95.5606 73.1222 95.9645 73.5261 95.3587 73.6607C94.7529 73.7954 94.0853 72.853 94.0853 72.853" stroke="#263238" stroke-linecap="round" stroke-linejoin="round"/>
<path d="M89.1153 68.8982C89.5041 69.1791 89.9688 69.3358 90.4483 69.3478C90.9279 69.3598 91.3998 69.2266 91.8023 68.9655" stroke="#263238" stroke-linecap="round" stroke-linejoin="round"/>
<path d="M97.6418 68.8982C98.0297 69.1786 98.4935 69.3351 98.972 69.3471C99.4506 69.3591 99.9216 69.2261 100.323 68.9655" stroke="#263238" stroke-linecap="round" stroke-linejoin="round"/>
<path d="M93.401 66.6376C93.401 66.6376 92.122 63.4794 87.898 64.9547" stroke="#263238" stroke-linecap="round" stroke-linejoin="round"/>
<path d="M96.9181 66.2505C96.9181 66.2505 97.9896 63.1596 101.815 64.9715" stroke="#263238" stroke-linecap="round" stroke-linejoin="round"/>
<path d="M94.2144 69.1282C94.2144 70.856 92.2342 72.2527 89.7884 72.2527C87.3426 72.2527 85.3568 70.856 85.3568 69.1282C85.3568 67.4005 87.208 66.6824 89.6538 66.6824C92.0995 66.6824 94.2144 67.4061 94.2144 69.1282Z" stroke="#263238" stroke-linecap="round" stroke-linejoin="round"/>
<path d="M104.418 69.1282C104.418 70.856 102.432 72.2527 99.9866 72.2527C97.5409 72.2527 95.5607 70.856 95.5607 69.1282C95.5607 67.4005 97.4063 66.6824 99.852 66.6824C102.298 66.6824 104.418 67.4061 104.418 69.1282Z" stroke="#263238" stroke-linecap="round" stroke-linejoin="round"/>
<path d="M47.8569 122.941L47.582 190.946C47.582 191.16 47.6671 191.365 47.8186 191.517C47.9701 191.668 48.1756 191.753 48.3898 191.753C48.5987 191.753 48.7994 191.672 48.9492 191.526C49.0991 191.381 49.1861 191.182 49.192 190.974L51.1329 123.036L47.8569 122.941Z" fill="white" stroke="#263238" stroke-linecap="round" stroke-linejoin="round"/>
<path d="M43.2795 138.838L43.0158 209.143C43.0151 209.249 43.0355 209.355 43.0758 209.453C43.1161 209.551 43.1756 209.641 43.2508 209.716C43.3259 209.791 43.4153 209.85 43.5136 209.891C43.6119 209.931 43.7173 209.952 43.8236 209.951C44.0321 209.951 44.2327 209.87 44.3832 209.726C44.5338 209.582 44.6227 209.385 44.6314 209.177L46.5667 138.928L43.2795 138.838Z" fill="white" stroke="#263238" stroke-linecap="round" stroke-linejoin="round"/>
<path d="M141.873 122.941L142.148 190.946C142.149 191.051 142.129 191.156 142.089 191.254C142.049 191.352 141.99 191.441 141.915 191.516C141.841 191.592 141.752 191.651 141.654 191.692C141.557 191.732 141.452 191.753 141.346 191.753C141.136 191.753 140.935 191.672 140.784 191.527C140.634 191.381 140.545 191.183 140.538 190.974L138.603 123.036L141.873 122.941Z" fill="white" stroke="#263238" stroke-linecap="round" stroke-linejoin="round"/>
<path d="M146.456 138.838L146.731 209.143C146.732 209.249 146.712 209.355 146.671 209.453C146.631 209.551 146.571 209.641 146.496 209.716C146.421 209.791 146.332 209.85 146.233 209.891C146.135 209.931 146.03 209.952 145.923 209.951C145.715 209.951 145.516 209.87 145.366 209.726C145.216 209.581 145.129 209.385 145.121 209.177L143.18 138.928L146.456 138.838Z" fill="white" stroke="#263238" stroke-linecap="round" stroke-linejoin="round"/>
<path d="M75.1531 141.761L74.9904 204.162C74.9727 204.317 75.0159 204.474 75.1111 204.598C75.2063 204.723 75.346 204.806 75.5009 204.829C75.6521 204.808 75.7896 204.73 75.8855 204.612C75.9814 204.493 76.0284 204.342 76.017 204.19L77.2342 141.834L75.1531 141.761Z" fill="white" stroke="#263238" stroke-linecap="round" stroke-linejoin="round"/>
<path d="M114.65 139.753L114.801 194.21C114.814 194.342 114.776 194.474 114.695 194.578C114.613 194.683 114.495 194.752 114.364 194.771C114.233 194.752 114.115 194.682 114.035 194.578C113.954 194.473 113.917 194.342 113.932 194.21L112.894 139.798L114.65 139.753Z" fill="white" stroke="#263238" stroke-linecap="round" stroke-linejoin="round"/>
<path d="M74.5416 139.753L74.693 194.21C74.706 194.342 74.6678 194.474 74.5863 194.578C74.5049 194.683 74.3864 194.752 74.2555 194.771C74.1249 194.752 74.007 194.682 73.9265 194.578C73.8459 194.473 73.809 194.342 73.8235 194.21L72.7858 139.798L74.5416 139.753Z" fill="white" stroke="#263238" stroke-linecap="round" stroke-linejoin="round"/>
<path d="M113.523 141.761L113.696 204.162C113.714 204.317 113.671 204.474 113.576 204.598C113.481 204.723 113.341 204.806 113.186 204.829C113.035 204.807 112.899 204.729 112.803 204.61C112.707 204.492 112.66 204.342 112.67 204.19L111.453 141.834L113.523 141.761Z" fill="white" stroke="#263238" stroke-linecap="round" stroke-linejoin="round"/>
<path d="M94.0629 146.131C107.849 146.131 119.025 143.577 119.025 140.426C119.025 137.275 107.849 134.721 94.0629 134.721C80.2764 134.721 69.1003 137.275 69.1003 140.426C69.1003 143.577 80.2764 146.131 94.0629 146.131Z" fill="white" stroke="#263238" stroke-linecap="round" stroke-linejoin="round"/>
<path d="M81.9069 188.853C81.9069 188.853 80.5999 190.727 81.5367 191.658C82.4735 192.589 83.4047 192.219 83.3093 193.156C83.214 194.093 81.7218 197.268 80.4148 200.633C79.1078 203.999 81.8172 207.365 84.3415 206.434C86.8658 205.502 86.5853 196.146 86.9555 194.463C87.3258 192.78 87.6119 192.499 87.5165 190.912C87.4211 189.324 87.3314 187.642 86.1141 187.451C84.8968 187.26 82.4679 188.202 81.9069 188.853Z" fill="white" stroke="#263238" stroke-linecap="round" stroke-linejoin="round"/>
<path d="M85.9178 203.853C84.2349 203.214 81.6545 203.343 80.2017 203.488C80.6897 205.603 82.5577 207.09 84.3415 206.434C85.0876 206.159 85.5756 205.16 85.9178 203.853Z" fill="#F39E3A" stroke="#263238" stroke-linecap="round" stroke-linejoin="round"/>
<path d="M79.0124 184.741C79.0124 184.741 81.7218 189.324 82.4679 190.536C83.2139 191.748 85.7438 191.377 86.0243 189.695C86.3048 188.012 84.9922 183.339 84.9922 183.339L79.3826 184.741H79.0124Z" fill="white" stroke="#263238" stroke-linecap="round" stroke-linejoin="round"/>
<path d="M72.5614 177.449C72.5614 177.449 71.8097 178.666 72.1856 179.508C72.5614 180.349 73.588 182.778 74.2443 183.995C74.9006 185.213 77.8905 185.959 81.346 185.398C84.8015 184.837 86.7705 183.244 86.8658 181.841C86.9612 180.439 86.3049 178.571 85.8337 176.327C85.3625 174.083 84.1508 174.179 82.4679 174.179C80.7851 174.179 73.9638 176.142 72.5614 177.449Z" fill="#F39E3A" stroke="#263238" stroke-linecap="round" stroke-linejoin="round"/>
<path d="M82.6587 149.962C82.7092 147.662 84.0386 146.529 84.1396 144.953C84.2978 142.869 84.1256 140.773 83.6291 138.743L81.0712 135.248C73.7114 135.344 68.4384 135.467 68.3543 135.495C68.0738 135.585 67.8831 137.178 67.698 138.485C67.698 138.485 64.5734 138.883 65.1344 147.578C65.2129 148.79 68.3655 162.808 68.5955 164.407C69.9979 174.173 73.1224 179.064 73.1224 179.064C73.1224 179.064 73.4029 180.282 77.0491 180.001C80.6953 179.721 84.3416 177.292 84.3416 177.292C84.3416 177.292 82.468 158.281 82.6587 149.962Z" fill="#263238" stroke="#263238" stroke-linecap="round" stroke-linejoin="round"/>
<path d="M67.1931 137.06C67.1931 137.06 63.3281 137.621 60.9609 140.325C58.5936 143.029 60.6018 144.812 65.2017 144.33C69.8015 143.848 75.1082 139.141 75.3326 138.889C75.5569 138.636 70.5364 135.439 67.1931 137.06Z" fill="white" stroke="#263238" stroke-linecap="round" stroke-linejoin="round"/>
<path d="M74.0536 138.743C76.5161 138.87 78.9594 139.246 81.3461 139.865C84.5267 140.802 90.1362 142.67 91.4433 142.67C92.7503 142.67 92.3801 137.806 92.3801 136.875C92.3801 135.944 75.5514 135.377 73.4927 135.377C71.434 135.377 74.0536 138.743 74.0536 138.743Z" fill="white" stroke="#263238" stroke-linecap="round" stroke-linejoin="round"/>
<path d="M92.38 136.875C92.38 136.875 90.8823 137.621 90.3213 140.426C89.7604 143.231 89.0143 144.728 90.1362 145.474C91.2581 146.221 96.1216 146.781 96.8677 146.035C97.6138 145.289 99.6725 141.548 100.048 139.119C100.424 136.69 92.38 136.875 92.38 136.875Z" fill="#F39E3A" stroke="#263238" stroke-linecap="round" stroke-linejoin="round"/>
<path d="M98.7356 137.806C97.866 138.804 97.1718 139.942 96.6825 141.172C96.286 142.459 95.9731 143.771 95.7457 145.099C97.5353 145.589 99.285 146.215 100.979 146.972C103.975 148.279 109.024 149.216 113.881 150.338C118.739 151.46 120.052 152.582 121.735 152.582C123.418 152.582 125.476 151.269 128.096 148.094C130.716 144.919 128.466 138.182 125.852 136.123C123.238 134.065 109.209 132.387 107.341 132.948C105.473 133.509 98.7356 137.806 98.7356 137.806Z" fill="#263238" stroke="#263238" stroke-linecap="round" stroke-linejoin="round"/>
<path d="M63.6533 144.381C63.2839 142.702 62.5356 141.131 61.4656 139.786C61.2917 139.949 61.1234 140.117 60.9607 140.302C58.8796 142.67 60.181 144.353 63.6533 144.381Z" fill="#F39E3A" stroke="#263238" stroke-linecap="round" stroke-linejoin="round"/>
<path d="M82.3726 145.861C82.3726 145.861 80.4429 166.51 76.505 169.725" stroke="white" stroke-width="0.5" stroke-linecap="round" stroke-linejoin="round"/>
<path d="M81.0094 165.461C81.0094 165.461 79.478 172.193 75.4615 174.869" stroke="white" stroke-width="0.5" stroke-linecap="round" stroke-linejoin="round"/>
<path d="M105.843 142.109C105.843 142.109 99.8576 142.485 103.784 145.099C107.711 147.713 114.818 149.401 114.818 149.401" stroke="white" stroke-width="0.5" stroke-linecap="round" stroke-linejoin="round"/>
<path d="M149.295 135.035L147.275 133.217L142.608 123.12C142.387 122.661 142.039 122.274 141.606 122.005C141.173 121.736 140.672 121.595 140.162 121.6H49.5117C49.0008 121.594 48.4989 121.734 48.0647 122.003C47.6306 122.273 47.2821 122.66 47.0603 123.12L41.2432 135.697L40.284 135.344V138.221L40.3288 138.188C40.386 138.572 40.5808 138.922 40.8771 139.172C41.1733 139.423 41.5507 139.558 41.9388 139.551H147.73C148.138 139.56 148.535 139.41 148.835 139.133C149.135 138.856 149.316 138.472 149.34 138.064L149.295 135.035Z" fill="#263238" stroke="#263238" stroke-linecap="round" stroke-linejoin="round"/>
<path d="M147.73 136.92H41.9388C41.6768 136.93 41.4165 136.874 41.1822 136.756C40.9479 136.639 40.7474 136.463 40.5994 136.247C40.4514 136.03 40.3607 135.78 40.336 135.519C40.3112 135.258 40.3532 134.995 40.4579 134.755L47.0603 120.489C47.2811 120.028 47.6292 119.64 48.0636 119.371C48.4981 119.101 49.0006 118.962 49.5117 118.969H140.162C140.673 118.963 141.174 119.103 141.607 119.372C142.04 119.642 142.388 120.029 142.608 120.489L149.211 134.755C149.315 134.995 149.357 135.258 149.332 135.519C149.308 135.78 149.217 136.03 149.069 136.247C148.921 136.463 148.721 136.639 148.486 136.756C148.252 136.874 147.992 136.93 147.73 136.92Z" fill="white" stroke="#263238" stroke-linecap="round" stroke-linejoin="round"/>
<g style="mix-blend-mode:multiply" opacity="0.5">
<path d="M47.2959 127.339C47.2959 127.339 44.9006 128.982 46.3984 129.583C47.8961 130.183 65.1119 129.734 67.2099 129.134C69.3079 128.534 71.6975 122.997 71.6975 122.099C71.6975 121.202 68.6796 120.557 67.5689 120.506C66.4582 120.456 51.7836 121.348 51.7836 121.348L47.2959 127.339Z" fill="#F39E3A"/>
</g>
<g style="mix-blend-mode:multiply" opacity="0.5">
<path d="M132.932 130.183C136.321 130.183 139.069 129.043 139.069 127.636C139.069 126.229 136.321 125.089 132.932 125.089C129.542 125.089 126.795 126.229 126.795 127.636C126.795 129.043 129.542 130.183 132.932 130.183Z" fill="#F39E3A"/>
</g>
<g style="mix-blend-mode:multiply" opacity="0.5">
<path d="M93.861 133.33C106.015 133.33 115.867 131.486 115.867 129.212C115.867 126.938 106.015 125.095 93.861 125.095C81.7072 125.095 71.8547 126.938 71.8547 129.212C71.8547 131.486 81.7072 133.33 93.861 133.33Z" fill="#F39E3A"/>
</g>
<path d="M128.444 117.617C128.444 117.617 128.04 116.007 126.699 116.546C125.359 117.084 125.493 120.641 125.757 122.655C126.021 124.669 127.838 123.726 127.838 123.726V122.52C127.838 122.52 127.171 123.053 126.834 122.318C126.497 121.583 126.565 117.887 126.901 117.954C127.238 118.021 127.905 119.16 127.905 119.16C127.905 119.16 128.107 119.031 128.444 117.617Z" fill="#F39E3A" stroke="#263238" stroke-linecap="round" stroke-linejoin="round"/>
<path d="M127.479 117.887V126.705C127.479 127.743 129.863 128.584 132.808 128.584C135.753 128.584 138.132 127.743 138.132 126.705V117.887H127.479Z" fill="#F39E3A" stroke="#263238" stroke-linecap="round" stroke-linejoin="round"/>
<path d="M138.132 117.887C138.132 118.784 135.748 119.508 132.808 119.508C129.869 119.508 127.479 118.784 127.479 117.887C127.479 116.989 129.863 116.265 132.808 116.265C135.753 116.265 138.132 116.995 138.132 117.887Z" fill="white" stroke="#263238" stroke-linecap="round" stroke-linejoin="round"/>
<path d="M137.436 117.887C137.436 118.666 135.36 119.295 132.808 119.295C130.256 119.295 128.175 118.666 128.175 117.887C128.175 117.107 130.25 116.479 132.808 116.479C135.366 116.479 137.436 117.107 137.436 117.887Z" fill="white" stroke="#263238" stroke-linecap="round" stroke-linejoin="round"/>
<path d="M129.235 118.784C131.567 119.465 134.044 119.465 136.376 118.784C134.044 118.104 131.567 118.104 129.235 118.784Z" fill="#263238" stroke="#263238" stroke-linecap="round" stroke-linejoin="round"/>
<path d="M46.6339 121.914L46.7013 124.932L67.0359 125.134V121.645L46.6339 121.914Z" fill="white" stroke="#263238" stroke-linecap="round" stroke-linejoin="round"/>
<path d="M67.036 125.134L69.9922 118.762V116.882L66.9013 122.251L67.036 125.134Z" fill="white" stroke="#263238" stroke-linecap="round" stroke-linejoin="round"/>
<path d="M46.6339 124.663L46.7013 127.686L67.0359 127.888V124.399L46.6339 124.663Z" fill="white" stroke="#263238" stroke-linecap="round" stroke-linejoin="round"/>
<path d="M67.036 127.888L69.9922 121.51V119.631L66.9013 124.999L67.036 127.888Z" fill="white" stroke="#263238" stroke-linecap="round" stroke-linejoin="round"/>
<path d="M54.4874 114.263C54.4874 114.263 54.9586 113.326 54.2854 112.922C53.6123 112.518 52.8774 113.483 52.4735 113.792C52.0697 114.1 43.616 119.698 43.3468 120.574C43.0775 121.449 43.3468 123.378 45.1587 123.591C46.9706 123.805 48.5805 122.587 49.3883 122.385C50.1961 122.183 50.5102 122.116 50.5102 122.116L56.0805 114.599L54.4874 114.263Z" fill="white" stroke="#263238" stroke-linecap="round" stroke-linejoin="round"/>
<path d="M45.1587 123.597C46.9706 123.799 48.5805 122.593 49.3883 122.391C50.1961 122.189 50.5102 122.122 50.5102 122.122L50.7122 121.847L45.4784 120.781C45.1939 120.513 44.8281 120.348 44.4389 120.311C44.0497 120.275 43.6595 120.369 43.33 120.579C43.0775 121.443 43.3468 123.39 45.1587 123.597Z" fill="white" stroke="#263238" stroke-linecap="round" stroke-linejoin="round"/>
<path d="M45.4952 120.792H61.202C66.1048 120.792 67.5801 120.523 67.5801 120.523L70.598 114.28C70.598 114.28 61.0618 114.885 58.1168 114.684C56.8998 114.648 55.6878 114.513 54.493 114.28L45.4952 120.792Z" fill="white" stroke="#263238" stroke-linecap="round" stroke-linejoin="round"/>
<path d="M45.4952 120.792L45.7645 121.998C45.7645 121.998 58.515 122.066 61.8696 122.066C65.2241 122.066 67.7764 122.2 67.7764 122.2L67.5745 120.517L45.4952 120.792Z" fill="white" stroke="#263238" stroke-linecap="round" stroke-linejoin="round"/>
<path d="M67.7764 122.183L70.5924 115.738V114.263L67.5745 120.506L67.7764 122.183Z" fill="white" stroke="#263238" stroke-linecap="round" stroke-linejoin="round"/>
<path d="M113.079 129.723H74.6257C74.5405 129.724 74.456 129.707 74.3771 129.675C74.2981 129.643 74.2264 129.596 74.1659 129.536C74.1054 129.476 74.0574 129.404 74.0246 129.326C73.9918 129.247 73.9749 129.163 73.9749 129.078C73.9749 128.992 73.9918 128.908 74.0246 128.83C74.0574 128.751 74.1054 128.68 74.1659 128.62C74.2264 128.56 74.2981 128.512 74.3771 128.48C74.456 128.448 74.5405 128.432 74.6257 128.433H113.079C113.164 128.432 113.248 128.448 113.327 128.48C113.406 128.512 113.477 128.56 113.537 128.62C113.597 128.68 113.645 128.751 113.677 128.83C113.709 128.909 113.725 128.993 113.724 129.078C113.725 129.163 113.709 129.247 113.677 129.325C113.645 129.404 113.597 129.475 113.537 129.536C113.477 129.596 113.406 129.643 113.327 129.675C113.248 129.707 113.164 129.724 113.079 129.723Z" fill="white" stroke="#263238" stroke-linecap="round" stroke-linejoin="round"/>
<path d="M113.405 128.421H74.2947C74.1516 128.422 74.0138 128.367 73.9095 128.269C73.8052 128.171 73.7424 128.037 73.7338 127.894L71.6078 102.342C71.5982 102.263 71.6056 102.183 71.6295 102.107C71.6533 102.031 71.6931 101.961 71.7462 101.902C71.7993 101.842 71.8644 101.795 71.9373 101.762C72.0101 101.73 72.089 101.714 72.1687 101.714H115.536C115.616 101.714 115.695 101.73 115.768 101.762C115.841 101.795 115.906 101.842 115.959 101.902C116.012 101.961 116.052 102.031 116.076 102.107C116.099 102.183 116.107 102.263 116.097 102.342L113.971 127.894C113.963 128.038 113.899 128.173 113.793 128.271C113.688 128.369 113.549 128.423 113.405 128.421Z" fill="white" stroke="#263238" stroke-linecap="round" stroke-linejoin="round"/>
<path d="M97.5408 115.508C97.5408 117.034 95.886 118.268 93.8497 118.268C91.8135 118.268 90.153 117.034 90.153 115.508C90.153 113.982 91.8079 112.754 93.8497 112.754C95.8916 112.754 97.5408 113.988 97.5408 115.508Z" fill="white" stroke="#263238" stroke-linecap="round" stroke-linejoin="round"/>
<path d="M135.759 95.5493C136.359 95.0813 136.78 94.4221 136.954 93.6813C137.08 93.1257 137.066 92.5475 136.914 91.9984" stroke="#263238" stroke-linecap="round" stroke-linejoin="round"/>
<path d="M131.282 115.553C131.282 115.553 135.013 113.309 133.795 110.746C132.578 108.182 128.461 106.482 128.461 102.488C128.461 99.044 132.124 97.7707 134.513 96.3907" stroke="#263238" stroke-linecap="round" stroke-linejoin="round"/>
<path d="M134.727 115.48C134.727 115.48 136.808 114.095 136.808 111.896C136.808 110.42 135.232 109.455 133.15 107.083" stroke="#263238" stroke-linecap="round" stroke-linejoin="round"/>
<path d="M132 105.647C132 105.647 130.637 104.575 131.641 102.561" stroke="#263238" stroke-linecap="round" stroke-linejoin="round"/>
<path d="M100.419 46.8863C101.086 46.7461 102.516 46.1963 103.481 43.9581C103.496 43.9242 103.504 43.8878 103.505 43.8508C103.506 43.8138 103.499 43.7771 103.485 43.7427C103.472 43.7082 103.452 43.6769 103.426 43.6503C103.4 43.6237 103.369 43.6025 103.335 43.5879C103.267 43.5594 103.19 43.5587 103.121 43.5859C103.052 43.6131 102.996 43.6661 102.965 43.7337C102.079 45.7868 100.811 46.2412 100.284 46.3422C101.227 45.2002 101.749 43.7678 101.759 42.2865C101.759 38.3934 98.1522 35.2408 93.7039 35.2408C89.2555 35.2408 85.6485 38.3934 85.6485 42.2865C85.6516 43.7081 86.1249 45.0887 86.9948 46.2132C86.1478 46.1683 84.7173 46.5273 82.9054 48.6421C82.8537 48.6955 82.8248 48.7669 82.8248 48.8412C82.8248 48.9156 82.8537 48.987 82.9054 49.0404C82.9575 49.0836 83.0229 49.1074 83.0906 49.1077C83.1314 49.1077 83.1716 49.0987 83.2085 49.0812C83.2454 49.0638 83.2779 49.0383 83.3037 49.0067C85.6205 46.3085 87.1519 46.7629 87.4604 46.8863C86.9366 47.1744 86.4457 47.5186 85.9963 47.9129C83.4103 50.2408 81.834 54.6443 82.036 58.313C82.263 60.7462 83.145 63.0724 84.5883 65.0445C86.4666 63.7003 88.024 61.957 89.1489 59.9398C89.9872 58.458 90.7365 56.9276 91.3927 55.3568C91.3927 57.0004 91.6059 58.9861 92.4698 60.4054C93.0929 61.5264 94.0059 62.4593 95.1131 63.1067C96.2203 63.7541 97.4811 64.092 98.7637 64.0852C99.2065 64.0916 99.6487 64.0483 100.082 63.9562C100.12 63.9467 100.156 63.9293 100.187 63.9051C100.217 63.881 100.243 63.8506 100.261 63.816C102.427 64.276 104.581 64.2367 104.912 63.7767C105.445 63.0419 106.202 60.7475 106.454 57.9428C106.914 53.1859 103.919 49.0572 100.419 46.8863ZM92.9914 60.0632C91.9032 58.2849 91.9368 55.3848 92.0659 53.7188L92.1388 53.528C92.1905 55.2415 92.6273 56.9214 93.4168 58.4431C94.2063 59.9648 95.3282 61.2892 96.6994 62.3182C97.4568 62.8418 98.2969 63.2343 99.1844 63.4794C97.8101 63.5748 94.9828 63.3111 92.9914 60.0632Z" fill="#263238"/>
<path d="M93.0869 51.2337C93.0869 51.2337 92.6269 54.6331 96.9463 57.9652C101.266 61.2973 105.361 59.9846 105.361 59.9846" stroke="white" stroke-width="0.5" stroke-linecap="round" stroke-linejoin="round"/>
<path d="M93.7207 50.1118C93.7207 50.1118 98.2701 56.7367 104.553 55.0089" stroke="white" stroke-width="0.5" stroke-linecap="round" stroke-linejoin="round"/>
<path d="M91.4713 47.9072C90.7539 47.5429 89.9502 47.3827 89.1479 47.4441C88.3456 47.5054 87.5756 47.7859 86.9219 48.255C84.5042 49.865 83.2925 53.6682 83.2925 53.6682" stroke="white" stroke-width="0.5" stroke-linecap="round" stroke-linejoin="round"/>
<path d="M91.5891 49.7528C91.5891 49.7528 89.6313 49.2311 88.4197 50.4428C87.8292 50.9779 87.3241 51.6003 86.9219 52.2883" stroke="white" stroke-width="0.5" stroke-linecap="round" stroke-linejoin="round"/>
</svg>
