<svg width="195" height="51" viewBox="0 0 195 51" fill="none" xmlns="http://www.w3.org/2000/svg">
<rect width="105" height="51" fill="#F39E3A"/>
<path d="M9.29 38V13.5H13.035L28.4 32.365H26.545V13.5H31.06V38H27.315L11.95 19.135H13.805V38H9.29ZM45.99 38.245C43.9133 38.245 42.0933 37.8367 40.53 37.02C38.99 36.18 37.7883 35.0367 36.925 33.59C36.085 32.1433 35.665 30.4983 35.665 28.655C35.665 26.7883 36.0733 25.1433 36.89 23.72C37.73 22.2733 38.8733 21.1417 40.32 20.325C41.79 19.5083 43.4583 19.1 45.325 19.1C47.145 19.1 48.7666 19.4967 50.19 20.29C51.6133 21.0833 52.7333 22.2033 53.55 23.65C54.3666 25.0967 54.775 26.8 54.775 28.76C54.775 28.9467 54.7633 29.1567 54.74 29.39C54.74 29.6233 54.7283 29.845 54.705 30.055H39.13V27.15H52.395L50.68 28.06C50.7033 26.9867 50.4816 26.0417 50.015 25.225C49.5483 24.4083 48.9066 23.7667 48.09 23.3C47.2966 22.8333 46.375 22.6 45.325 22.6C44.2516 22.6 43.3066 22.8333 42.49 23.3C41.6966 23.7667 41.0666 24.42 40.6 25.26C40.1566 26.0767 39.935 27.045 39.935 28.165V28.865C39.935 29.985 40.1916 30.9767 40.705 31.84C41.2183 32.7033 41.9416 33.3683 42.875 33.835C43.8083 34.3017 44.8816 34.535 46.095 34.535C47.145 34.535 48.09 34.3717 48.93 34.045C49.77 33.7183 50.5166 33.205 51.17 32.505L53.515 35.2C52.675 36.18 51.6133 36.9383 50.33 37.475C49.07 37.9883 47.6233 38.245 45.99 38.245ZM62.7656 38L55.9056 19.31H60.0356L65.9156 35.795H63.9556L70.1156 19.31H73.7906L79.7756 35.795H77.8506L83.9056 19.31H87.7906L80.8956 38H76.6956L71.2356 23.405H72.5306L66.9656 38H62.7656ZM96.3345 38.245C94.7711 38.245 93.2661 38.0467 91.8195 37.65C90.3961 37.23 89.2645 36.7283 88.4245 36.145L90.1045 32.82C90.9445 33.3567 91.9478 33.8 93.1145 34.15C94.2811 34.5 95.4478 34.675 96.6145 34.675C97.9911 34.675 98.9828 34.4883 99.5895 34.115C100.219 33.7417 100.534 33.24 100.534 32.61C100.534 32.0967 100.324 31.7117 99.9045 31.455C99.4845 31.175 98.9361 30.965 98.2595 30.825C97.5828 30.685 96.8245 30.5567 95.9845 30.44C95.1678 30.3233 94.3395 30.1717 93.4995 29.985C92.6828 29.775 91.9361 29.4833 91.2595 29.11C90.5828 28.7133 90.0345 28.1883 89.6145 27.535C89.1945 26.8817 88.9845 26.0183 88.9845 24.945C88.9845 23.755 89.3228 22.7283 89.9995 21.865C90.6761 20.9783 91.6211 20.3017 92.8345 19.835C94.0711 19.345 95.5295 19.1 97.2095 19.1C98.4695 19.1 99.7411 19.24 101.024 19.52C102.308 19.8 103.369 20.1967 104.209 20.71L102.529 24.035C101.643 23.4983 100.744 23.1367 99.8345 22.95C98.9478 22.74 98.0611 22.635 97.1745 22.635C95.8445 22.635 94.8528 22.8333 94.1995 23.23C93.5695 23.6267 93.2545 24.1283 93.2545 24.735C93.2545 25.295 93.4645 25.715 93.8845 25.995C94.3045 26.275 94.8528 26.4967 95.5295 26.66C96.2061 26.8233 96.9528 26.9633 97.7695 27.08C98.6095 27.1733 99.4378 27.325 100.254 27.535C101.071 27.745 101.818 28.0367 102.494 28.41C103.194 28.76 103.754 29.2617 104.174 29.915C104.594 30.5683 104.804 31.42 104.804 32.47C104.804 33.6367 104.454 34.6517 103.754 35.515C103.078 36.3783 102.109 37.055 100.849 37.545C99.5895 38.0117 98.0845 38.245 96.3345 38.245Z" fill="white"/>
<path d="M113.962 38V17.35H105.842V13.5H126.632V17.35H118.512V38H113.962ZM129.183 38V19.31H133.348V24.455L132.858 22.95C133.418 21.69 134.293 20.7333 135.483 20.08C136.696 19.4267 138.201 19.1 139.998 19.1V23.265C139.811 23.2183 139.636 23.195 139.473 23.195C139.309 23.1717 139.146 23.16 138.983 23.16C137.326 23.16 136.008 23.65 135.028 24.63C134.048 25.5867 133.558 27.0217 133.558 28.935V38H129.183ZM152.323 38.245C150.246 38.245 148.426 37.8367 146.863 37.02C145.323 36.18 144.121 35.0367 143.258 33.59C142.418 32.1433 141.998 30.4983 141.998 28.655C141.998 26.7883 142.406 25.1433 143.223 23.72C144.063 22.2733 145.206 21.1417 146.653 20.325C148.123 19.5083 149.791 19.1 151.658 19.1C153.478 19.1 155.1 19.4967 156.523 20.29C157.946 21.0833 159.066 22.2033 159.883 23.65C160.7 25.0967 161.108 26.8 161.108 28.76C161.108 28.9467 161.096 29.1567 161.073 29.39C161.073 29.6233 161.061 29.845 161.038 30.055H145.463V27.15H158.728L157.013 28.06C157.036 26.9867 156.815 26.0417 156.348 25.225C155.881 24.4083 155.24 23.7667 154.423 23.3C153.63 22.8333 152.708 22.6 151.658 22.6C150.585 22.6 149.64 22.8333 148.823 23.3C148.03 23.7667 147.4 24.42 146.933 25.26C146.49 26.0767 146.268 27.045 146.268 28.165V28.865C146.268 29.985 146.525 30.9767 147.038 31.84C147.551 32.7033 148.275 33.3683 149.208 33.835C150.141 34.3017 151.215 34.535 152.428 34.535C153.478 34.535 154.423 34.3717 155.263 34.045C156.103 33.7183 156.85 33.205 157.503 32.505L159.848 35.2C159.008 36.18 157.946 36.9383 156.663 37.475C155.403 37.9883 153.956 38.245 152.323 38.245ZM175.915 19.1C177.409 19.1 178.739 19.3917 179.905 19.975C181.095 20.5583 182.029 21.4567 182.705 22.67C183.382 23.86 183.72 25.4 183.72 27.29V38H179.345V27.85C179.345 26.1933 178.949 24.9567 178.155 24.14C177.385 23.3233 176.3 22.915 174.9 22.915C173.874 22.915 172.964 23.125 172.17 23.545C171.377 23.965 170.759 24.595 170.315 25.435C169.895 26.2517 169.685 27.29 169.685 28.55V38H165.31V19.31H169.475V24.35L168.74 22.81C169.394 21.62 170.339 20.71 171.575 20.08C172.835 19.4267 174.282 19.1 175.915 19.1ZM190.67 38.245C189.877 38.245 189.2 37.9767 188.64 37.44C188.08 36.88 187.8 36.18 187.8 35.34C187.8 34.4533 188.08 33.7533 188.64 33.24C189.2 32.7033 189.877 32.435 190.67 32.435C191.464 32.435 192.14 32.7033 192.7 33.24C193.26 33.7533 193.54 34.4533 193.54 35.34C193.54 36.18 193.26 36.88 192.7 37.44C192.14 37.9767 191.464 38.245 190.67 38.245Z" fill="#F39E3A"/>
</svg>
