<svg width="24" height="20" viewBox="0 0 24 20" fill="none" xmlns="http://www.w3.org/2000/svg">
<path d="M5.2353 1.41881C5.2353 1.03993 5.08479 0.676562 4.81688 0.408653C4.54897 0.140744 4.1856 -0.00976562 3.80672 -0.00976562C3.42784 -0.00976562 3.06448 0.140744 2.79657 0.408653C2.52866 0.676562 2.37815 1.03993 2.37815 1.41881V11.8017C1.94385 12.0524 1.5832 12.4131 1.33246 12.8474C1.08171 13.2818 0.949707 13.7744 0.949707 14.2759C0.949707 14.7775 1.08171 15.2701 1.33246 15.7045C1.5832 16.1388 1.94385 16.4995 2.37815 16.7502V18.5617C2.37815 18.9405 2.52866 19.3039 2.79657 19.5718C3.06448 19.8397 3.42784 19.9902 3.80672 19.9902C4.1856 19.9902 4.54897 19.8397 4.81688 19.5718C5.08479 19.3039 5.2353 18.9405 5.2353 18.5617V16.7502C5.6696 16.4995 6.03025 16.1388 6.28099 15.7045C6.53174 15.2701 6.66374 14.7775 6.66374 14.2759C6.66374 13.7744 6.53174 13.2818 6.28099 12.8474C6.03025 12.4131 5.6696 12.0524 5.2353 11.8017V1.41881ZM13.8067 1.41881C13.8067 1.03993 13.6562 0.676562 13.3883 0.408653C13.1204 0.140744 12.757 -0.00976562 12.3782 -0.00976562C11.9993 -0.00976562 11.6359 0.140744 11.368 0.408653C11.1001 0.676562 10.9496 1.03993 10.9496 1.41881V3.23023C10.5153 3.48101 10.1546 3.84169 9.90388 4.27601C9.65314 4.71034 9.52114 5.20301 9.52114 5.70452C9.52114 6.20603 9.65314 6.6987 9.90388 7.13303C10.1546 7.56735 10.5153 7.92803 10.9496 8.17881V18.5617C10.9496 18.9405 11.1001 19.3039 11.368 19.5718C11.6359 19.8397 11.9993 19.9902 12.3782 19.9902C12.757 19.9902 13.1204 19.8397 13.3883 19.5718C13.6562 19.3039 13.8067 18.9405 13.8067 18.5617V8.17881C14.241 7.92803 14.6017 7.56735 14.8524 7.13303C15.1032 6.6987 15.2352 6.20603 15.2352 5.70452C15.2352 5.20301 15.1032 4.71034 14.8524 4.27601C14.6017 3.84169 14.241 3.48101 13.8067 3.23023V1.41881ZM20.9496 -0.00976562C21.3285 -0.00976562 21.6918 0.140744 21.9597 0.408653C22.2276 0.676562 22.3782 1.03993 22.3782 1.41881V11.8017C22.8125 12.0524 23.1731 12.4131 23.4239 12.8474C23.6746 13.2818 23.8066 13.7744 23.8066 14.2759C23.8066 14.7775 23.6746 15.2701 23.4239 15.7045C23.1731 16.1388 22.8125 16.4995 22.3782 16.7502V18.5617C22.3782 18.9405 22.2276 19.3039 21.9597 19.5718C21.6918 19.8397 21.3285 19.9902 20.9496 19.9902C20.5707 19.9902 20.2073 19.8397 19.9394 19.5718C19.6715 19.3039 19.521 18.9405 19.521 18.5617V16.7502C19.0867 16.4995 18.7261 16.1388 18.4753 15.7045C18.2246 15.2701 18.0926 14.7775 18.0926 14.2759C18.0926 13.7744 18.2246 13.2818 18.4753 12.8474C18.7261 12.4131 19.0867 12.0524 19.521 11.8017V1.41881C19.521 1.03993 19.6715 0.676562 19.9394 0.408653C20.2073 0.140744 20.5707 -0.00976562 20.9496 -0.00976562Z" fill="white"/>
</svg>
