<svg width="100" height="100" viewBox="0 0 100 100" fill="none" xmlns="http://www.w3.org/2000/svg">
<path d="M50 0C22.3887 0 0 22.3852 0 50C0 77.6148 22.3865 100 50 100C77.6157 100 100 77.6148 100 50C100 22.3852 77.6157 0 50 0ZM50 14.9506C54.3861 14.9503 58.5927 16.6925 61.6943 19.7938C64.796 22.8952 66.5386 27.1017 66.5389 31.488C66.5392 35.8743 64.7971 40.0811 61.6959 43.1829C58.5946 46.2847 54.3883 48.0274 50.0022 48.0277C45.6161 48.028 41.4095 46.2858 38.3079 43.1844C35.2062 40.0831 33.4636 35.8765 33.4633 31.4902C33.463 27.1039 35.2051 22.8972 38.3063 19.7954C41.4076 16.6936 45.6139 14.9509 50 14.9506ZM49.989 86.9273C41.2274 86.9371 32.7515 83.8114 26.0937 78.1155C25.3189 77.4544 24.6967 76.6331 24.2697 75.7083C23.8428 74.7835 23.6214 73.7772 23.6208 72.7586C23.6208 63.4966 31.1166 56.0839 40.3804 56.0839H59.624C68.89 56.0839 76.3573 63.4966 76.3573 72.7586C76.3579 73.7769 76.1373 74.7831 75.7107 75.7077C75.284 76.6322 74.6616 77.4531 73.8865 78.1133C67.2291 83.8116 58.7519 86.9382 49.989 86.9273Z" fill="#F39E3A"/>
</svg>
