<svg width="23" height="20" viewBox="0 0 23 20" fill="none" xmlns="http://www.w3.org/2000/svg">
<path d="M15.7143 2.85714H18.5714C19.3616 2.85714 20 3.49554 20 4.28571V15.7143C20 16.5045 19.3616 17.1429 18.5714 17.1429H15.7143C14.9241 17.1429 14.2857 17.7812 14.2857 18.5714C14.2857 19.3616 14.9241 20 15.7143 20H18.5714C20.9375 20 22.8571 18.0804 22.8571 15.7143V4.28571C22.8571 1.91964 20.9375 0 18.5714 0H15.7143C14.9241 0 14.2857 0.638393 14.2857 1.42857C14.2857 2.21875 14.9241 2.85714 15.7143 2.85714ZM15.2946 11.0089C15.8527 10.4509 15.8527 9.54464 15.2946 8.98661L9.58036 3.27232C9.02232 2.71429 8.11607 2.71429 7.55804 3.27232C7 3.83036 7 4.73661 7.55804 5.29464L10.8348 8.57143H1.42857C0.638393 8.57143 0 9.20982 0 10C0 10.7902 0.638393 11.4286 1.42857 11.4286H10.8348L7.55804 14.7054C7 15.2634 7 16.1696 7.55804 16.7277C8.11607 17.2857 9.02232 17.2857 9.58036 16.7277L15.2946 11.0134V11.0089Z" fill="#E42121"/>
</svg>
