<svg width="20" height="24" viewBox="0 0 20 24" fill="none" xmlns="http://www.w3.org/2000/svg">
<path d="M14.705 0H14.8757C15.0127 1.69253 14.3667 2.95719 13.5815 3.87301C12.8112 4.78251 11.7562 5.6646 10.05 5.53076C9.93617 3.86247 10.5833 2.69161 11.3673 1.77789C12.0945 0.92636 13.4277 0.168621 14.705 0ZM19.87 17.6167V17.6641C19.3905 19.1163 18.7066 20.361 17.8719 21.516C17.1099 22.5646 16.1762 23.9758 14.509 23.9758C13.0683 23.9758 12.1114 23.0494 10.6349 23.0241C9.07304 22.9988 8.21413 23.7987 6.78612 24H6.29923C5.25062 23.8482 4.40436 23.0178 3.78784 22.2695C1.96989 20.0585 0.565073 17.2025 0.303711 13.5476V12.4737C0.414368 9.85799 1.68535 7.73126 3.37472 6.70057C4.2663 6.15255 5.49196 5.68568 6.85673 5.89435C7.44164 5.98498 8.03919 6.18522 8.56297 6.38335C9.05934 6.5741 9.68008 6.9124 10.2681 6.89448C10.6665 6.88289 11.0628 6.67527 11.4643 6.52878C12.6404 6.10407 13.7934 5.61718 15.3131 5.84587C17.1394 6.12199 18.4357 6.93347 19.2367 8.18548C17.6917 9.16875 16.4702 10.6505 16.6789 13.1809C16.8644 15.4794 18.2007 16.8241 19.87 17.6167Z" fill="black"/>
</svg>
