<svg width="80" height="76" viewBox="0 0 80 76" fill="none" xmlns="http://www.w3.org/2000/svg">
<path d="M77.7775 0H20C18.7729 0 17.7775 0.995209 17.7775 2.2225V68.8892C17.7694 71.301 16.9691 73.6434 15.4996 75.5558H68.8892C75.0227 75.5494 79.9933 70.5788 80 64.4442V2.2225C80 0.995417 79.0048 0 77.7775 0ZM64.4442 57.7775H33.3333C32.1062 57.7775 31.1108 56.7831 31.1108 55.5558C31.1108 54.3285 32.106 53.3333 33.3333 53.3333H64.4442C65.6712 53.3333 66.6667 54.3285 66.6667 55.5558C66.6667 56.7831 65.6715 57.7775 64.4442 57.7775ZM64.4442 44.4442H33.3333C32.1062 44.4442 31.1108 43.4498 31.1108 42.2225C31.1108 40.9952 32.106 40 33.3333 40H64.4442C65.6712 40 66.6667 40.9952 66.6667 42.2225C66.6667 43.4498 65.6715 44.4442 64.4442 44.4442ZM64.4442 31.1108H33.3333C32.1062 31.1108 31.1108 30.1165 31.1108 28.8892C31.1108 27.6619 32.106 26.6667 33.3333 26.6667H64.4442C65.6712 26.6667 66.6667 27.6619 66.6667 28.8892C66.6667 30.1165 65.6715 31.1108 64.4442 31.1108ZM64.4442 17.7775H33.3333C32.1062 17.7775 31.1108 16.7831 31.1108 15.5558C31.1108 14.3285 32.106 13.3333 33.3333 13.3333H64.4442C65.6712 13.3333 66.6667 14.3285 66.6667 15.5558C66.6667 16.7831 65.6715 17.7775 64.4442 17.7775ZM11.1108 8.88917H2.2225C0.995417 8.88917 0 9.88354 0 11.1108V68.8892C0 72.5708 2.985 75.5558 6.66667 75.5558C10.3483 75.5558 13.3333 72.5708 13.3333 68.8892V11.1108C13.3333 9.88375 12.3381 8.88917 11.1108 8.88917Z" fill="#F0F0F0"/>
</svg>
