<svg width="150" height="150" viewBox="0 0 150 150" fill="none" xmlns="http://www.w3.org/2000/svg">
<path d="M147.5 12.5H140V7.5C140 6.83696 139.737 6.20107 139.268 5.73223C138.799 5.26339 138.163 5 137.5 5H113.535L109.268 0.7325C108.799 0.263627 108.163 0.000141594 107.5 0H2.5C1.83696 0 1.20107 0.263392 0.732233 0.732233C0.263392 1.20107 0 1.83696 0 2.5V137.5C0.00396964 140.814 1.3222 143.991 3.66555 146.334C6.00889 148.678 9.18601 149.996 12.5 150H137.5C140.814 149.996 143.991 148.678 146.334 146.334C148.678 143.991 149.996 140.814 150 137.5V15C150 14.337 149.737 13.7011 149.268 13.2322C148.799 12.7634 148.163 12.5 147.5 12.5ZM110 8.535L131.465 30H110V8.535ZM135 145H12.5C10.5109 145 8.60322 144.21 7.1967 142.803C5.79018 141.397 5 139.489 5 137.5V5H105V32.5C105 33.163 105.263 33.7989 105.732 34.2678C106.201 34.7366 106.837 35 107.5 35H135V145ZM135 26.465L118.535 10H135V26.465ZM145 137.5C144.994 139.046 144.51 140.552 143.615 141.812C142.72 143.072 141.457 144.025 140 144.54V17.5H145V137.5Z" fill="black"/>
<path d="M15 15H15.7675L23.2675 35H32.5V10H27.5V30H26.7325L19.2325 10H10V35H15V15ZM57.5 35H62.5C62.9997 35.0004 63.488 34.851 63.902 34.5712C64.316 34.2913 64.6366 33.8938 64.8225 33.43L67.5 26.73L70.1775 33.43C70.3634 33.8938 70.684 34.2913 71.098 34.5712C71.512 34.851 72.0003 35.0004 72.5 35H77.5C78.163 35 78.7989 34.7366 79.2678 34.2678C79.7366 33.7989 80 33.163 80 32.5V10H75V30H74.1925L69.8225 19.07C69.6374 18.6053 69.3171 18.2068 68.903 17.926C68.489 17.6453 68.0002 17.4952 67.5 17.4952C66.9998 17.4952 66.511 17.6453 66.097 17.926C65.6829 18.2068 65.3626 18.6053 65.1775 19.07L60.8075 30H60V10H55V32.5C55 33.163 55.2634 33.7989 55.7322 34.2678C56.2011 34.7366 56.837 35 57.5 35ZM50 30H42.5V25H50V20H42.5V15H50V10H37.5V35H50V30ZM100 32.5V22.5C100 21.837 99.7366 21.2011 99.2678 20.7322C98.7989 20.2634 98.163 20 97.5 20H90V15H100V10H87.5C86.837 10 86.2011 10.2634 85.7322 10.7322C85.2634 11.2011 85 11.837 85 12.5V22.5C85 23.163 85.2634 23.7989 85.7322 24.2678C86.2011 24.7366 86.837 25 87.5 25H95V30H85V35H97.5C98.163 35 98.7989 34.7366 99.2678 34.2678C99.7366 33.7989 100 33.163 100 32.5ZM10 40H130V45H10V40ZM102.5 52.5C97.061 52.5 91.7442 54.1128 87.2218 57.1346C82.6995 60.1563 79.1747 64.4512 77.0933 69.4762C75.0119 74.5012 74.4673 80.0305 75.5284 85.365C76.5895 90.6995 79.2086 95.5995 83.0546 99.4454C86.9005 103.291 91.8005 105.911 97.135 106.972C102.469 108.033 107.999 107.488 113.024 105.407C118.049 103.325 122.344 99.8005 125.365 95.2782C128.387 90.7558 130 85.439 130 80C129.991 72.7092 127.091 65.7195 121.936 60.5641C116.781 55.4087 109.791 52.5086 102.5 52.5ZM95.98 58.47C93.2024 61.9513 90.9787 65.8404 89.3875 70H82.3875C83.7527 67.2567 85.6618 64.8199 87.9985 62.8377C90.3352 60.8556 93.0508 59.3695 95.98 58.47ZM80 80C80.0051 78.3168 80.1997 76.6396 80.58 75H88C87.3433 78.301 87.3433 81.699 88 85H80.58C80.1997 83.3604 80.0051 81.6832 80 80ZM82.375 90H89.3875C90.9787 94.1596 93.2024 98.0487 95.98 101.53C93.0485 100.632 90.3305 99.1466 87.9916 97.1644C85.6526 95.1821 83.7416 92.7445 82.375 90ZM100 98.535C97.9136 95.9188 96.1633 93.0515 94.79 90H100V98.535ZM100 85H93.1025C92.2958 81.7155 92.2958 78.2845 93.1025 75H100V85ZM100 70H94.7975C96.1731 66.956 97.9206 64.0942 100 61.48V70ZM105 61.465C107.086 64.0812 108.837 66.9485 110.21 70H105V61.465ZM105 75H111.897C112.704 78.2845 112.704 81.7155 111.897 85H105V75ZM105 90H110.203C108.827 93.044 107.079 95.9058 105 98.52V90ZM109.015 101.535C111.794 98.0523 114.02 94.1615 115.612 90H122.65C121.28 92.7478 119.364 95.1877 117.02 97.1708C114.675 99.154 111.952 100.639 109.015 101.535ZM125 80C124.994 81.6832 124.799 83.3605 124.417 85H117C117.657 81.699 117.657 78.301 117 75H124.41C124.794 76.6392 124.992 78.3165 125 80ZM115.612 70C114.02 65.8385 111.794 61.9477 109.015 58.465C111.952 59.3611 114.675 60.846 117.02 62.8292C119.364 64.8123 121.28 67.2522 122.65 70H115.612ZM70 52.5H10V87.5H70V52.5ZM65 82.5H15V57.5H65V82.5ZM105 112.5H130V117.5H105V112.5ZM105 132.5H130V137.5H105V132.5ZM105 122.5H125V127.5H105V122.5ZM45 112.5H100V117.5H45V112.5ZM45 122.5H60V127.5H45V122.5ZM65 122.5H70V127.5H65V122.5ZM75 122.5H82.5V127.5H75V122.5ZM87.5 122.5H100V127.5H87.5V122.5ZM45 132.5H100V137.5H45V132.5ZM10 122.5H40V127.5H10V122.5ZM10 112.5H40V117.5H10V112.5ZM10 132.5H40V137.5H10V132.5ZM10 102.5H77.5V107.5H10V102.5ZM10 92.5H70V97.5H10V92.5Z" fill="black"/>
</svg>
