<svg width="128" height="128" viewBox="0 0 128 128" fill="none" xmlns="http://www.w3.org/2000/svg">
<path d="M64.0006 115.2C73.5813 115.2 82.266 112.96 90.0483 108.461C97.754 104.122 104.122 97.7538 108.461 90.0482C112.96 82.1891 115.2 73.5043 115.2 64.0004C115.2 54.4197 112.96 45.735 108.461 37.9527C104.165 30.2146 97.7864 23.8357 90.0483 19.54C82.266 15.0409 73.5813 12.8009 64.0006 12.8009C54.4967 12.8009 45.8119 15.0409 37.9528 19.54C30.2468 23.8781 23.8782 30.2466 19.5402 37.9527C15.041 45.735 12.801 54.4197 12.801 64.0004C12.801 73.5043 15.041 82.1891 19.5402 90.0482C23.9209 97.7218 30.2792 104.08 37.9528 108.461C45.8119 112.96 54.4967 115.2 64.0006 115.2ZM64.0006 128C52.7266 128.069 41.6391 125.124 31.8857 119.469C22.2107 113.834 14.1639 105.785 8.53227 96.1089C2.87859 86.3574 -0.0666966 75.2722 0.00114608 64.0004C0.00114608 52.3973 2.84272 41.6966 8.53227 31.8855C14.1501 22.2279 22.2052 14.2146 31.8921 8.64732C41.6203 2.92471 52.7142 -0.0626969 64.0006 0.000997619C75.6037 0.000997619 86.3044 2.88097 96.1155 8.64092C105.803 14.2172 113.824 22.2823 119.347 32.0007C125.12 41.8054 128 52.4741 128 64.0004C128 75.5267 125.12 86.2338 119.36 96.1089C113.769 105.819 105.71 113.878 96.0003 119.469C86.2919 125.131 75.2392 128.078 64.0006 128Z" fill="black"/>
</svg>
