<svg width="64" height="64" viewBox="0 0 64 64" fill="none" xmlns="http://www.w3.org/2000/svg">
<mask id="mask0_42_3" style="mask-type:luminance" maskUnits="userSpaceOnUse" x="0" y="0" width="64" height="64">
<path d="M64 32C64 36.2023 63.1723 40.3635 61.5641 44.2459C59.956 48.1283 57.5989 51.6559 54.6274 54.6274C51.6559 57.5989 48.1283 59.956 44.2459 61.5641C40.3635 63.1723 36.2023 64 32 64C27.7977 64 23.6366 63.1723 19.7541 61.5641C15.8717 59.956 12.3441 57.5989 9.37258 54.6274C6.40111 51.6559 4.04401 48.1283 2.43586 44.2459C0.827706 40.3635 -6.26191e-08 36.2023 0 32C0 23.5131 3.37142 15.3738 9.37258 9.37259C15.3737 3.37142 23.5131 0 32 0C40.4869 0 48.6263 3.37142 54.6274 9.37259C60.6286 15.3738 64 23.5131 64 32Z" fill="white"/>
</mask>
<g mask="url(#mask0_42_3)">
<path d="M0.0161133 63.9936V42.6631H64.0076V63.9936H0.0161133Z" fill="#27AE60"/>
<path d="M0.0161133 42.6625V21.332H64.0076V42.6625H0.0161133Z" fill="white"/>
<path d="M0.0161133 21.3324V0.00195312H64.0076V21.3324H0.0161133Z" fill="#F39C12"/>
<path d="M32.0001 41.3352C37.1523 41.3352 41.3289 37.1586 41.3289 32.0065C41.3289 26.8544 37.1523 22.6777 32.0001 22.6777C26.848 22.6777 22.6714 26.8544 22.6714 32.0065C22.6714 37.1586 26.848 41.3352 32.0001 41.3352Z" fill="#000088"/>
<path d="M32.0001 40.1691C36.5082 40.1691 40.1627 36.5145 40.1627 32.0064C40.1627 27.4983 36.5082 23.8438 32.0001 23.8438C27.492 23.8438 23.8374 27.4983 23.8374 32.0064C23.8374 36.5145 27.492 40.1691 32.0001 40.1691Z" fill="white"/>
<path d="M32.0002 33.6391C32.9018 33.6391 33.6327 32.9082 33.6327 32.0066C33.6327 31.1049 32.9018 30.374 32.0002 30.374C31.0986 30.374 30.3677 31.1049 30.3677 32.0066C30.3677 32.9082 31.0986 33.6391 32.0002 33.6391Z" fill="#000088"/>
<path d="M40.0428 33.477C40.2662 33.5065 40.4713 33.3493 40.5009 33.1258C40.5304 32.9024 40.3732 32.6973 40.1497 32.6677C39.9263 32.6382 39.7212 32.7954 39.6916 33.0189C39.6621 33.2423 39.8193 33.4474 40.0428 33.477Z" fill="#000088"/>
<path d="M32.0006 40.1692L32.2804 35.2716L32.0006 32.9395L31.7207 35.2716L32.0006 40.1692Z" fill="#000088"/>
<path d="M39.3894 35.5092C39.5976 35.5956 39.8365 35.4968 39.9229 35.2886C40.0093 35.0803 39.9105 34.8415 39.7023 34.7551C39.494 34.6687 39.2552 34.7674 39.1688 34.9757C39.0824 35.1839 39.1811 35.4228 39.3894 35.5092Z" fill="#000088"/>
<path d="M29.8866 39.8924L31.4252 35.2331L31.7587 32.9074L30.8844 35.0882L29.8866 39.8924Z" fill="#000088"/>
<path d="M38.2283 37.2983C38.407 37.4356 38.6632 37.402 38.8006 37.2233C38.9379 37.0445 38.9043 36.7883 38.7255 36.651C38.5468 36.5137 38.2905 36.5473 38.1532 36.726C38.0159 36.9048 38.0495 37.161 38.2283 37.2983Z" fill="#000088"/>
<path d="M27.9175 39.073L30.6087 34.9715L31.5324 32.8118L30.1239 34.6916L27.9175 39.073Z" fill="#000088"/>
<path d="M36.6462 38.7335C36.7833 38.9124 37.0395 38.9463 37.2184 38.8092C37.3973 38.6721 37.4312 38.416 37.2941 38.237C37.157 38.0581 36.9009 38.0242 36.7219 38.1613C36.543 38.2984 36.5091 38.5545 36.6462 38.7335Z" fill="#000088"/>
<path d="M26.228 37.7767L29.8894 34.5123L31.3409 32.6657L29.4937 34.1165L26.228 37.7767Z" fill="#000088"/>
<path d="M34.7489 39.7057C34.835 39.914 35.0737 40.013 35.282 39.9269C35.4903 39.8407 35.5893 39.602 35.5032 39.3937C35.417 39.1855 35.1783 39.0864 34.97 39.1726C34.7617 39.2587 34.6627 39.4974 34.7489 39.7057Z" fill="#000088"/>
<path d="M24.932 36.0877L29.3134 33.8813L31.1932 32.4728L29.0335 33.3966L24.932 36.0877Z" fill="#000088"/>
<path d="M32.66 40.1572C32.6893 40.3807 32.8942 40.5382 33.1177 40.509C33.3413 40.4797 33.4988 40.2748 33.4695 40.0512C33.4402 39.8277 33.2353 39.6702 33.0118 39.6995C32.7882 39.7287 32.6307 39.9337 32.66 40.1572Z" fill="#000088"/>
<path d="M24.1143 34.118L28.9184 33.1216L31.0992 32.2479L28.7736 32.5808L24.1143 34.118Z" fill="#000088"/>
<path d="M30.5299 40.0476C30.5003 40.2711 30.6575 40.4762 30.881 40.5057C31.1045 40.5353 31.3096 40.3781 31.3391 40.1546C31.3686 39.9312 31.2114 39.7261 30.988 39.6965C30.7645 39.667 30.5594 39.8242 30.5299 40.0476Z" fill="#000088"/>
<path d="M23.8376 32.0054L28.7352 32.2853L31.0674 32.0054L28.7352 31.7256L23.8376 32.0054Z" fill="#000088"/>
<path d="M28.4979 39.3932C28.4115 39.6014 28.5102 39.8402 28.7184 39.9266C28.9266 40.013 29.1654 39.9142 29.2518 39.7061C29.3382 39.4979 29.2394 39.2591 29.0312 39.1727C28.8231 39.0863 28.5843 39.185 28.4979 39.3932Z" fill="#000088"/>
<path d="M24.1164 29.8934L28.7744 31.4319L31.0994 31.7654L28.9193 30.8912L24.1164 29.8934Z" fill="#000088"/>
<path d="M26.7022 38.2405C26.5649 38.4192 26.5985 38.6755 26.7772 38.8128C26.956 38.9501 27.2122 38.9165 27.3495 38.7377C27.4868 38.559 27.4532 38.3027 27.2745 38.1654C27.0957 38.0281 26.8395 38.0617 26.7022 38.2405Z" fill="#000088"/>
<path d="M24.9275 27.9292L29.029 30.6204L31.1887 31.5441L29.3089 30.1357L24.9275 27.9292Z" fill="#000088"/>
<path d="M25.2716 36.6531C25.0926 36.7902 25.0588 37.0465 25.1959 37.2254C25.3331 37.4044 25.5893 37.4382 25.7683 37.3011C25.9472 37.1639 25.9811 36.9077 25.8439 36.7287C25.7068 36.5498 25.4505 36.5159 25.2716 36.6531Z" fill="#000088"/>
<path d="M26.2261 26.2308L29.4922 29.8928L31.3397 31.3444L29.8881 29.4969L26.2261 26.2308Z" fill="#000088"/>
<path d="M24.2996 34.7541C24.0913 34.8403 23.9923 35.079 24.0784 35.2873C24.1646 35.4956 24.4033 35.5947 24.6116 35.5085C24.8199 35.4224 24.9189 35.1837 24.8328 34.9753C24.7466 34.767 24.5079 34.668 24.2996 34.7541Z" fill="#000088"/>
<path d="M27.9191 24.9366L30.1255 29.3185L31.534 31.1985L30.6103 29.0386L27.9191 24.9366Z" fill="#000088"/>
<path d="M23.8501 32.6663C23.6266 32.6956 23.4691 32.9005 23.4984 33.1241C23.5276 33.3476 23.7326 33.5051 23.9561 33.4758C24.1796 33.4466 24.3371 33.2416 24.3079 33.0181C24.2786 32.7946 24.0737 32.6371 23.8501 32.6663Z" fill="#000088"/>
<path d="M29.8888 24.1197L30.8853 28.9238L31.7589 31.1046L31.426 28.779L29.8888 24.1197Z" fill="#000088"/>
<path d="M23.9582 30.5357C23.7348 30.5062 23.5297 30.6634 23.5001 30.8869C23.4706 31.1103 23.6278 31.3154 23.8512 31.345C24.0747 31.3745 24.2798 31.2173 24.3093 30.9938C24.3389 30.7704 24.1817 30.5653 23.9582 30.5357Z" fill="#000088"/>
<path d="M32.0004 23.8435L31.7205 28.7411L32.0004 31.0732L32.2803 28.7411L32.0004 23.8435Z" fill="#000088"/>
<path d="M24.6111 28.5035C24.4029 28.4171 24.164 28.5159 24.0776 28.7241C23.9912 28.9324 24.09 29.1712 24.2982 29.2576C24.5065 29.344 24.7453 29.2452 24.8317 29.037C24.9181 28.8288 24.8194 28.5899 24.6111 28.5035Z" fill="#000088"/>
<path d="M34.1139 24.1203L32.5753 28.7796L32.2418 31.1053L33.1161 28.9245L34.1139 24.1203Z" fill="#000088"/>
<path d="M25.7703 26.7134C25.5915 26.5761 25.3353 26.6097 25.198 26.7885C25.0607 26.9672 25.0943 27.2234 25.273 27.3607C25.4518 27.4981 25.708 27.4645 25.8453 27.2857C25.9826 27.107 25.949 26.8507 25.7703 26.7134Z" fill="#000088"/>
<path d="M36.081 24.9387L33.3899 29.0402L32.4661 31.1999L33.8746 29.3201L36.081 24.9387Z" fill="#000088"/>
<path d="M27.3527 25.279C27.2156 25.1001 26.9594 25.0662 26.7805 25.2034C26.6015 25.3405 26.5677 25.5967 26.7048 25.7756C26.8419 25.9546 27.0982 25.9884 27.2771 25.8513C27.456 25.7141 27.4899 25.4579 27.3527 25.279Z" fill="#000088"/>
<path d="M37.7729 26.2331L34.1114 29.4988L32.66 31.346L34.5072 29.8946L37.7729 26.2331Z" fill="#000088"/>
<path d="M29.2527 24.306C29.1665 24.0976 28.9278 23.9986 28.7195 24.0848C28.5112 24.1709 28.4122 24.4096 28.4983 24.6179C28.5845 24.8262 28.8232 24.9253 29.0315 24.8391C29.2398 24.753 29.3388 24.5143 29.2527 24.306Z" fill="#000088"/>
<path d="M39.0703 27.9249L34.6884 30.1313L32.8083 31.5398L34.9682 30.6161L39.0703 27.9249Z" fill="#000088"/>
<path d="M31.341 23.8565C31.3117 23.6329 31.1068 23.4754 30.8832 23.5047C30.6597 23.534 30.5022 23.7389 30.5315 23.9624C30.5607 24.186 30.7657 24.3435 30.9892 24.3142C31.2128 24.2849 31.3702 24.08 31.341 23.8565Z" fill="#000088"/>
<path d="M39.8867 29.8956L35.0825 30.8921L32.9017 31.7657L35.2273 31.4329L39.8867 29.8956Z" fill="#000088"/>
<path d="M33.4706 23.9641C33.5002 23.7406 33.343 23.5355 33.1195 23.506C32.896 23.4764 32.6909 23.6336 32.6614 23.8571C32.6319 24.0806 32.7891 24.2857 33.0125 24.3152C33.236 24.3447 33.4411 24.1875 33.4706 23.9641Z" fill="#000088"/>
<path d="M40.1629 32.0063L35.2653 31.7264L32.9331 32.0063L35.2653 32.2861L40.1629 32.0063Z" fill="#000088"/>
<path d="M35.5059 24.6167C35.5923 24.4085 35.4936 24.1696 35.2854 24.0831C35.0771 23.9967 34.8382 24.0954 34.7518 24.3036C34.6653 24.5119 34.764 24.7508 34.9723 24.8372C35.1805 24.9237 35.4194 24.825 35.5059 24.6167Z" fill="#000088"/>
<path d="M39.8871 34.1212L35.2279 32.5813L32.9021 32.2472L35.0828 33.1221L39.8871 34.1212Z" fill="#000088"/>
<path d="M37.295 25.7751C37.4323 25.5963 37.3987 25.3401 37.2199 25.2028C37.0411 25.0655 36.7849 25.0991 36.6476 25.2779C36.5102 25.4566 36.5439 25.7129 36.7226 25.8502C36.9014 25.9875 37.1577 25.9539 37.295 25.7751Z" fill="#000088"/>
<path d="M39.0703 36.0873L34.9683 33.3961L32.8084 32.4724L34.6884 33.8809L39.0703 36.0873Z" fill="#000088"/>
<path d="M38.7294 27.3588C38.9084 27.2217 38.9423 26.9654 38.8051 26.7864C38.668 26.6075 38.4117 26.5735 38.2328 26.7107C38.0538 26.8478 38.0199 27.1041 38.157 27.2831C38.2941 27.462 38.5504 27.496 38.7294 27.3588Z" fill="#000088"/>
<path d="M37.7728 37.7812L34.5072 34.1184L32.6599 32.6663L34.1112 34.5142L37.7728 37.7812Z" fill="#000088"/>
<path d="M39.6994 29.2526C39.9077 29.1665 40.0067 28.9278 39.9205 28.7195C39.8344 28.5112 39.5957 28.4122 39.3874 28.4983C39.1791 28.5845 39.0801 28.8232 39.1662 29.0314C39.2524 29.2397 39.4911 29.3388 39.6994 29.2526Z" fill="#000088"/>
<path d="M36.0809 39.0685L33.8745 34.6871L32.466 32.8073L33.3897 34.967L36.0809 39.0685Z" fill="#000088"/>
<path d="M40.1499 31.3463C40.3734 31.3171 40.5309 31.1121 40.5016 30.8886C40.4724 30.6651 40.2674 30.5076 40.0439 30.5369C39.8204 30.5661 39.6629 30.7711 39.6921 30.9946C39.7214 31.2181 39.9263 31.3756 40.1499 31.3463Z" fill="#000088"/>
<path d="M34.1112 39.892L33.1147 35.0879L32.2411 32.9071L32.574 35.2327L34.1112 39.892Z" fill="#000088"/>
</g>
</svg>
