<svg width="34" height="20" viewBox="0 0 34 20" fill="none" xmlns="http://www.w3.org/2000/svg">
<path d="M0 3.33333C0 1.49479 1.49479 0 3.33333 0H13.3333H15.8333H16.6667H30C31.8385 0 33.3333 1.49479 33.3333 3.33333V16.6667C33.3333 18.5052 31.8385 20 30 20H16.6667H15.8333H13.3333H3.33333C1.49479 20 0 18.5052 0 16.6667V3.33333ZM16.6667 3.33333V16.6667H30V3.33333H16.6667ZM9.28646 5.82812C9.11979 5.45312 8.74479 5.20833 8.33333 5.20833C7.92188 5.20833 7.54687 5.45312 7.38021 5.82812L4.04687 13.3281C3.8125 13.8542 4.05208 14.4687 4.57812 14.7031C5.10417 14.9375 5.71875 14.6979 5.95312 14.1719L6.41667 13.125H10.25L10.7135 14.1719C10.9479 14.6979 11.5625 14.9323 12.0885 14.7031C12.6146 14.474 12.849 13.8542 12.6198 13.3281L9.28646 5.82812ZM8.33333 8.8125L9.32292 11.0417H7.34375L8.33333 8.8125ZM23.3333 5.20833C23.9062 5.20833 24.375 5.67708 24.375 6.25V6.45833H26.6667H27.5C28.0729 6.45833 28.5417 6.92708 28.5417 7.5C28.5417 8.07292 28.0729 8.54167 27.5 8.54167H27.3958L27.3125 8.77604C26.849 10.0469 26.1458 11.2031 25.25 12.1823C25.2969 12.2135 25.3438 12.2396 25.3906 12.2656L26.375 12.8542C26.8698 13.151 27.026 13.7917 26.7344 14.2812C26.4427 14.7708 25.7969 14.9323 25.3073 14.6406L24.3229 14.0521C24.0885 13.9115 23.8646 13.7656 23.6406 13.6094C23.0885 14 22.5 14.3385 21.8698 14.6198L21.6823 14.7031C21.1562 14.9375 20.5417 14.6979 20.3073 14.1719C20.0729 13.6458 20.3125 13.0312 20.8385 12.7969L21.026 12.7135C21.3594 12.5625 21.6823 12.3958 21.9896 12.2031L21.3542 11.5677C20.9479 11.1615 20.9479 10.5 21.3542 10.0937C21.7604 9.6875 22.4219 9.6875 22.8281 10.0937L23.5885 10.8542L23.6146 10.8802C24.2604 10.1979 24.7865 9.40625 25.1667 8.53646H23.3333H19.5833C19.0104 8.53646 18.5417 8.06771 18.5417 7.49479C18.5417 6.92187 19.0104 6.45312 19.5833 6.45312H22.2917V6.24479C22.2917 5.67187 22.7604 5.20312 23.3333 5.20312V5.20833Z" fill="#F39E3A"/>
</svg>
