<svg width="64" height="64" viewBox="0 0 64 64" fill="none" xmlns="http://www.w3.org/2000/svg">
<g clip-path="url(#clip0_39_2)">
<path d="M32 64C49.6731 64 64 49.6731 64 32C64 14.3269 49.6731 0 32 0C14.3269 0 0 14.3269 0 32C0 49.6731 14.3269 64 32 64Z" fill="#F0F0F0"/>
<path d="M6.61516 12.5179C4.10154 15.7883 2.20616 19.5577 1.10254 23.6525H17.7498L6.61516 12.5179ZM62.8978 23.6525C61.7942 19.5578 59.8987 15.7884 57.3852 12.518L46.2508 23.6525H62.8978ZM1.10254 40.3482C2.20629 44.4429 4.10166 48.2123 6.61516 51.4825L17.7494 40.3482H1.10254ZM51.4824 6.61529C48.212 4.10166 44.4428 2.20629 40.3479 1.10254V17.7497L51.4824 6.61529ZM12.5179 57.385C15.7883 59.8987 19.5577 61.794 23.6524 62.8978V46.2508L12.5179 57.385ZM23.6523 1.10254C19.5575 2.20629 15.7882 4.10166 12.5179 6.61516L23.6523 17.7495V1.10254ZM40.348 62.8978C44.4428 61.794 48.2122 59.8987 51.4824 57.3852L40.348 46.2508V62.8978ZM46.2508 40.3482L57.3852 51.4827C59.8987 48.2124 61.7942 44.4429 62.8978 40.3482H46.2508Z" fill="#0052B4"/>
<path d="M63.7291 27.8261H36.174V0.270875C34.79 0.0905506 33.3957 6.95258e-05 32 0C30.5851 0 29.1924 0.093 27.8261 0.270875V27.826H0.270875C0.0905506 29.21 6.95258e-05 30.6043 0 32C0 33.4149 0.093 34.8076 0.270875 36.1739H27.826V63.7291C30.5969 64.0903 33.403 64.0903 36.1739 63.7291V36.174H63.7291C63.9095 34.79 63.9999 33.3957 64 32C64 30.5854 63.907 29.1924 63.7291 27.8261Z" fill="#D80027"/>
<path d="M40.3479 40.3484L54.6274 54.6279C55.2839 53.9707 55.9115 53.2853 56.5084 52.5736L44.2832 40.3483H40.3479V40.3484ZM23.6522 40.3484H23.6519L9.37257 54.6278C10.0298 55.2843 10.7152 55.9119 11.4269 56.5088L23.6522 44.2833V40.3484ZM23.6522 23.6528V23.6526L9.3727 9.37294C8.71625 10.0302 8.08866 10.7156 7.4917 11.4273L19.7171 23.6527H23.6522V23.6528ZM40.3479 23.6528L54.6276 9.37306C53.9704 8.71662 53.2849 8.08907 52.5732 7.49219L40.3479 19.7176V23.6528Z" fill="#D80027"/>
</g>
<defs>
<clipPath id="clip0_39_2">
<rect width="64" height="64" fill="white"/>
</clipPath>
</defs>
</svg>
