<svg width="20" height="20" viewBox="0 0 20 20" fill="none" xmlns="http://www.w3.org/2000/svg">
<path d="M13.125 13.75C16.9219 13.75 20 10.6719 20 6.875C20 3.07812 16.9219 0 13.125 0C9.32812 0 6.25 3.07812 6.25 6.875C6.25 7.60547 6.36328 8.3125 6.57422 8.97266L0.273438 15.2734C0.0976562 15.4492 0 15.6875 0 15.9375V19.0625C0 19.582 0.417969 20 0.9375 20H4.0625C4.58203 20 5 19.582 5 19.0625V17.5H6.5625C7.08203 17.5 7.5 17.082 7.5 16.5625V15H9.0625C9.3125 15 9.55078 14.9023 9.72656 14.7266L11.0273 13.4258C11.6875 13.6367 12.3945 13.75 13.125 13.75ZM14.6875 3.75C15.1019 3.75 15.4993 3.91462 15.7924 4.20765C16.0854 4.50067 16.25 4.8981 16.25 5.3125C16.25 5.7269 16.0854 6.12433 15.7924 6.41735C15.4993 6.71038 15.1019 6.875 14.6875 6.875C14.2731 6.875 13.8757 6.71038 13.5826 6.41735C13.2896 6.12433 13.125 5.7269 13.125 5.3125C13.125 4.8981 13.2896 4.50067 13.5826 4.20765C13.8757 3.91462 14.2731 3.75 14.6875 3.75Z" fill="#F39E3A"/>
</svg>
