<svg width="358" height="217" viewBox="0 0 358 217" fill="none" xmlns="http://www.w3.org/2000/svg">
<path d="M41.7326 117.05C42.0058 110.039 41.9113 103.018 41.4494 96.0174C40.421 81.5796 38.236 67.2493 34.916 53.1667C33.0921 45.2334 30.8489 37.4374 28.5078 29.6524C28.4424 29.4163 28.0668 29.4822 28.1321 29.7292C35.3625 57.18 41.2916 85.5092 40.8832 114.047C40.7689 122.035 39.8542 129.881 39.1028 137.814C39.1028 138.028 39.4295 138.11 39.4785 137.891C40.9703 131.1 41.4549 123.984 41.7326 117.05Z" fill="#EBEBEB"/>
<path d="M28.1317 29.7292C28.1317 29.7292 17.1773 57.762 19.6328 64.3502C22.0883 70.9384 27.1408 72.3438 27.1408 72.3438C27.1408 72.3438 20.4386 81.9681 25.1209 91.0433C29.8032 100.119 40.2077 99.6629 40.91 109.924C40.8991 109.924 41.4817 67.0239 28.1317 29.7292Z" fill="#EBEBEB"/>
<path d="M39.7066 92.2072C39.7251 92.1596 39.7251 92.1067 39.7066 92.059C38.1712 72.9972 34.8065 53.9957 29.0843 35.6696C29.0843 35.6147 28.9809 35.6311 28.9972 35.6696C31.175 43.8719 33.0915 52.1163 34.7466 60.4027C33.2755 58.9982 31.4784 57.9883 29.5199 57.4655C29.5126 57.4655 29.5057 57.4684 29.5006 57.4735C29.4955 57.4787 29.4926 57.4857 29.4926 57.493C29.4926 57.5002 29.4955 57.5072 29.5006 57.5124C29.5057 57.5175 29.5126 57.5204 29.5199 57.5204C31.5452 58.4043 33.4835 59.4255 34.9154 61.1604C35.2366 62.8074 35.5524 64.4106 35.8464 66.0356C33.4018 63.2906 30.0044 61.907 26.5907 60.6059C26.5472 60.6059 26.5199 60.6663 26.5907 60.6827C30.1242 62.1376 33.6686 64.0043 36.0479 67.0788C36.8827 71.7344 37.6086 76.4029 38.2257 81.0842C36.4549 79.217 34.1856 77.9069 31.6922 77.3124C31.616 77.3124 31.5725 77.4058 31.6541 77.4277C34.2256 78.1756 36.5259 79.6616 38.2747 81.7046C38.2867 81.7185 38.3016 81.7297 38.3182 81.7375C38.536 83.3846 38.7429 85.0316 38.9335 86.6786C37.5659 85.5109 36.0219 84.5712 34.3601 83.8951C34.353 83.898 34.3469 83.9029 34.3426 83.9093C34.3384 83.9156 34.3361 83.9231 34.3361 83.9308C34.3361 83.9385 34.3384 83.946 34.3426 83.9524C34.3469 83.9587 34.353 83.9637 34.3601 83.9665C36.0542 84.7068 37.606 85.742 38.9444 87.0245C38.9444 87.0245 38.9825 87.0245 39.0042 87.052C39.1839 88.6222 39.369 90.1923 39.5487 91.7625C37.0821 88.7568 33.8805 86.4519 30.2603 85.0755C30.2468 85.0731 30.2328 85.0754 30.2208 85.0822C30.2087 85.0889 30.1994 85.0997 30.1942 85.1126C30.1891 85.1254 30.1886 85.1397 30.1927 85.153C30.1968 85.1662 30.2053 85.1777 30.2168 85.1853C33.7916 86.7761 36.9331 89.2132 39.3745 92.2896C39.3993 92.3256 39.4349 92.3525 39.4762 92.3663C39.5174 92.3802 39.5619 92.3802 39.6031 92.3665C39.8427 94.7785 40.0514 97.1941 40.2293 99.6135C40.2293 99.6464 40.2837 99.6519 40.2837 99.6135C40.0986 97.1502 39.9062 94.6815 39.7066 92.2072Z" fill="white"/>
<path d="M30.9084 54.693C29.0083 53.3808 26.5964 52.8153 24.326 52.6287C24.2715 52.6287 24.2715 52.7055 24.326 52.711C26.6835 53.0624 28.6816 53.9243 30.8322 54.8522C30.9084 54.8961 30.9901 54.7534 30.9084 54.693Z" fill="white"/>
<path d="M32.2376 84.3783C30.714 83.4982 29.0381 82.9187 27.2994 82.6708C27.2395 82.6708 27.2341 82.7587 27.2994 82.7642C29.0044 83.1087 30.6536 83.6907 32.1995 84.4936C32.2123 84.4926 32.2246 84.4878 32.2348 84.4798C32.2449 84.4719 32.2525 84.461 32.2566 84.4487C32.2607 84.4364 32.261 84.4231 32.2577 84.4106C32.2543 84.3981 32.2473 84.3868 32.2376 84.3783Z" fill="white"/>
<path d="M70.5282 64.8058C65.896 68.0365 61.642 71.7865 57.8479 75.9838C53.9373 80.4238 50.9179 85.5866 48.9569 91.1861C44.7998 102.858 42.5652 115.137 42.3418 127.536C42.2014 134.407 42.8574 141.27 44.2964 147.987C44.3058 148.037 44.3346 148.082 44.3764 148.111C44.4183 148.14 44.4698 148.15 44.5196 148.141C44.5695 148.132 44.6135 148.102 44.6421 148.06C44.6707 148.018 44.6815 147.966 44.6721 147.916C42.8849 136.063 42.9529 124.001 44.8735 112.169C46.7573 100.574 49.7083 87.9578 57.0203 78.5312C61.0002 73.3979 65.9657 69.3627 70.8712 65.1902C71.1216 64.9815 70.795 64.6192 70.5282 64.8058Z" fill="#EBEBEB"/>
<path d="M43.9758 119.197C46.6178 114.897 49.7218 110.903 53.2315 107.289C58.7142 101.766 63.3257 97.8401 64.0389 94.1837C64.7522 90.5272 58.5509 87.8425 58.5509 87.8425C58.5509 87.8425 66.1351 89.2151 68.2095 86.0033C70.2838 82.7916 71.2856 64.2129 71.2856 64.2129C71.2856 64.2129 57.4892 74.1391 51.0646 88.0621C44.6401 101.985 43.9758 119.197 43.9758 119.197Z" fill="#EBEBEB"/>
<path d="M66.4664 68.9729C60.6625 74.7211 54.8205 80.8481 51.4014 88.4026C50.2341 91.011 49.2179 93.6855 48.3579 96.4127C48.1837 96.9617 48.004 97.5107 47.8134 98.0597C47.7987 98.0869 47.7895 98.1168 47.7862 98.1476C46.1655 103.794 44.8586 109.527 43.8716 115.321C43.8716 115.354 43.9151 115.376 43.926 115.321C44.5195 112.422 45.1728 109.49 45.9078 106.575C45.9348 106.58 45.9625 106.58 45.9895 106.575C47.1406 106.076 48.3624 105.763 49.6101 105.647C49.6918 105.647 49.6863 105.493 49.6101 105.499C48.392 105.555 47.187 105.777 46.0276 106.158C46.6973 103.522 47.4214 100.898 48.2381 98.3123C50.9134 97.652 53.6515 97.2838 56.4049 97.2143V97.1648C53.7136 97.0558 51.0197 97.2994 48.3905 97.8895C48.5321 97.4448 48.6791 97.0056 48.8261 96.5609C50.6188 96.1313 52.4376 95.8214 54.2706 95.6331C54.3033 95.6331 54.3033 95.5727 54.2706 95.5727C52.4766 95.6084 50.6907 95.8273 48.9404 96.226C49.6863 93.986 50.4976 91.779 51.4014 89.6378C52.1452 87.8764 53.015 86.1718 54.0039 84.5375C55.4566 84.1751 56.9317 83.911 58.4194 83.7469C58.4629 83.7469 58.4575 83.6755 58.4194 83.67C57.0305 83.5648 55.634 83.7042 54.2924 84.0818C55.0165 82.9014 55.7788 81.743 56.5955 80.623C59.688 79.9312 62.824 79.2889 65.9927 79.8873C66.0472 79.8873 66.0635 79.805 65.9927 79.794C62.9819 78.9924 60.0037 79.4536 56.9929 80.052C57.3196 79.6128 57.6571 79.1791 57.9947 78.7509C59.8672 78.1695 61.8123 77.8608 63.7714 77.834C63.78 77.834 63.7883 77.8305 63.7945 77.8243C63.8006 77.8182 63.804 77.8098 63.804 77.8011C63.804 77.7923 63.8006 77.7839 63.7945 77.7778C63.7883 77.7716 63.78 77.7681 63.7714 77.7681C61.9623 77.6011 60.1381 77.7647 58.3867 78.2512C60.9402 75.0505 63.7659 72.0419 66.5535 69.0607C66.706 68.918 66.6025 68.8411 66.4664 68.9729Z" fill="white"/>
<path d="M66.2986 81.6442C65.3972 81.5142 64.4847 81.4811 63.5763 81.5454C63.4675 81.5454 63.4729 81.743 63.5763 81.743C64.4856 81.743 65.3894 81.7046 66.2986 81.743C66.3078 81.7385 66.3156 81.7315 66.321 81.7228C66.3264 81.714 66.3293 81.7039 66.3293 81.6936C66.3293 81.6833 66.3264 81.6732 66.321 81.6644C66.3156 81.6557 66.3078 81.6487 66.2986 81.6442Z" fill="white"/>
<path d="M56.3835 99.6739C54.9269 99.7072 53.4876 99.999 52.1313 100.536C52.0987 100.536 52.1313 100.602 52.1313 100.596C53.536 100.256 54.9571 100.119 56.3726 99.8825C56.3862 99.8832 56.3998 99.8812 56.4126 99.8766C56.4255 99.8721 56.4373 99.865 56.4474 99.8558C56.4575 99.8466 56.4657 99.8355 56.4716 99.8232C56.4774 99.8108 56.4808 99.7974 56.4815 99.7837C56.4822 99.77 56.4803 99.7563 56.4757 99.7433C56.4712 99.7304 56.4642 99.7185 56.4551 99.7083C56.446 99.6981 56.435 99.6898 56.4227 99.6839C56.4104 99.678 56.3971 99.6746 56.3835 99.6739Z" fill="white"/>
<path d="M53.4105 93.4425C52.8042 93.4399 52.199 93.495 51.603 93.6072C51.5431 93.6072 51.5485 93.717 51.603 93.717C52.2067 93.7502 52.8122 93.7226 53.4105 93.6347C53.5194 93.6127 53.514 93.448 53.4105 93.4425Z" fill="white"/>
<path d="M3.51147 84.532C7.99997 86.0662 12.3014 88.1088 16.3334 90.6206C20.5167 93.3014 24.1429 96.7772 27.0101 100.854C33.0554 109.331 37.6828 118.748 40.7085 128.733C42.3957 134.265 43.4372 139.977 43.8119 145.753C43.805 145.791 43.7851 145.825 43.7558 145.849C43.7264 145.874 43.6895 145.888 43.6513 145.888C43.6131 145.888 43.5762 145.874 43.5468 145.849C43.5175 145.825 43.4976 145.791 43.4907 145.753C42.2208 135.744 39.4026 125.998 35.1388 116.869C30.9574 107.926 25.6707 98.4056 17.5965 92.4817C13.1973 89.2535 8.25366 87.1453 3.32636 84.9108C3.07047 84.8065 3.25558 84.4387 3.51147 84.532Z" fill="#EBEBEB"/>
<path d="M37.491 122.354C34.3702 119.488 30.9469 116.977 27.2825 114.865C21.5821 111.675 16.9379 109.573 15.5332 106.784C14.1285 103.995 18.5168 100.371 18.5168 100.371C18.5168 100.371 12.6966 103.248 10.2847 101.134C7.87277 99.0205 2.79846 84.2136 2.79846 84.2136C2.79846 84.2136 16.2356 89.0339 24.631 98.8064C33.0265 108.579 37.491 122.354 37.491 122.354Z" fill="#EBEBEB"/>
<path d="M36.7888 119.301C30.0648 106.575 21.1085 95.0676 8.80933 87.4583C12.0187 89.5511 15.0279 91.9404 17.7983 94.5955C15.2978 94.4577 12.8055 94.988 10.5734 96.1327C10.5664 96.1388 10.5615 96.147 10.5595 96.156C10.5574 96.1651 10.5583 96.1746 10.5619 96.1831C10.5655 96.1917 10.5718 96.1988 10.5797 96.2036C10.5876 96.2083 10.5968 96.2104 10.606 96.2096C12.9818 95.311 15.5066 94.8805 18.0433 94.9413C18.0735 94.9407 18.1025 94.929 18.1249 94.9084C18.5659 95.3257 18.9961 95.7484 19.4207 96.1766C18.1218 96.2379 16.8304 96.4106 15.5605 96.6927C15.5533 96.6927 15.5464 96.6956 15.5413 96.7007C15.5362 96.7059 15.5333 96.7129 15.5333 96.7201C15.5333 96.7274 15.5362 96.7344 15.5413 96.7396C15.5464 96.7447 15.5533 96.7476 15.5605 96.7476C16.9048 96.4943 18.2712 96.3802 19.6385 96.4072C21.8944 98.6991 24.0211 101.117 26.0086 103.649C25.0976 103.518 24.1694 103.585 23.2863 103.846C23.2755 103.85 23.266 103.857 23.2592 103.866C23.2525 103.876 23.2489 103.887 23.2489 103.899C23.2489 103.91 23.2525 103.921 23.2592 103.931C23.266 103.94 23.2755 103.947 23.2863 103.951C24.2426 103.839 25.2077 103.826 26.1665 103.912C26.5367 104.384 26.907 104.851 27.2554 105.329C24.5083 105.162 21.7523 105.433 19.0886 106.13C19.0505 106.13 19.0614 106.202 19.0886 106.196C21.8468 105.652 24.6629 105.467 27.4678 105.647C27.8108 106.103 28.1374 106.575 28.4695 107.042C26.8332 106.994 25.1982 107.178 23.613 107.591C23.6056 107.588 23.5977 107.587 23.59 107.588C23.5823 107.59 23.5749 107.592 23.5685 107.597C23.5622 107.602 23.557 107.608 23.5534 107.615C23.5498 107.622 23.5479 107.629 23.5479 107.637C23.5479 107.645 23.5498 107.653 23.5534 107.66C23.557 107.667 23.5622 107.673 23.5685 107.678C23.5749 107.682 23.5823 107.685 23.59 107.686C23.5977 107.687 23.6056 107.687 23.613 107.684C25.2627 107.324 26.9534 107.192 28.6383 107.294C30.0866 109.298 31.4695 111.351 32.8034 113.432C32.0918 113.302 31.3597 113.348 30.6691 113.564C30.6619 113.564 30.655 113.567 30.6499 113.572C30.6448 113.577 30.6419 113.584 30.6419 113.591C30.6419 113.599 30.6448 113.606 30.6499 113.611C30.655 113.616 30.6619 113.619 30.6691 113.619C31.4402 113.559 32.2156 113.596 32.9776 113.729C34.1754 115.61 35.3297 117.506 36.4403 119.416C36.62 119.587 36.8977 119.466 36.7888 119.301Z" fill="white"/>
<path d="M26.3354 108.744C25.0139 108.656 23.6878 108.82 22.4263 109.227C22.3936 109.227 22.4263 109.293 22.4263 109.287C23.7121 109.069 25.0106 108.935 26.3137 108.886C26.4062 108.87 26.4226 108.755 26.3354 108.744Z" fill="white"/>
<path d="M14.6081 93.2394C14.007 93.1934 13.4025 93.2303 12.8114 93.3492C12.8005 93.3528 12.791 93.3598 12.7843 93.3692C12.7775 93.3785 12.7739 93.3898 12.7739 93.4013C12.7739 93.4129 12.7775 93.4242 12.7843 93.4335C12.791 93.4429 12.8005 93.4499 12.8114 93.4535C13.4048 93.3931 13.9874 93.4151 14.5808 93.3931C14.6011 93.3968 14.6219 93.3921 14.6387 93.3803C14.6556 93.3685 14.6671 93.3504 14.6707 93.33C14.6743 93.3096 14.6697 93.2886 14.658 93.2716C14.6462 93.2546 14.6283 93.243 14.6081 93.2394Z" fill="white"/>
<path d="M54.8263 164.425H24.4839L28.8123 132.472L29.9175 124.281H49.3926L50.4979 132.472L54.8263 164.425Z" fill="#DBDBDB"/>
<path d="M50.4975 132.472H28.8119L29.9171 124.281H49.3922L50.4975 132.472Z" fill="#C7C7C7"/>
<path d="M52.1754 121.437H27.1305V128.376H52.1754V121.437Z" fill="#DBDBDB"/>
<path d="M285.664 18.6391C284.223 22.3361 283.376 26.241 283.154 30.2068H273.125H273V29.9268L273.082 29.1417C273.204 27.779 273.422 26.4268 273.735 25.0955C274.261 22.9169 275.018 20.8019 275.994 18.7873C276.013 18.7382 276.047 18.6968 276.091 18.6699C276.136 18.6429 276.188 18.6321 276.239 18.6391H285.648H285.664Z" fill="#EBEBEB"/>
<path d="M285.359 44.4703H276.027C275.978 44.4754 275.929 44.4635 275.887 44.4365C275.846 44.4096 275.814 44.3692 275.798 44.322C274.721 42.0552 273.943 39.6557 273.485 37.1848C273.253 35.9958 273.1 34.7927 273.027 33.5833C273.027 33.5448 273.027 33.5009 273 33.4625V33.177H273.152H282.991C283.17 33.177 283.165 33.177 283.176 33.3637C283.241 34.1817 283.296 35.0107 283.372 35.8287C283.501 37.1325 283.71 38.427 283.998 39.7048C284.335 41.2687 284.777 42.8076 285.321 44.311C285.326 44.366 285.337 44.4154 285.359 44.4703Z" fill="#EBEBEB"/>
<path d="M324.603 47.4569C324.603 47.5118 324.549 47.5557 324.527 47.5942C323.734 48.8136 322.849 49.9699 321.881 51.053C320.713 52.3832 319.414 53.5899 318.004 54.6545C316.621 55.7067 315.142 56.6257 313.589 57.3996C312.092 58.153 310.53 58.7668 308.923 59.2333C307.647 59.5996 306.348 59.8784 305.035 60.0678L304.654 60.1337H304.431L304.224 60.0074L304.475 59.8317C307.326 57.878 309.82 55.441 311.846 52.6286C312.992 51.0433 314 49.3607 314.857 47.5997C314.872 47.5519 314.903 47.5109 314.945 47.4838C314.987 47.4567 315.037 47.4453 315.086 47.4514H324.63L324.603 47.4569Z" fill="#EBEBEB"/>
<path d="M315.272 30.1958H302.161V18.6665H302.314H312.392C312.436 18.661 312.481 18.6719 312.518 18.6971C312.555 18.7223 312.581 18.7602 312.593 18.8037C313.537 20.9746 314.236 23.2452 314.678 25.5731C314.915 26.7833 315.084 28.0058 315.185 29.235C315.217 29.5315 315.244 29.8554 315.272 30.1958Z" fill="#EBEBEB"/>
<path d="M315.19 33.2813C315.19 33.5504 315.19 33.8304 315.152 34.0939C315.097 34.7362 315.048 35.3841 314.961 36.0209C314.836 36.9048 314.705 37.7943 314.526 38.6727C314.137 40.6002 313.568 42.4862 312.827 44.3056C312.815 44.3589 312.784 44.4059 312.74 44.4374C312.696 44.4689 312.641 44.4826 312.587 44.4758H302.085V33.2813H315.19Z" fill="#EBEBEB"/>
<path d="M299.204 18.716V30.2837H286.404C286.404 29.9872 286.431 29.7018 286.464 29.4163C286.529 28.7684 286.578 28.1206 286.682 27.4782C286.839 26.501 287.003 25.5183 287.226 24.5465C287.647 22.5846 288.262 20.67 289.061 18.8312C289.076 18.7859 289.105 18.7471 289.145 18.7211C289.184 18.6951 289.232 18.6836 289.279 18.6885H299.204V18.716Z" fill="#EBEBEB"/>
<path d="M299.221 33.435C299.221 37.0585 299.221 40.6839 299.221 44.311V44.4703H288.979C288.929 44.4773 288.878 44.4656 288.836 44.4372C288.794 44.4089 288.764 44.3659 288.751 44.3165C287.973 42.4402 287.39 40.4883 287.008 38.4915C286.818 37.4648 286.671 36.4272 286.546 35.3895C286.459 34.7143 286.437 34.028 286.393 33.3417C286.391 33.318 286.391 33.2941 286.393 33.2703H299.041C299.188 33.2648 299.221 33.3033 299.221 33.435Z" fill="#EBEBEB"/>
<path d="M329.171 30.2782H318.429C318.212 26.2891 317.366 22.3602 315.924 18.6391H325.937C325.986 18.6323 326.036 18.6428 326.079 18.6688C326.121 18.6947 326.154 18.7346 326.171 18.7818C327.318 21.0716 328.151 23.5077 328.648 26.0234C328.917 27.3624 329.098 28.7177 329.193 30.0806L329.171 30.2782Z" fill="#EBEBEB"/>
<path d="M329.177 33.1935C329.177 33.457 329.177 33.7041 329.144 33.9511C329.075 34.9283 328.957 35.9013 328.79 36.8664C328.392 39.107 327.729 41.2913 326.814 43.3722C326.672 43.7071 326.509 44.0365 326.362 44.3714C326.352 44.4048 326.331 44.4335 326.302 44.4525C326.273 44.4716 326.238 44.4798 326.204 44.4758H316.203C316.322 44.1299 316.442 43.795 316.556 43.4546C317.136 41.7337 317.58 39.9696 317.885 38.1785C318.115 36.8803 318.27 35.5696 318.348 34.2531C318.348 33.9401 318.386 33.6272 318.397 33.3198C318.397 33.2374 318.397 33.1935 318.511 33.2045C318.544 33.2072 318.576 33.2072 318.609 33.2045L329.177 33.1935Z" fill="#EBEBEB"/>
<path d="M324.309 15.6909V15.7403H324.167C321.037 15.7403 317.906 15.7403 314.776 15.7403C314.728 15.7461 314.679 15.7358 314.638 15.711C314.597 15.6861 314.565 15.6482 314.547 15.603C313.299 13.087 311.732 10.745 309.886 8.63601C308.797 7.41942 307.6 6.30578 306.309 5.30897C305.667 4.81486 305.003 4.34819 304.349 3.87055L304.24 3.7882L304.371 3.69487C304.371 3.63996 304.333 3.57408 304.306 3.49173C307.618 3.86667 310.837 4.84123 313.806 6.36857C318.049 8.50531 321.669 11.7178 324.309 15.6909Z" fill="#EBEBEB"/>
<path d="M297.386 60.0074C297.298 60.0352 297.206 60.05 297.114 60.0514C296.083 59.9155 295.061 59.7156 294.054 59.4529C292.173 58.9682 290.349 58.2855 288.61 57.4161C286.619 56.4164 284.752 55.1816 283.051 53.7377C281.841 52.7164 280.724 51.5882 279.713 50.3667C278.957 49.4425 278.261 48.4706 277.628 47.4569C277.609 47.428 277.595 47.3966 277.584 47.3636H277.737C280.655 47.3636 283.568 47.3636 286.486 47.3636C286.533 47.3597 286.58 47.3716 286.619 47.3975C286.659 47.4233 286.688 47.4616 286.704 47.5063C287.616 49.3613 288.693 51.1291 289.922 52.7879C291.058 54.2958 292.318 55.7044 293.689 56.9988C294.817 58.0752 296.03 59.0575 297.315 59.9361L297.386 60.0074Z" fill="#EBEBEB"/>
<path d="M297.272 3.77174C296.869 4.06821 296.401 4.40311 295.944 4.75448C294.417 5.95338 292.998 7.28529 291.702 8.73485C289.949 10.6618 288.454 12.8121 287.254 15.1309C287.178 15.2791 287.113 15.4328 287.025 15.5701C287.01 15.5937 286.99 15.6137 286.967 15.6288C286.943 15.644 286.917 15.6539 286.889 15.6579C286.731 15.6579 286.574 15.6579 286.416 15.6579H277.868C282.632 8.87759 289.029 4.79841 297.174 3.57959C297.174 3.61802 297.136 3.65645 297.114 3.68939L297.272 3.77174Z" fill="#EBEBEB"/>
<path d="M311.357 47.4624C310.143 49.599 308.68 51.5821 307.001 53.3699C305.526 54.9725 303.866 56.3917 302.057 57.5973V47.4624H311.357Z" fill="#EBEBEB"/>
<path d="M299.204 47.4679V57.4051C295.503 54.8468 292.454 51.4416 290.308 47.4679H299.204Z" fill="#EBEBEB"/>
<path d="M311.069 15.6525H302.161V6.20389C303.988 7.40514 305.666 8.82253 307.159 10.4258C308.636 12.0285 309.946 13.7799 311.069 15.6525Z" fill="#EBEBEB"/>
<path d="M299.204 6.47287V15.7293H290.656C292.748 12.0113 295.675 8.84064 299.204 6.47287Z" fill="#EBEBEB"/>
<path d="M129.585 53.9683H54.7609V4.83133H129.585V53.9683ZM55.3053 53.4192H129.041V5.38035H55.3053V53.4192Z" fill="#EBEBEB"/>
<path d="M129.585 11.8368H54.7609V4.83133H129.585V11.8368ZM55.3053 11.2878H129.041V5.38035H55.3053V11.2878Z" fill="#EBEBEB"/>
<path d="M61.0448 8.39995C61.0448 8.7257 60.949 9.04414 60.7695 9.315C60.5901 9.58585 60.335 9.79696 60.0365 9.92162C59.738 10.0463 59.4096 10.0789 59.0928 10.0153C58.7759 9.95179 58.4849 9.79493 58.2565 9.56459C58.0281 9.33424 57.8725 9.04077 57.8095 8.72127C57.7464 8.40178 57.7788 8.07061 57.9024 7.76965C58.026 7.46869 58.2354 7.21146 58.504 7.03048C58.7726 6.8495 59.0884 6.7529 59.4114 6.7529C59.8446 6.7529 60.2601 6.92643 60.5664 7.23531C60.8727 7.54419 61.0448 7.96312 61.0448 8.39995Z" fill="#C7C7C7"/>
<path d="M67.6149 8.39993C67.6148 8.72685 67.5183 9.04635 67.3376 9.31777C67.1569 9.58919 66.9002 9.80024 66.6001 9.92405C66.3001 10.0479 65.9703 10.0788 65.6527 10.013C65.3351 9.94723 65.0442 9.78761 64.8169 9.55451C64.5896 9.32142 64.4362 9.02538 64.3763 8.70409C64.3164 8.38281 64.3526 8.05082 64.4804 7.75038C64.6082 7.44994 64.8218 7.19465 65.094 7.01702C65.3661 6.83938 65.6846 6.74744 66.0087 6.75288C66.222 6.75285 66.4331 6.79564 66.6297 6.87874C66.8264 6.96184 67.0047 7.0836 67.1542 7.23692C67.3037 7.39023 67.4214 7.57203 67.5005 7.77171C67.5796 7.97138 67.6185 8.18494 67.6149 8.39993Z" fill="#EBEBEB"/>
<path d="M74.1934 8.39995C74.1934 8.7257 74.0976 9.04414 73.9181 9.315C73.7386 9.58585 73.4835 9.79696 73.1851 9.92162C72.8866 10.0463 72.5582 10.0789 72.2413 10.0153C71.9245 9.95179 71.6335 9.79493 71.405 9.56459C71.1766 9.33424 71.021 9.04077 70.958 8.72127C70.895 8.40178 70.9273 8.07061 71.051 7.76965C71.1746 7.46869 71.3839 7.21146 71.6525 7.03048C71.9212 6.8495 72.2369 6.7529 72.56 6.7529C72.9932 6.7529 73.4086 6.92643 73.715 7.23531C74.0213 7.54419 74.1934 7.96312 74.1934 8.39995Z" fill="#F39E3A"/>
<path d="M179 216.949C277.859 216.949 358 206.793 358 194.264C358 181.735 277.859 171.578 179 171.578C80.141 171.578 0 181.735 0 194.264C0 206.793 80.141 216.949 179 216.949Z" fill="#EBEBEB"/>
<path d="M2.44482 164.425L46.5837 164.293L90.7225 164.244L179 164.15L267.278 164.244L311.417 164.293L355.556 164.425L311.417 164.562L267.278 164.606L179 164.699L90.7225 164.606L46.5837 164.557L2.44482 164.425Z" fill="#263238"/>
<path d="M284.471 29.5042H73.1196V172.067H284.471V29.5042Z" fill="#DBDBDB"/>
<path d="M282.936 31.2445H74.6552V170.327H282.936V31.2445Z" fill="#263238"/>
<path d="M311.999 182.756H45.5922V192.54H311.999V182.756Z" fill="#C7C7C7"/>
<path d="M45.5922 182.756L73.1197 172.067H284.471L311.999 182.756H45.5922Z" fill="#DBDBDB"/>
<path d="M75.5806 178.968L93.3461 172.067H264.25L282.016 178.968H75.5806Z" fill="#263238"/>
<path d="M271.164 41.8131H86.4259V159.764H271.164V41.8131Z" fill="white"/>
<path d="M271.171 41.8131H86.2745V46.3534H271.171V41.8131Z" fill="#455A64"/>
<path d="M89.8514 44.086C89.8513 44.3098 89.7851 44.5284 89.6612 44.7141C89.5374 44.8997 89.3614 45.0439 89.1559 45.1282C88.9503 45.2125 88.7245 45.2331 88.5073 45.1874C88.2901 45.1418 88.0913 45.0318 87.9364 44.8716C87.7814 44.7115 87.6773 44.5084 87.6374 44.2883C87.5974 44.0682 87.6235 43.8411 87.7121 43.636C87.8008 43.4308 87.9481 43.257 88.1352 43.1367C88.3223 43.0164 88.5407 42.9551 88.7625 42.9605C89.0538 42.9677 89.3307 43.0894 89.5342 43.2997C89.7376 43.51 89.8515 43.7922 89.8514 44.086Z" fill="#C7C7C7"/>
<path d="M94.4076 44.086C94.4075 44.3098 94.3413 44.5284 94.2174 44.7141C94.0935 44.8997 93.9176 45.0439 93.712 45.1282C93.5065 45.2125 93.2807 45.2331 93.0635 45.1874C92.8462 45.1418 92.6475 45.0318 92.4925 44.8716C92.3376 44.7115 92.2335 44.5084 92.1935 44.2883C92.1536 44.0682 92.1796 43.8411 92.2683 43.636C92.3569 43.4308 92.5042 43.257 92.6913 43.1367C92.8784 43.0164 93.0968 42.9551 93.3186 42.9605C93.6099 42.9677 93.8869 43.0894 94.0903 43.2997C94.2938 43.51 94.4076 43.7922 94.4076 44.086Z" fill="white"/>
<path d="M98.9647 44.086C98.9647 44.3086 98.8992 44.5262 98.7766 44.7112C98.6539 44.8963 98.4796 45.0406 98.2757 45.1258C98.0717 45.211 97.8473 45.2332 97.6308 45.1898C97.4143 45.1464 97.2154 45.0392 97.0593 44.8818C96.9032 44.7244 96.7969 44.5239 96.7539 44.3055C96.7108 44.0872 96.7329 43.8609 96.8174 43.6553C96.9019 43.4496 97.0449 43.2738 97.2285 43.1502C97.412 43.0265 97.6278 42.9605 97.8486 42.9605C98.1446 42.9605 98.4285 43.0791 98.6378 43.2901C98.8471 43.5012 98.9647 43.7875 98.9647 44.086Z" fill="#F39E3A"/>
<path d="M95.3009 106.624L167.142 106.624V55.8899L95.3009 55.8899V106.624Z" fill="#EBEBEB"/>
<path d="M103.697 70.3125C103.697 71.4993 104.046 72.6595 104.7 73.6463C105.354 74.6331 106.283 75.4022 107.371 75.8564C108.458 76.3106 109.655 76.4294 110.809 76.1979C111.963 75.9664 113.024 75.3948 113.856 74.5556C114.688 73.7164 115.255 72.6472 115.485 71.4831C115.714 70.3191 115.596 69.1126 115.146 68.0161C114.696 66.9196 113.933 65.9824 112.954 65.323C111.976 64.6636 110.825 64.3117 109.648 64.3117C108.07 64.3117 106.556 64.9439 105.44 66.0693C104.324 67.1946 103.697 68.721 103.697 70.3125Z" fill="#DBDBDB"/>
<path d="M127.19 95.6935H167.148L147.166 68.391L127.19 95.6935Z" fill="#C7C7C7"/>
<path d="M111.541 95.7209H144.524L128.033 77.9383L111.541 95.7209Z" fill="#DBDBDB"/>
<path d="M167.142 95.6935H95.3013V106.624H167.142V95.6935Z" fill="#DBDBDB"/>
<path d="M177.361 150.046H217.503V113.421H177.361V150.046Z" fill="#EBEBEB"/>
<path d="M182.55 121.426C182.369 122.339 182.484 123.286 182.878 124.127C183.273 124.969 183.925 125.66 184.739 126.1C185.553 126.539 186.485 126.702 187.398 126.566C188.311 126.429 189.156 126 189.809 125.342C190.462 124.684 190.887 123.832 191.022 122.911C191.158 121.99 190.996 121.05 190.56 120.229C190.125 119.409 189.439 118.751 188.605 118.353C187.77 117.956 186.831 117.84 185.925 118.022C185.092 118.19 184.327 118.603 183.726 119.208C183.126 119.814 182.716 120.586 182.55 121.426Z" fill="#DBDBDB"/>
<path d="M188.664 142.151H217.509L203.086 122.442L188.664 142.151Z" fill="#C7C7C7"/>
<path d="M177.367 142.168H201.181L189.274 129.332L177.367 142.168Z" fill="#DBDBDB"/>
<path d="M217.51 142.151H177.367V150.041H217.51V142.151Z" fill="#DBDBDB"/>
<path d="M241.759 55.8953H177.367V59.173H241.759V55.8953Z" fill="#A6A6A6"/>
<path d="M255.763 62.6757H177.367V65.9533H255.763V62.6757Z" fill="#DBDBDB"/>
<path d="M255.763 69.4561H177.367V72.7337H255.763V69.4561Z" fill="#DBDBDB"/>
<path d="M255.763 76.2419H177.367V79.5195H255.763V76.2419Z" fill="#DBDBDB"/>
<path d="M255.763 83.0222H177.367V86.2998H255.763V83.0222Z" fill="#DBDBDB"/>
<path d="M229.411 89.8026H177.367V93.0802H229.411V89.8026Z" fill="#DBDBDB"/>
<path d="M249.567 113.416H221.086V116.644H249.567V113.416Z" fill="#A6A6A6"/>
<path d="M255.757 120.097H221.086V123.325H255.757V120.097Z" fill="#DBDBDB"/>
<path d="M255.757 126.779H221.086V130.007H255.757V126.779Z" fill="#DBDBDB"/>
<path d="M255.757 133.455H221.086V136.683H255.757V133.455Z" fill="#DBDBDB"/>
<path d="M255.757 140.136H221.086V143.365H255.757V140.136Z" fill="#DBDBDB"/>
<path d="M244.617 146.818H221.086V150.046H244.617V146.818Z" fill="#DBDBDB"/>
<path d="M255.763 96.9947H177.367V106.624H255.763V96.9947Z" fill="#F39E3A"/>
<path d="M167.142 113.416H95.3013V123.045H167.142V113.416Z" fill="#A6A6A6"/>
<path d="M167.142 126.554H95.3013V129.809H167.142V126.554Z" fill="#DBDBDB"/>
<path d="M167.142 133.296H95.3013V136.551H167.142V133.296Z" fill="#DBDBDB"/>
<path d="M167.142 140.043H95.3013V143.299H167.142V140.043Z" fill="#DBDBDB"/>
<path d="M144.525 146.785H95.3013V150.041H144.525V146.785Z" fill="#DBDBDB"/>
<path d="M271.165 46.3479H266.226V159.758H271.165V46.3479Z" fill="#DBDBDB"/>
<path d="M268.692 105.702C268.354 105.702 268.03 105.567 267.791 105.326C267.552 105.085 267.418 104.758 267.418 104.417V48.7581C267.418 48.4174 267.552 48.0907 267.791 47.8497C268.03 47.6088 268.354 47.4734 268.692 47.4734C269.03 47.4734 269.354 47.6088 269.593 47.8497C269.832 48.0907 269.966 48.4174 269.966 48.7581V104.417C269.966 104.758 269.832 105.085 269.593 105.326C269.354 105.567 269.03 105.702 268.692 105.702Z" fill="#A6A6A6"/>
<path d="M157.255 105.576V186.05C157.239 187.784 156.542 189.44 155.318 190.656C154.093 191.873 152.44 192.55 150.721 192.54H25.2792C23.5602 192.55 21.9074 191.873 20.6827 190.656C19.4581 189.44 18.7615 187.784 18.7457 186.05V105.576C18.7615 103.843 19.4583 102.187 20.6831 100.972C21.9079 99.7562 23.5607 99.0802 25.2792 99.0919H150.689C151.542 99.0817 152.389 99.2415 153.182 99.5621C153.974 99.8826 154.696 100.358 155.306 100.96C155.916 101.562 156.402 102.28 156.736 103.072C157.071 103.864 157.247 104.715 157.255 105.576Z" fill="#455A64"/>
<path d="M147.743 103.017H28.5133V188.488H147.743V103.017Z" fill="white"/>
<path d="M35.6071 146.324H88.5007V108.974H35.6071L35.6071 146.324Z" fill="#EBEBEB"/>
<path d="M41.7976 119.598C41.8029 120.465 42.063 121.312 42.5448 122.03C43.0267 122.749 43.7088 123.308 44.5052 123.636C45.3015 123.964 46.1764 124.047 47.0195 123.875C47.8626 123.702 48.6362 123.281 49.2426 122.666C49.849 122.051 50.2612 121.268 50.427 120.417C50.5929 119.566 50.5051 118.684 50.1746 117.883C49.8442 117.082 49.2859 116.398 48.5702 115.916C47.8545 115.435 47.0135 115.178 46.1532 115.178C45.5789 115.178 45.0103 115.293 44.4801 115.515C43.9498 115.737 43.4685 116.063 43.0636 116.474C42.6588 116.885 42.3386 117.372 42.1213 117.908C41.904 118.444 41.794 119.019 41.7976 119.598Z" fill="#DBDBDB"/>
<path d="M59.0841 138.281H88.5009L73.7898 118.181L59.0841 138.281Z" fill="#C7C7C7"/>
<path d="M47.5631 138.297H71.8457L59.7044 125.209L47.5631 138.297Z" fill="#DBDBDB"/>
<path d="M88.5011 138.281H35.6074V146.329H88.5011V138.281Z" fill="#DBDBDB"/>
<path d="M105.281 181.812H140.649V156.837H105.281V181.812Z" fill="#EBEBEB"/>
<path d="M109.413 163.942C109.412 164.527 109.583 165.1 109.905 165.587C110.227 166.075 110.685 166.455 111.221 166.679C111.757 166.904 112.347 166.964 112.917 166.85C113.487 166.737 114.01 166.455 114.421 166.042C114.832 165.628 115.112 165.101 115.226 164.526C115.339 163.952 115.282 163.357 115.06 162.816C114.838 162.275 114.461 161.812 113.979 161.487C113.496 161.162 112.928 160.988 112.348 160.988C111.963 160.987 111.581 161.063 111.225 161.211C110.869 161.359 110.546 161.577 110.273 161.851C110 162.125 109.784 162.451 109.637 162.81C109.489 163.169 109.413 163.553 109.413 163.942Z" fill="#DBDBDB"/>
<path d="M120.983 176.432H140.648L130.815 162.992L120.983 176.432Z" fill="#C7C7C7"/>
<path d="M113.279 176.448H129.515L121.397 167.691L113.279 176.448Z" fill="#DBDBDB"/>
<path d="M140.649 176.437H105.281V181.818H140.649V176.437Z" fill="#DBDBDB"/>
<path d="M140.654 108.98H93.0634V118.104H140.654V108.98Z" fill="#F39E3A"/>
<path d="M140.654 121.569H93.0634V122.848H140.654V121.569Z" fill="#DBDBDB"/>
<path d="M140.654 124.572H93.0634V125.851H140.654V124.572Z" fill="#DBDBDB"/>
<path d="M140.654 127.575H93.0634V128.854H140.654V127.575Z" fill="#DBDBDB"/>
<path d="M140.654 130.578H93.0634V131.857H140.654V130.578Z" fill="#DBDBDB"/>
<path d="M140.654 133.581H93.0634V134.86H140.654V133.581Z" fill="#DBDBDB"/>
<path d="M140.654 136.584H93.0634V137.863H140.654V136.584Z" fill="#DBDBDB"/>
<path d="M120.422 139.587H93.0634V140.866H120.422V139.587Z" fill="#DBDBDB"/>
<path d="M100.25 174.862H52.6594V176.141H100.25V174.862Z" fill="#DBDBDB"/>
<path d="M100.25 156.843H52.6594V158.122H100.25V156.843Z" fill="#DBDBDB"/>
<path d="M100.25 159.846H52.6594V161.125H100.25V159.846Z" fill="#DBDBDB"/>
<path d="M100.25 162.849H52.6594V164.128H100.25V162.849Z" fill="#DBDBDB"/>
<path d="M85.1143 165.852H52.6594V167.131H85.1143V165.852Z" fill="#DBDBDB"/>
<path d="M100.25 171.858H52.6594V173.138H100.25V171.858Z" fill="#DBDBDB"/>
<path d="M85.1143 177.865H52.6594V179.144H85.1143V177.865Z" fill="#DBDBDB"/>
<path d="M140.654 150.496H35.6074V153.516H140.654V150.496Z" fill="#455A64"/>
<path d="M49.2079 156.843H35.6074V181.818H49.2079V156.843Z" fill="#F39E3A"/>
<path d="M24.4849 135.64H24.4032C24.0274 135.64 23.7227 135.947 23.7227 136.326V155.295C23.7227 155.674 24.0274 155.981 24.4032 155.981H24.4849C24.8608 155.981 25.1655 155.674 25.1655 155.295V136.326C25.1655 135.947 24.8608 135.64 24.4849 135.64Z" fill="#37474F"/>
<path d="M155.588 145.808C155.589 146.329 155.437 146.84 155.15 147.274C154.863 147.708 154.455 148.047 153.978 148.247C153.5 148.447 152.974 148.5 152.466 148.398C151.959 148.297 151.493 148.045 151.127 147.677C150.761 147.308 150.512 146.838 150.412 146.326C150.311 145.814 150.363 145.284 150.562 144.802C150.76 144.32 151.096 143.909 151.526 143.62C151.957 143.331 152.463 143.177 152.98 143.178C153.672 143.179 154.334 143.457 154.823 143.95C155.312 144.443 155.587 145.111 155.588 145.808Z" fill="#37474F"/>
<path d="M330.963 81.8583H282.447C281.134 81.8728 279.882 82.4116 278.963 83.3564C278.044 84.3013 277.535 85.5751 277.546 86.8982V187.588C277.536 188.91 278.046 190.183 278.964 191.128C279.883 192.073 281.135 192.612 282.447 192.628H330.952C332.264 192.612 333.516 192.073 334.434 191.128C335.352 190.183 335.862 188.91 335.852 187.588V86.9092C335.867 85.586 335.36 84.3111 334.443 83.3642C333.527 82.4172 332.275 81.8756 330.963 81.8583ZM332.808 184.475C332.808 187.127 330.838 189.268 328.409 189.268H285.016C282.583 189.268 280.617 187.127 280.617 184.475V90.7139C280.617 85.3171 282.583 85.0535 285.016 85.0535H293.728C294.234 85.0535 294.648 85.6026 294.648 86.3492V86.6567C294.648 88.3421 295.562 88.3476 296.684 88.3476H316.747C317.874 88.3476 318.778 88.3476 318.778 86.6567V86.3602C318.778 85.641 319.186 85.0645 319.703 85.0645H328.415C330.843 85.0645 332.814 85.7837 332.814 90.7249L332.808 184.475Z" fill="#455A64"/>
<path d="M309.452 86.2449H303.969C303.88 86.2449 303.794 86.209 303.731 86.1452C303.667 86.0814 303.632 85.9948 303.632 85.9045C303.632 85.8142 303.667 85.7277 303.731 85.6638C303.794 85.6 303.88 85.5641 303.969 85.5641H309.452C309.542 85.5641 309.628 85.5998 309.693 85.6635C309.757 85.7272 309.794 85.8137 309.795 85.9045C309.794 85.9953 309.757 86.0819 309.693 86.1455C309.628 86.2092 309.542 86.2449 309.452 86.2449Z" fill="white"/>
<path d="M332.808 90.7139V184.475C332.808 187.127 330.838 189.268 328.409 189.268H285.016C282.583 189.268 280.617 187.127 280.617 184.475V90.7139C280.617 85.3171 282.583 85.0535 285.016 85.0535H293.728C294.234 85.0535 294.648 85.6025 294.648 86.3492V86.6567C294.648 88.3421 295.562 88.3476 296.684 88.3476H316.747C317.874 88.3476 318.778 88.3476 318.778 86.6567V86.3602C318.778 85.641 319.186 85.0645 319.703 85.0645H328.415C330.838 85.0535 332.808 85.7727 332.808 90.7139Z" fill="white"/>
<path d="M332.809 90.7139V97.7083H280.612V90.7139C280.612 85.3171 282.583 85.0535 285.016 85.0535H293.728C294.229 85.0535 294.642 85.6025 294.642 86.3492V86.6567C294.642 88.3421 295.557 88.3476 296.673 88.3476H316.747C317.874 88.3476 318.783 88.3476 318.783 86.6567V86.3602C318.783 85.641 319.192 85.0645 319.704 85.0645H328.415C330.838 85.0535 332.809 85.7727 332.809 90.7139Z" fill="#F39E3A"/>
<path d="M285.561 94.2935L284.02 92.8386L285.561 91.3837L285.801 91.6362L284.532 92.8386L285.801 94.0409L285.561 94.2935Z" fill="white"/>
<path d="M328.099 94.4252H327.01V94.0464C327.01 94.0359 327.007 94.0256 327.001 94.0169C326.995 94.0081 326.987 94.0012 326.977 93.997L326.857 93.9256C326.848 93.9216 326.838 93.9195 326.828 93.9195C326.817 93.9195 326.807 93.9216 326.798 93.9256L326.465 94.1233L325.921 93.1735L326.253 92.9813C326.26 92.9727 326.263 92.9621 326.263 92.9511C326.263 92.9402 326.26 92.9296 326.253 92.9209V92.7892C326.26 92.7805 326.263 92.7699 326.263 92.759C326.263 92.7481 326.26 92.7374 326.253 92.7288L325.921 92.5366L326.465 91.5868L326.798 91.779C326.807 91.7843 326.817 91.7871 326.828 91.7871C326.838 91.7871 326.848 91.7843 326.857 91.779L326.977 91.7076C326.987 91.7034 326.995 91.6965 327.001 91.6877C327.007 91.679 327.01 91.6687 327.01 91.6582V91.2684H328.099V91.6582C328.099 91.6687 328.102 91.679 328.108 91.6877C328.114 91.6965 328.122 91.7034 328.132 91.7076L328.251 91.779C328.26 91.7843 328.271 91.7871 328.281 91.7871C328.292 91.7871 328.302 91.7843 328.311 91.779L328.643 91.5868L329.188 92.5366L328.856 92.7288C328.849 92.7374 328.845 92.7481 328.845 92.759C328.845 92.7699 328.849 92.7805 328.856 92.7892V92.9209C328.849 92.9296 328.845 92.9402 328.845 92.9511C328.845 92.9621 328.849 92.9727 328.856 92.9813L329.188 93.1735L328.643 94.1233L328.311 93.9311C328.302 93.9258 328.292 93.923 328.281 93.923C328.271 93.923 328.26 93.9258 328.251 93.9311L328.132 94.0025C328.122 94.0067 328.114 94.0136 328.108 94.0224C328.102 94.0311 328.099 94.0414 328.099 94.0519V94.4252ZM327.282 94.1507H327.827V94.0464C327.827 93.9853 327.845 93.9255 327.876 93.8733C327.908 93.8212 327.953 93.7785 328.006 93.75C328.039 93.7348 328.07 93.7164 328.099 93.6951C328.152 93.6642 328.212 93.648 328.273 93.648C328.334 93.648 328.394 93.6642 328.447 93.6951L328.545 93.7554L328.818 93.2778L328.72 93.2174C328.667 93.1876 328.624 93.1435 328.595 93.0901C328.566 93.0367 328.553 92.9762 328.556 92.9154V92.8056C328.553 92.7442 328.566 92.683 328.595 92.6288C328.624 92.5746 328.667 92.5294 328.72 92.4982L328.818 92.4433L328.545 91.9657L328.447 92.026C328.395 92.057 328.336 92.0732 328.276 92.0732C328.215 92.0732 328.156 92.057 328.104 92.026L328.006 91.9711C327.953 91.9426 327.908 91.8999 327.876 91.8478C327.845 91.7956 327.827 91.7358 327.827 91.6747V91.5594H327.282V91.6747C327.281 91.7358 327.264 91.7956 327.233 91.8478C327.201 91.8999 327.156 91.9426 327.103 91.9711C327.07 91.9863 327.039 92.0047 327.01 92.026C326.957 92.0569 326.897 92.0731 326.836 92.0731C326.775 92.0731 326.714 92.0569 326.662 92.026L326.564 91.9657L326.291 92.4433L326.389 92.4982C326.442 92.5294 326.485 92.5746 326.514 92.6288C326.543 92.683 326.556 92.7442 326.553 92.8056V92.9154C326.556 92.9769 326.543 93.0381 326.514 93.0923C326.485 93.1465 326.442 93.1917 326.389 93.2229L326.291 93.2778L326.564 93.7554L326.662 93.6951C326.714 93.6642 326.775 93.648 326.836 93.648C326.897 93.648 326.957 93.6642 327.01 93.6951C327.039 93.7164 327.07 93.7348 327.103 93.75C327.156 93.7785 327.201 93.8212 327.233 93.8733C327.264 93.9255 327.281 93.9853 327.282 94.0464V94.1507ZM327.554 93.6511C327.395 93.6511 327.239 93.6035 327.107 93.5142C326.974 93.4249 326.871 93.298 326.81 93.1495C326.749 93.0011 326.733 92.8377 326.764 92.6801C326.795 92.5224 326.872 92.3777 326.985 92.264C327.097 92.1504 327.241 92.073 327.397 92.0417C327.554 92.0103 327.716 92.0264 327.863 92.0879C328.01 92.1494 328.136 92.2535 328.224 92.3872C328.313 92.5208 328.36 92.6779 328.36 92.8386C328.359 93.0536 328.273 93.2595 328.123 93.4116C327.972 93.5636 327.768 93.6497 327.554 93.6511ZM327.554 92.3006C327.447 92.3006 327.341 92.3327 327.252 92.3931C327.162 92.4534 327.093 92.5391 327.051 92.6395C327.01 92.7398 326.999 92.8502 327.02 92.9567C327.041 93.0632 327.093 93.161 327.169 93.2378C327.246 93.3146 327.343 93.3668 327.448 93.388C327.554 93.4092 327.663 93.3983 327.763 93.3568C327.862 93.3152 327.947 93.2449 328.007 93.1546C328.067 93.0643 328.099 92.9582 328.099 92.8496C328.099 92.704 328.041 92.5643 327.939 92.4614C327.837 92.3584 327.699 92.3006 327.554 92.3006Z" fill="white"/>
<path d="M292.209 87.1563L292.127 87.2441L292.078 87.2935C291.972 87.184 291.845 87.097 291.704 87.0375C291.564 86.9781 291.414 86.9475 291.261 86.9475C291.109 86.9475 290.959 86.9781 290.819 87.0375C290.678 87.097 290.551 87.184 290.445 87.2935L290.401 87.2441L290.32 87.1618C290.351 87.1279 290.386 87.0966 290.423 87.0685C290.498 87.0053 290.58 86.9519 290.668 86.9092C290.772 86.8588 290.882 86.8219 290.995 86.7994H291.158H291.408C291.511 86.8121 291.611 86.8361 291.708 86.8708C291.778 86.8982 291.845 86.9312 291.909 86.9696C291.979 87.0071 292.044 87.0512 292.105 87.1014L292.193 87.1837L292.209 87.1563Z" fill="white"/>
<path d="M290.722 87.5571L290.592 87.4253C290.68 87.3357 290.786 87.2646 290.901 87.216C291.017 87.1675 291.141 87.1425 291.267 87.1425C291.392 87.1425 291.517 87.1675 291.632 87.216C291.748 87.2646 291.854 87.3357 291.942 87.4253L291.811 87.5626C291.667 87.4178 291.471 87.3365 291.267 87.3365C291.063 87.3365 290.867 87.4178 290.722 87.5626V87.5571Z" fill="white"/>
<path d="M291.703 87.6889L291.572 87.8261C291.536 87.7896 291.494 87.7606 291.447 87.7408C291.401 87.721 291.35 87.7108 291.3 87.7108C291.249 87.7108 291.199 87.721 291.152 87.7408C291.105 87.7606 291.063 87.7896 291.028 87.8261L290.897 87.6889C291.005 87.5829 291.149 87.5236 291.3 87.5236C291.45 87.5236 291.595 87.5829 291.703 87.6889Z" fill="white"/>
<path d="M291.386 87.9469C291.386 87.9708 291.379 87.9942 291.366 88.014C291.353 88.0339 291.334 88.0494 291.313 88.0585C291.291 88.0677 291.267 88.0701 291.244 88.0654C291.221 88.0607 291.199 88.0492 291.183 88.0323C291.166 88.0155 291.155 87.9939 291.15 87.9705C291.146 87.9471 291.148 87.9228 291.157 87.9007C291.166 87.8787 291.181 87.8598 291.201 87.8465C291.22 87.8332 291.243 87.8262 291.267 87.8262C291.283 87.8254 291.299 87.828 291.314 87.8338C291.328 87.8395 291.342 87.8484 291.353 87.8598C291.364 87.8712 291.373 87.8848 291.379 87.8998C291.384 87.9148 291.387 87.9309 291.386 87.9469Z" fill="white"/>
<path d="M284.02 87.4143C284.02 87.3225 284.056 87.2346 284.121 87.1697C284.185 87.1048 284.272 87.0684 284.363 87.0684C284.455 87.0684 284.543 87.1046 284.608 87.1694C284.673 87.2341 284.71 87.322 284.712 87.4143C284.712 87.5075 284.675 87.5968 284.61 87.6627C284.544 87.7286 284.456 87.7656 284.363 87.7656C284.272 87.7642 284.185 87.7265 284.12 87.6608C284.056 87.5951 284.02 87.5065 284.02 87.4143Z" fill="white"/>
<path d="M285.108 87.4143C285.108 87.3225 285.144 87.2346 285.209 87.1697C285.273 87.1048 285.36 87.0684 285.451 87.0684C285.543 87.0684 285.631 87.1046 285.696 87.1694C285.761 87.2341 285.798 87.322 285.8 87.4143C285.8 87.5075 285.763 87.5968 285.698 87.6627C285.632 87.7286 285.544 87.7656 285.451 87.7656C285.36 87.7642 285.273 87.7265 285.208 87.6608C285.144 87.5951 285.108 87.5065 285.108 87.4143Z" fill="white"/>
<path d="M286.198 87.4143C286.208 87.3294 286.249 87.2512 286.313 87.1946C286.376 87.138 286.458 87.1068 286.543 87.1068C286.628 87.1068 286.71 87.138 286.774 87.1946C286.837 87.2512 286.878 87.3294 286.889 87.4143C286.895 87.4637 286.891 87.5139 286.876 87.5616C286.862 87.6092 286.837 87.6532 286.805 87.6906C286.772 87.7279 286.732 87.7579 286.687 87.7784C286.642 87.7989 286.593 87.8095 286.543 87.8095C286.494 87.8095 286.445 87.7989 286.4 87.7784C286.355 87.7579 286.315 87.7279 286.282 87.6906C286.249 87.6532 286.225 87.6092 286.21 87.5616C286.196 87.5139 286.191 87.4637 286.198 87.4143Z" fill="white"/>
<path d="M287.287 87.4143C287.287 87.3448 287.307 87.2769 287.345 87.2191C287.384 87.1613 287.438 87.1163 287.502 87.0897C287.566 87.0631 287.636 87.0561 287.703 87.0697C287.771 87.0832 287.833 87.1167 287.882 87.1658C287.93 87.215 287.964 87.2776 287.977 87.3457C287.99 87.4139 287.983 87.4846 287.957 87.5488C287.931 87.613 287.886 87.6678 287.829 87.7064C287.771 87.7451 287.704 87.7657 287.635 87.7657C287.543 87.7657 287.454 87.7286 287.389 87.6628C287.323 87.5969 287.287 87.5075 287.287 87.4143Z" fill="white"/>
<path d="M288.376 87.4143C288.377 87.322 288.414 87.2341 288.48 87.1694C288.545 87.1046 288.633 87.0684 288.724 87.0684C288.815 87.0684 288.902 87.1048 288.967 87.1697C289.031 87.2346 289.067 87.3225 289.067 87.4143C289.067 87.5065 289.031 87.5951 288.967 87.6608C288.903 87.7265 288.816 87.7642 288.724 87.7656C288.632 87.7656 288.543 87.7286 288.478 87.6627C288.412 87.5968 288.376 87.5075 288.376 87.4143Z" fill="white"/>
<path d="M328.888 88.1719H326.079V86.8653H328.888V88.1719ZM326.215 88.0347H328.752V87.0025H326.215V88.0347Z" fill="white"/>
<path d="M328.12 87.0849H326.307V87.9523H328.12V87.0849Z" fill="white"/>
<path d="M329.143 87.1673H328.894V87.87H329.143V87.1673Z" fill="white"/>
<path d="M288.545 183.536H288.147V185.375H287.407V184.436H286.094V185.375H285.354V183.536H284.957L286.753 181.669L288.545 183.536Z" fill="#EBEBEB"/>
<path d="M328.474 181.669H324.146V182.295H328.474V181.669Z" fill="#EBEBEB"/>
<path d="M328.474 183.207H324.146V183.832H328.474V183.207Z" fill="#EBEBEB"/>
<path d="M328.474 184.749H324.146V185.375H328.474V184.749Z" fill="#EBEBEB"/>
<path d="M288.463 106.915C288.003 107.204 287.472 107.358 286.93 107.358C286.388 107.358 285.857 107.204 285.398 106.915C284.859 106.579 284.443 106.075 284.214 105.479C283.985 104.884 283.955 104.229 284.128 103.614C284.302 103 284.669 102.459 285.175 102.074C285.68 101.689 286.297 101.48 286.93 101.48C287.564 101.48 288.18 101.689 288.686 102.074C289.191 102.459 289.559 103 289.732 103.614C289.905 104.229 289.875 104.884 289.646 105.479C289.417 106.075 289.002 106.579 288.463 106.915Z" fill="#DBDBDB"/>
<path d="M287.814 104.082C287.814 104.26 287.762 104.433 287.665 104.58C287.567 104.727 287.428 104.842 287.265 104.91C287.103 104.977 286.924 104.995 286.752 104.96C286.58 104.925 286.421 104.839 286.298 104.713C286.174 104.588 286.09 104.428 286.056 104.254C286.022 104.08 286.041 103.9 286.109 103.736C286.177 103.573 286.291 103.433 286.438 103.336C286.585 103.238 286.757 103.186 286.932 103.188C287.167 103.189 287.391 103.284 287.556 103.452C287.722 103.619 287.814 103.846 287.814 104.082Z" fill="white"/>
<path d="M288.463 106.548V106.915C288.003 107.205 287.472 107.358 286.93 107.358C286.388 107.358 285.857 107.205 285.398 106.915V106.548C285.421 106.154 285.593 105.783 285.877 105.513C286.162 105.242 286.539 105.091 286.93 105.091C287.322 105.091 287.698 105.242 287.983 105.513C288.268 105.783 288.44 106.154 288.463 106.548Z" fill="white"/>
<path d="M312.005 101.65H293.494V103.188H312.005V101.65Z" fill="#EBEBEB"/>
<path d="M309.653 104.214H293.494V105.235H309.653V104.214Z" fill="#EBEBEB"/>
<path d="M320.21 106.18H293.494V107.201H320.21V106.18Z" fill="#EBEBEB"/>
<path d="M280.618 146.637H332.809V109.787H280.618V146.637Z" fill="#EBEBEB"/>
<path d="M286.715 120.262C286.715 121.124 286.969 121.967 287.444 122.684C287.919 123.401 288.594 123.959 289.384 124.289C290.174 124.619 291.043 124.706 291.882 124.537C292.72 124.369 293.49 123.954 294.095 123.344C294.7 122.735 295.111 121.958 295.278 121.112C295.445 120.267 295.359 119.39 295.032 118.594C294.705 117.797 294.151 117.116 293.44 116.637C292.729 116.158 291.893 115.903 291.038 115.903C289.892 115.903 288.792 116.362 287.981 117.18C287.171 117.997 286.715 119.106 286.715 120.262Z" fill="#DBDBDB"/>
<path d="M303.789 138.698H332.809L318.299 118.862L303.789 138.698Z" fill="#C7C7C7"/>
<path d="M292.41 138.714H316.372L304.388 125.802L292.41 138.714Z" fill="#DBDBDB"/>
<path d="M332.808 138.698H280.617V146.637H332.808V138.698Z" fill="#DBDBDB"/>
<path d="M288.463 166.066C288.003 166.355 287.472 166.509 286.93 166.509C286.388 166.509 285.857 166.355 285.398 166.066C284.859 165.73 284.443 165.226 284.214 164.63C283.985 164.035 283.955 163.38 284.128 162.765C284.302 162.151 284.669 161.61 285.175 161.225C285.68 160.84 286.297 160.631 286.93 160.631C287.564 160.631 288.18 160.84 288.686 161.225C289.191 161.61 289.559 162.151 289.732 162.765C289.905 163.38 289.875 164.035 289.646 164.63C289.417 165.226 289.002 165.73 288.463 166.066Z" fill="#DBDBDB"/>
<path d="M286.932 164.128C287.423 164.128 287.82 163.728 287.82 163.233C287.82 162.739 287.423 162.339 286.932 162.339C286.442 162.339 286.045 162.739 286.045 163.233C286.045 163.728 286.442 164.128 286.932 164.128Z" fill="white"/>
<path d="M288.463 165.699V166.066C288.003 166.355 287.472 166.509 286.93 166.509C286.388 166.509 285.857 166.355 285.398 166.066V165.699C285.421 165.305 285.593 164.934 285.877 164.664C286.162 164.393 286.539 164.242 286.93 164.242C287.322 164.242 287.698 164.393 287.983 164.664C288.268 164.934 288.44 165.305 288.463 165.699Z" fill="white"/>
<path d="M317.298 160.801H293.494V162.339H317.298V160.801Z" fill="#EBEBEB"/>
<path d="M323.885 163.365H293.494V164.386H323.885V163.365Z" fill="#EBEBEB"/>
<path d="M303.844 165.331H293.494V166.352H303.844V165.331Z" fill="#EBEBEB"/>
<path d="M332.798 168.938H280.617V177.936H332.798V168.938Z" fill="#EBEBEB"/>
<path d="M295.106 177.942H286.971C287.27 177.095 287.822 176.363 288.55 175.845C289.278 175.327 290.147 175.049 291.039 175.049C291.93 175.049 292.799 175.327 293.527 175.845C294.255 176.363 294.807 177.095 295.106 177.942Z" fill="#DBDBDB"/>
<path d="M284.123 150.952C284.042 150.618 284.062 150.266 284.179 149.943C284.296 149.62 284.506 149.339 284.781 149.136C285.057 148.932 285.386 148.816 285.727 148.801C286.068 148.787 286.405 148.874 286.697 149.053C286.989 149.232 287.221 149.494 287.365 149.806C287.509 150.119 287.558 150.467 287.506 150.807C287.453 151.147 287.302 151.464 287.071 151.717C286.84 151.971 286.54 152.15 286.208 152.231C285.988 152.286 285.759 152.296 285.535 152.262C285.311 152.227 285.096 152.148 284.902 152.029C284.708 151.91 284.539 151.754 284.406 151.569C284.272 151.384 284.176 151.174 284.123 150.952Z" fill="#EBEBEB"/>
<path fill-rule="evenodd" clip-rule="evenodd" d="M285.566 151.232C285.517 151.204 285.479 151.161 285.419 151.166C285.359 151.171 285.419 151.166 285.419 151.139V150.441C285.415 150.436 285.413 150.429 285.413 150.422C285.413 150.415 285.415 150.408 285.419 150.403C285.594 150.315 285.67 150.139 285.779 149.986C285.836 149.908 285.877 149.819 285.899 149.724C285.92 149.63 285.922 149.532 285.904 149.437C285.904 149.387 285.904 149.365 285.969 149.354C285.992 149.345 286.017 149.343 286.041 149.35C286.065 149.357 286.086 149.372 286.1 149.393C286.151 149.488 286.184 149.592 286.198 149.7C286.209 149.786 286.209 149.872 286.198 149.958C286.198 150.024 286.171 150.084 286.16 150.15C286.149 150.216 286.192 150.15 286.209 150.15H286.791C286.873 150.15 286.917 150.15 286.927 150.227C286.933 150.261 286.928 150.296 286.912 150.327C286.896 150.358 286.871 150.382 286.84 150.397C286.84 150.397 286.802 150.397 286.802 150.425C286.802 150.452 286.802 150.425 286.84 150.452C286.878 150.48 286.895 150.601 286.84 150.661C286.786 150.721 286.786 150.661 286.786 150.694C286.786 150.727 286.819 150.694 286.835 150.738C286.847 150.754 286.856 150.773 286.86 150.793C286.864 150.813 286.863 150.833 286.858 150.853C286.853 150.873 286.843 150.891 286.829 150.906C286.816 150.921 286.799 150.933 286.78 150.941H286.742C286.742 150.941 286.742 150.941 286.742 150.968C286.762 150.978 286.779 150.992 286.79 151.011C286.802 151.029 286.808 151.051 286.808 151.073C286.808 151.095 286.802 151.116 286.79 151.134C286.779 151.153 286.762 151.168 286.742 151.177C286.709 151.188 286.673 151.188 286.639 151.177H285.724C285.721 151.193 285.713 151.209 285.702 151.221C285.69 151.234 285.676 151.243 285.66 151.249C285.645 151.254 285.628 151.256 285.611 151.253C285.595 151.25 285.579 151.243 285.566 151.232Z" fill="white"/>
<path fill-rule="evenodd" clip-rule="evenodd" d="M284.695 150.826C284.695 150.677 284.695 150.529 284.695 150.381C284.695 150.353 284.695 150.337 284.739 150.337C284.913 150.337 285.093 150.337 285.283 150.337C285.316 150.337 285.322 150.337 285.322 150.381V151.27C285.322 151.309 285.322 151.32 285.273 151.32H284.755C284.712 151.32 284.706 151.32 284.706 151.265C284.701 151.144 284.695 150.974 284.695 150.826Z" fill="white"/>
<path d="M287.75 150.952C287.669 150.618 287.689 150.267 287.806 149.944C287.923 149.621 288.132 149.34 288.408 149.137C288.683 148.934 289.012 148.818 289.352 148.803C289.693 148.788 290.031 148.875 290.322 149.054C290.614 149.232 290.846 149.493 290.991 149.805C291.135 150.117 291.185 150.465 291.133 150.804C291.081 151.144 290.931 151.461 290.701 151.715C290.471 151.969 290.171 152.149 289.84 152.231C289.62 152.287 289.39 152.298 289.165 152.263C288.941 152.229 288.725 152.15 288.53 152.031C288.336 151.912 288.167 151.756 288.033 151.57C287.899 151.385 287.803 151.175 287.75 150.952Z" fill="#F39E3A"/>
<path d="M290.309 150.76C290.309 150.996 290.216 151.222 290.051 151.389C289.886 151.555 289.661 151.649 289.427 151.649C289.193 151.649 288.969 151.555 288.804 151.389C288.638 151.222 288.545 150.996 288.545 150.76C288.489 150.677 288.451 150.582 288.434 150.483C288.417 150.384 288.421 150.282 288.446 150.185C288.472 150.088 288.517 149.997 288.581 149.919C288.644 149.841 288.723 149.778 288.812 149.733C289.302 149.585 289.427 150.447 289.427 150.447C289.427 150.447 289.553 149.585 290.048 149.733C290.391 149.837 290.527 150.315 290.309 150.76Z" fill="white"/>
<path d="M318.299 150.315H293.782V151.32H318.299V150.315Z" fill="#EBEBEB"/>
<path d="M280.617 156.316L287.14 156.217L293.662 156.162L306.707 156.113L319.753 156.162L326.275 156.217L332.798 156.316L326.275 156.42L319.753 156.475L306.707 156.524L293.662 156.475L287.14 156.42L280.617 156.316Z" fill="#EBEBEB"/>
<path d="M202.232 203.877C201.824 202.713 180.748 175.811 179.333 175.328C179.175 175.262 170.142 182.037 170.142 182.037C169.772 182.553 152.262 179.204 152.262 179.204L152.529 200.413L184.265 199.062C184.265 199.062 188.621 201.516 192.574 203.504C194.261 204.418 196.003 205.225 197.79 205.919C199.396 206.287 202.646 205.03 202.232 203.877Z" fill="#EB9481"/>
<path d="M197.8 205.908C196.015 205.214 194.274 204.407 192.59 203.493C188.626 201.505 184.281 199.051 184.281 199.051L177.203 199.353L165.77 181.582C168.209 181.966 170.022 182.185 170.125 182.021C170.125 182.021 179.152 175.251 179.316 175.317C180.731 175.811 201.807 202.713 202.215 203.866C202.624 205.019 199.395 206.293 197.8 205.908Z" fill="white"/>
<path d="M202.411 203.905C201.981 202.719 180.813 175.833 179.359 175.323C178.815 175.125 174.383 178.013 170.131 182.026L183.796 199.337C183.796 199.337 196.21 205.639 197.86 206.029C199.509 206.419 202.847 205.096 202.411 203.905Z" fill="#F39E3A"/>
<path d="M201.05 204.399C197.392 200.007 183.051 181.807 179.768 177.162C179.74 177.124 179.768 177.102 179.768 177.162C183.486 181.461 197.686 199.748 201.094 204.36C201.197 204.399 201.127 204.47 201.05 204.399Z" fill="#263238"/>
<path d="M195.552 205.068C195.144 204.578 194.841 204.006 194.662 203.391C194.484 202.776 194.435 202.13 194.518 201.494C194.657 200.351 195.228 199.307 196.113 198.579C196.14 198.579 196.178 198.607 196.151 198.634C195.386 199.495 194.919 200.583 194.821 201.735C194.723 202.886 194.999 204.039 195.607 205.019C195.634 205.057 195.58 205.101 195.552 205.068Z" fill="#263238"/>
<path d="M185.371 200.396C183.922 198.612 182.91 196.004 183.492 193.72C183.492 193.632 183.639 193.665 183.65 193.72C184.073 195.953 184.732 198.134 185.616 200.226C185.638 200.259 185.646 200.299 185.639 200.338C185.632 200.377 185.61 200.412 185.577 200.435C185.545 200.457 185.505 200.466 185.466 200.459C185.427 200.451 185.393 200.429 185.371 200.396Z" fill="#263238"/>
<path d="M187.003 201.357C185.561 199.573 184.542 196.965 185.125 194.681C185.125 194.593 185.272 194.626 185.288 194.681C185.707 196.915 186.364 199.096 187.248 201.187C187.271 201.22 187.279 201.26 187.272 201.299C187.265 201.338 187.243 201.373 187.21 201.395C187.194 201.407 187.176 201.415 187.157 201.419C187.138 201.423 187.118 201.423 187.099 201.419C187.06 201.412 187.026 201.39 187.003 201.357Z" fill="#263238"/>
<path d="M188.637 202.318C187.194 200.534 186.181 197.926 186.758 195.642C186.758 195.554 186.905 195.587 186.922 195.642C187.344 197.874 188.001 200.055 188.882 202.148C188.904 202.18 188.913 202.221 188.906 202.26C188.898 202.299 188.876 202.334 188.844 202.356C188.811 202.379 188.771 202.387 188.732 202.38C188.694 202.373 188.659 202.351 188.637 202.318Z" fill="#263238"/>
<path d="M190.275 203.301C188.827 201.516 187.814 198.908 188.391 196.625C188.391 196.537 188.538 196.57 188.555 196.625C188.976 198.858 189.635 201.039 190.52 203.13C190.543 203.163 190.551 203.204 190.544 203.243C190.537 203.282 190.515 203.316 190.482 203.339C190.466 203.35 190.448 203.358 190.429 203.362C190.41 203.366 190.39 203.367 190.371 203.363C190.332 203.356 190.298 203.333 190.275 203.301Z" fill="#263238"/>
<path d="M176.424 181.686C174.835 179.654 177.96 177.167 179.55 179.199C181.139 181.23 178.014 183.717 176.424 181.686Z" fill="#263238"/>
<path d="M184.641 203.921C185.12 201.95 184.734 199.842 184.603 197.849C184.597 197.805 184.58 197.764 184.554 197.728C184.529 197.692 184.496 197.663 184.457 197.643C184.418 197.623 184.375 197.612 184.332 197.611C184.288 197.611 184.245 197.621 184.206 197.64C184.2 197.633 184.192 197.628 184.184 197.624C184.175 197.62 184.166 197.618 184.157 197.618C184.147 197.618 184.138 197.62 184.13 197.624C184.121 197.628 184.114 197.633 184.108 197.64C182.578 199.087 181.451 200.914 180.841 202.938C180.509 204.124 180.678 205.864 182.148 206.177C183.618 206.49 184.364 205.074 184.641 203.921ZM183.226 205.189C181.135 206.573 181.238 203.603 181.522 202.741C181.71 202.175 181.939 201.625 182.208 201.094C182.772 200.016 183.389 198.968 184.059 197.953C184.059 198.936 184.151 199.908 184.189 200.885C184.238 202.076 184.374 204.432 183.226 205.189Z" fill="#263238"/>
<path d="M177.912 192.134C176.855 193.232 177.661 194.758 178.592 195.559C180.211 196.912 182.154 197.81 184.227 198.162C184.276 198.162 184.298 198.134 184.298 198.096C184.342 198.091 184.384 198.076 184.421 198.052C184.458 198.027 184.488 197.995 184.51 197.956C184.532 197.917 184.544 197.874 184.546 197.83C184.548 197.785 184.54 197.741 184.521 197.701C183.541 195.966 182.708 193.995 181.255 192.617C180.383 191.81 178.924 191.118 177.912 192.134ZM182.501 195.378C183.008 196.218 183.465 197.08 183.993 197.904C182.904 197.393 181.783 196.932 180.727 196.312C180.217 196.019 179.728 195.693 179.262 195.334C178.554 194.785 176.85 192.348 179.349 192.342C180.743 192.32 181.919 194.379 182.512 195.378H182.501Z" fill="#263238"/>
<path d="M151.233 174.148L136.919 173.011C136.919 173.011 116.23 166.972 104.296 170.129C90.5973 173.758 88.6645 189.894 102.592 196.361C116.388 202.752 177.024 200.402 177.024 200.402L164.022 180.983C164.022 180.983 144.052 176.256 126.569 177.217L151.32 180.088L151.233 174.148Z" fill="#37474F"/>
<path d="M151.085 178.254C148.956 177.903 146.8 177.705 144.655 177.524C142.51 177.343 140.3 177.162 138.122 177.025C133.789 176.739 129.444 176.673 125.104 176.827C124.696 176.827 124.293 176.865 123.884 176.893C123.797 176.868 123.708 176.847 123.618 176.833C123.411 176.783 123.198 176.734 122.991 176.701C122.594 176.635 122.202 176.585 121.805 176.531C120.982 176.421 120.171 176.349 119.338 176.212C119.289 176.212 119.267 176.284 119.338 176.289C120.166 176.459 120.972 176.679 121.805 176.838L122.518 176.975C120.928 177.091 119.344 177.25 117.759 177.431C117.71 177.431 117.71 177.513 117.759 177.508C119.937 177.332 122.115 177.272 124.26 177.266C126.405 177.261 128.556 177.266 130.706 177.338C135.062 177.497 139.418 177.799 143.73 178.167C146.158 178.37 148.597 178.622 151.036 178.672C151.276 178.683 151.325 178.293 151.085 178.254Z" fill="#263238"/>
<path d="M170.833 199.957C170.033 198.722 169.342 197.399 168.607 196.114L166.385 192.271C164.904 189.718 159.601 181.142 159.084 180.544C159.051 180.505 158.986 180.544 159.002 180.599C159.258 181.263 162.574 186.945 163.358 188.214C164.883 190.745 166.483 193.226 168.057 195.724C168.509 196.438 168.971 197.146 169.429 197.854C169.886 198.563 170.371 199.26 170.79 199.99C170.774 200.045 170.833 200.006 170.833 199.957Z" fill="#263238"/>
<path d="M99.6028 207.786C99.9567 206.606 119.748 178.732 121.136 178.167C121.294 178.095 130.637 184.425 130.637 184.425C131.029 184.925 148.359 180.747 148.359 180.747L149.088 201.945L117.325 202.109C117.325 202.109 113.105 204.766 109.234 206.946C107.591 207.938 105.889 208.828 104.138 209.609C102.548 210.064 99.2434 208.961 99.6028 207.786Z" fill="#EB9481"/>
<path d="M104.128 209.609C105.878 208.83 107.579 207.94 109.219 206.946C113.084 204.75 117.309 202.109 117.309 202.109L124.387 202.076L134.977 183.778C132.559 184.277 130.757 184.585 130.621 184.425C130.621 184.425 121.278 178.09 121.12 178.167C119.732 178.716 99.941 206.606 99.5872 207.786C99.2333 208.966 102.549 210.064 104.128 209.609Z" fill="white"/>
<path d="M99.4181 207.83C99.7883 206.622 119.677 178.732 121.098 178.183C121.643 177.958 126.2 180.632 130.637 184.431L117.793 202.384C117.793 202.384 105.696 209.268 104.062 209.735C102.429 210.202 99.0479 209.038 99.4181 207.83Z" fill="#F39E3A"/>
<path d="M100.811 208.242C104.257 203.652 117.727 184.821 120.792 180.017C120.792 179.978 120.792 179.962 120.759 180.017C117.248 184.486 103.925 203.432 100.734 208.203C100.664 208.275 100.734 208.33 100.811 208.242Z" fill="#263238"/>
<path d="M106.337 208.659C106.721 208.149 106.995 207.564 107.143 206.941C107.291 206.318 107.31 205.671 107.198 205.041C107.014 203.91 106.406 202.893 105.499 202.203C105.499 202.203 105.434 202.236 105.455 202.263C106.26 203.086 106.778 204.151 106.931 205.296C107.084 206.442 106.864 207.606 106.305 208.615C106.304 208.62 106.304 208.625 106.305 208.63C106.307 208.635 106.309 208.64 106.312 208.644C106.315 208.648 106.319 208.651 106.323 208.654C106.328 208.657 106.332 208.658 106.337 208.659Z" fill="#263238"/>
<path d="M116.285 203.504C117.647 201.654 118.54 199.013 117.848 196.751C117.848 196.663 117.701 196.701 117.69 196.778C117.38 199.027 116.833 201.235 116.057 203.366C116.051 203.395 116.055 203.425 116.067 203.452C116.079 203.479 116.098 203.501 116.123 203.516C116.148 203.531 116.177 203.538 116.206 203.536C116.235 203.533 116.263 203.522 116.285 203.504Z" fill="#263238"/>
<path d="M114.695 204.541C116.056 202.691 116.949 200.05 116.263 197.788C116.263 197.701 116.11 197.739 116.099 197.816C115.789 200.064 115.242 202.273 114.466 204.404C114.46 204.433 114.464 204.463 114.476 204.489C114.488 204.516 114.508 204.539 114.533 204.554C114.558 204.569 114.586 204.575 114.615 204.573C114.644 204.571 114.672 204.56 114.695 204.541Z" fill="#263238"/>
<path d="M113.122 205.579C114.478 203.729 115.37 201.088 114.684 198.826C114.657 198.738 114.537 198.777 114.527 198.826C114.214 201.074 113.667 203.282 112.893 205.414C112.877 205.445 112.872 205.481 112.88 205.515C112.887 205.548 112.907 205.578 112.935 205.599C112.963 205.619 112.998 205.628 113.032 205.624C113.067 205.621 113.099 205.605 113.122 205.579Z" fill="#263238"/>
<path d="M111.521 206.622C112.882 204.766 113.775 202.126 113.083 199.864C113.083 199.776 112.936 199.814 112.925 199.891C112.615 202.14 112.068 204.348 111.292 206.479C111.285 206.509 111.287 206.539 111.299 206.567C111.31 206.595 111.33 206.618 111.355 206.634C111.38 206.65 111.41 206.657 111.44 206.655C111.47 206.653 111.498 206.641 111.521 206.622Z" fill="#263238"/>
<path d="M124.343 184.392C125.834 182.29 122.595 179.951 121.103 182.054C119.611 184.156 122.845 186.495 124.343 184.392Z" fill="#263238"/>
<path d="M119.79 209.115C121.244 208.736 121.331 206.99 120.939 205.821C120.232 203.824 119.015 202.052 117.411 200.682C117.373 200.649 117.34 200.682 117.319 200.682C117.278 200.664 117.234 200.657 117.19 200.66C117.146 200.662 117.103 200.676 117.065 200.698C117.027 200.72 116.995 200.751 116.971 200.789C116.947 200.826 116.932 200.868 116.927 200.912C116.894 202.905 116.605 205.03 117.177 206.979C117.509 208.132 118.413 209.477 119.79 209.115ZM117.476 203.959C117.476 202.982 117.509 202.005 117.476 201.028C118.193 202.008 118.858 203.025 119.469 204.075C119.76 204.586 120.016 205.116 120.237 205.661C120.558 206.512 120.781 209.472 118.647 208.198C117.476 207.49 117.476 205.129 117.476 203.959Z" fill="#263238"/>
<path d="M120.041 195.537C118.631 196.987 117.891 198.996 116.998 200.775C116.982 200.816 116.975 200.861 116.979 200.905C116.983 200.949 116.997 200.991 117.02 201.029C117.044 201.066 117.076 201.098 117.113 201.121C117.151 201.143 117.194 201.157 117.238 201.159C117.237 201.169 117.238 201.178 117.241 201.187C117.244 201.196 117.25 201.204 117.256 201.21C117.263 201.217 117.272 201.221 117.281 201.224C117.29 201.227 117.299 201.227 117.308 201.225C119.362 200.773 121.262 199.784 122.818 198.359C123.706 197.514 124.452 195.933 123.335 194.906C122.219 193.879 120.864 194.692 120.041 195.537ZM121.904 195.175C124.397 195.065 122.807 197.563 122.127 198.162C121.679 198.541 121.206 198.89 120.711 199.205C119.681 199.84 118.62 200.423 117.532 200.951C118.022 200.105 118.441 199.221 118.904 198.359C119.453 197.333 120.526 195.236 121.904 195.175Z" fill="#263238"/>
<path d="M149.148 174.203L163.396 173.824C163.396 173.824 178.096 166.198 190.194 168.789C204.045 171.754 206.266 189.141 196.139 195.581C183.312 203.74 125.268 203.778 125.268 203.778L137.246 182.015C137.246 182.015 156.427 177.403 173.937 177.53L149.344 181.582L149.148 174.203Z" fill="#37474F"/>
<path d="M136.44 183.437C136.454 183.402 136.463 183.365 136.467 183.327V183.234L136.516 183.025C136.554 182.883 136.603 182.745 136.652 182.603C136.701 182.46 136.761 182.328 136.815 182.191C136.882 182.057 136.958 181.929 137.044 181.807C137.044 181.807 137.044 181.807 137.077 181.779H137.104H137.137C139.249 181.323 153.606 178.858 155.746 178.556C157.886 178.254 160.058 178.007 162.225 177.749C166.539 177.255 170.875 176.981 175.216 176.926C175.624 176.926 176.032 176.926 176.441 176.926C176.526 176.896 176.614 176.872 176.702 176.854C176.909 176.8 177.116 176.739 177.323 176.695C177.715 176.607 178.107 176.536 178.499 176.465C179.315 176.316 180.132 176.207 180.949 176.031C180.998 176.031 181.02 176.097 180.949 176.108C180.132 176.316 179.315 176.574 178.515 176.778L177.807 176.948C179.403 176.992 180.992 177.074 182.588 177.178C182.598 177.178 182.607 177.182 182.615 177.19C182.622 177.197 182.626 177.207 182.626 177.217C182.626 177.227 182.622 177.237 182.615 177.244C182.607 177.251 182.598 177.255 182.588 177.255C180.41 177.184 178.232 177.228 176.081 177.321C173.931 177.414 171.791 177.519 169.646 177.705C165.29 178.068 160.989 178.578 156.677 179.149C154.26 179.473 139.619 182.026 137.186 182.196H137.153C137.138 182.255 137.118 182.312 137.093 182.367L136.897 182.767C136.832 182.894 136.766 183.02 136.69 183.146L136.576 183.327L136.516 183.415C136.516 183.443 136.462 183.481 136.456 183.509C136.451 183.536 136.413 183.487 136.44 183.437Z" fill="#263238"/>
<path d="M129.755 202.373C130.501 201.099 131.127 199.748 131.802 198.436L133.838 194.494C135.199 191.876 140.094 183.053 140.584 182.416C140.611 182.378 140.682 182.416 140.665 182.465C140.442 183.146 137.399 188.977 136.696 190.278C135.292 192.88 133.811 195.439 132.341 198.008C131.927 198.744 131.491 199.468 131.072 200.204C130.653 200.94 130.201 201.654 129.815 202.4C129.815 202.407 129.814 202.414 129.811 202.42C129.809 202.426 129.804 202.431 129.799 202.435C129.793 202.439 129.787 202.442 129.78 202.442C129.774 202.443 129.767 202.442 129.761 202.439C129.755 202.436 129.749 202.432 129.746 202.426C129.742 202.421 129.739 202.415 129.739 202.408C129.738 202.401 129.739 202.394 129.742 202.388C129.745 202.382 129.749 202.377 129.755 202.373Z" fill="#263238"/>
<path d="M177.699 115.941L174.699 132.318C174.558 132.801 174.819 133.175 175.282 133.142L183.53 132.593C183.781 132.556 184.015 132.449 184.208 132.284C184.401 132.119 184.543 131.903 184.619 131.659L187.619 115.282C187.761 114.799 187.499 114.431 187.037 114.459L178.794 115.008C178.543 115.044 178.307 115.151 178.114 115.316C177.92 115.481 177.776 115.698 177.699 115.941Z" fill="#37474F"/>
<path d="M178.679 115.87L175.679 132.247C175.537 132.73 175.798 133.103 176.256 133.07L184.504 132.521C184.755 132.485 184.99 132.379 185.182 132.213C185.375 132.048 185.518 131.832 185.593 131.588L188.599 115.211C188.74 114.728 188.479 114.355 188.016 114.387L179.767 114.936C179.518 114.974 179.283 115.081 179.091 115.246C178.898 115.411 178.755 115.627 178.679 115.87Z" fill="#455A64"/>
<path d="M180.987 116.457C180.994 116.597 180.959 116.736 180.887 116.856C180.815 116.976 180.709 117.072 180.583 117.131C180.457 117.191 180.316 117.211 180.179 117.19C180.041 117.168 179.913 117.106 179.811 117.011C179.708 116.916 179.636 116.793 179.603 116.657C179.57 116.521 179.578 116.377 179.626 116.246C179.674 116.114 179.76 116 179.872 115.917C179.984 115.835 180.119 115.787 180.258 115.782C180.443 115.774 180.624 115.841 180.761 115.968C180.897 116.094 180.979 116.27 180.987 116.457Z" fill="#263238"/>
<path d="M152.665 142.069C157.886 151.836 169.086 164.277 173.43 164.09C175.494 164.002 179.207 164.293 181.782 161.751C187.406 156.206 191.8 145.945 192.497 140.175C192.742 138.127 182.697 134.267 181.341 136.002C178.162 140.07 174.639 147.894 174.035 147.883C171.802 147.834 162.721 141.026 156.378 136.233C148.68 130.408 150.585 138.176 152.665 142.069Z" fill="#EB9481"/>
<path d="M192.16 129.661C190.897 125.593 189.955 124.72 190.695 120.74C191.18 118.11 189.726 116.671 188.017 118.851C185.224 122.42 185.763 128.014 186.503 129.903L192.16 129.661Z" fill="#EB9481"/>
<path d="M192.116 141.976C192.116 141.976 193.624 136.123 192.704 131.654C192.067 128.563 189.938 121.991 181.091 118.955C178.989 118.236 175.494 118.714 178.499 121.151C180.634 122.881 182.501 123.347 183.563 124.561C183.563 124.561 179.207 125.692 178.554 127.855C177.999 129.729 177.579 131.641 177.296 133.576C177.635 133.708 177.983 133.818 178.336 133.905C178.336 133.905 177.792 135.936 179.425 138.681L192.116 141.976Z" fill="#EB9481"/>
<path d="M191.627 128.799C190.32 127.8 187.511 125.73 184.63 124.841C181.429 123.858 175.005 122.826 174.286 125.214C173.774 126.971 176.191 127.58 176.191 127.58C176.191 127.58 173.469 127.718 173.328 129.403C173.219 130.94 175.119 131.297 175.119 131.297C175.119 131.297 173.486 131.67 173.649 133.169C173.861 134.97 177.286 133.894 179.093 135.53C179.491 135.898 191.627 128.799 191.627 128.799Z" fill="#EB9481"/>
<path d="M184.161 128.426C181.684 127.331 178.934 127.021 176.278 127.536C176.212 127.536 176.191 127.613 176.251 127.608C178.914 127.568 181.572 127.856 184.167 128.464L184.161 128.426Z" fill="#263238"/>
<path d="M183.078 131.654C181.82 131.143 178.107 130.424 175.145 131.237C175.074 131.237 175.058 131.314 175.145 131.308C177.801 131.131 180.467 131.258 183.094 131.687L183.078 131.654Z" fill="#263238"/>
<path d="M192.818 144.358C192.818 144.358 185.648 160.801 181.08 162.909C176.512 165.018 173.691 164.765 171.944 164.595C171.264 164.474 170.619 164.204 170.054 163.804C165.154 160.675 156.084 149.151 152.294 142.601C149.452 137.66 149.49 133.076 153.459 134.339C154.807 134.833 156.063 135.549 157.178 136.458C164.659 142.107 173.278 147.405 173.664 147.175C174.051 146.944 177.802 140.147 177.802 140.147L192.818 144.358Z" fill="#F39E3A"/>
<path d="M174.318 150.595C174.267 150.959 174.267 151.329 174.318 151.693C174.371 152.074 174.481 152.444 174.644 152.791C174.698 152.427 174.698 152.057 174.644 151.693C174.591 151.313 174.481 150.942 174.318 150.595Z" fill="white"/>
<path d="M183.678 154.685C183.627 155.049 183.627 155.419 183.678 155.783C183.728 156.15 183.826 156.508 183.972 156.848C184.026 156.484 184.026 156.114 183.972 155.75C183.926 155.383 183.827 155.024 183.678 154.685Z" fill="white"/>
<path d="M167.18 158.655C167.129 159.019 167.129 159.388 167.18 159.753C167.225 160.12 167.324 160.479 167.474 160.818C167.525 160.454 167.525 160.084 167.474 159.72C167.423 159.353 167.324 158.995 167.18 158.655Z" fill="white"/>
<path d="M162.666 142.503C162.574 143.249 162.679 144.007 162.971 144.699C163.022 144.334 163.022 143.965 162.971 143.601C162.92 143.222 162.818 142.852 162.666 142.503Z" fill="white"/>
<path d="M161.185 149.118C161.546 149.169 161.913 149.169 162.274 149.118C162.639 149.073 162.995 148.973 163.33 148.822C162.969 148.771 162.603 148.771 162.241 148.822C161.878 148.873 161.523 148.973 161.185 149.118Z" fill="white"/>
<path d="M180.284 151.034C180.646 151.086 181.012 151.086 181.373 151.034C181.737 150.984 182.092 150.884 182.43 150.738C182.069 150.683 181.702 150.683 181.341 150.738C180.976 150.784 180.62 150.883 180.284 151.034Z" fill="white"/>
<path d="M170.583 156.81C170.945 156.861 171.311 156.861 171.672 156.81C172.037 156.765 172.393 156.665 172.729 156.513C171.988 156.425 171.237 156.533 170.551 156.826L170.583 156.81Z" fill="white"/>
<path d="M189.035 145.363C189.396 145.414 189.763 145.414 190.124 145.363C190.489 145.318 190.845 145.218 191.18 145.066C190.439 144.978 189.689 145.086 189.002 145.379L189.035 145.363Z" fill="white"/>
<path d="M179.582 162.196C179.943 162.247 180.31 162.247 180.671 162.196C181.036 162.151 181.392 162.051 181.727 161.899C181.366 161.845 180.999 161.845 180.639 161.899C180.274 161.945 179.918 162.045 179.582 162.196Z" fill="white"/>
<path d="M151.511 134.882C151.21 135.016 150.893 135.108 150.569 135.157C150.615 135.051 150.673 134.952 150.743 134.86C150.999 134.835 151.257 134.842 151.511 134.882Z" fill="white"/>
<path d="M169.663 146.582C169.372 146.809 169.114 147.075 168.895 147.372C168.669 147.667 168.486 147.992 168.351 148.339C168.932 147.879 169.383 147.273 169.657 146.582H169.663Z" fill="white"/>
<path d="M178.64 155.772C178.348 156 178.09 156.268 177.872 156.568C177.648 156.862 177.465 157.185 177.328 157.529C177.62 157.304 177.878 157.037 178.096 156.739C178.321 156.444 178.505 156.119 178.64 155.772Z" fill="white"/>
<path d="M183.743 143.59C183.451 143.815 183.193 144.081 182.975 144.38C182.749 144.675 182.566 145 182.431 145.346C182.723 145.119 182.981 144.851 183.198 144.55C183.423 144.257 183.606 143.934 183.743 143.59Z" fill="white"/>
<path d="M163.995 154.625C163.705 154.854 163.446 155.122 163.228 155.421C163.003 155.714 162.82 156.038 162.683 156.382C162.975 156.156 163.233 155.89 163.451 155.591C163.678 155.298 163.862 154.972 163.995 154.625Z" fill="white"/>
<path d="M157.222 139.165C156.931 139.39 156.672 139.656 156.455 139.955C156.227 140.248 156.044 140.574 155.91 140.921C156.492 140.462 156.942 139.856 157.217 139.165H157.222Z" fill="white"/>
<path d="M156.803 146.752C156.577 146.458 156.312 146.197 156.013 145.978C155.724 145.749 155.403 145.565 155.061 145.429C155.281 145.726 155.546 145.987 155.845 146.203C156.136 146.432 156.459 146.617 156.803 146.752Z" fill="white"/>
<path d="M188.528 150.342C188.303 150.05 188.039 149.789 187.744 149.568C187.452 149.341 187.129 149.156 186.786 149.019C187.011 149.312 187.275 149.573 187.57 149.793C187.862 150.021 188.185 150.206 188.528 150.342Z" fill="white"/>
<path d="M178.767 147.383C178.542 147.09 178.278 146.83 177.983 146.609C177.692 146.38 177.369 146.195 177.024 146.06C177.48 146.646 178.081 147.101 178.767 147.378V147.383Z" fill="white"/>
<path d="M168.013 153.455C167.791 153.16 167.527 152.899 167.229 152.681C166.94 152.45 166.617 152.264 166.271 152.132C166.498 152.425 166.764 152.686 167.061 152.906C167.352 153.133 167.672 153.318 168.013 153.455Z" fill="white"/>
<path d="M174.482 162.509C174.258 162.215 173.994 161.954 173.698 161.735C173.406 161.507 173.083 161.322 172.74 161.186C172.965 161.48 173.231 161.741 173.529 161.96C173.82 162.186 174.141 162.371 174.482 162.509Z" fill="white"/>
<path d="M170.054 163.804C165.154 160.675 156.084 149.151 152.294 142.601C149.452 137.66 149.49 133.076 153.459 134.339C155.665 138.209 165.29 155.141 170.054 163.804Z" fill="#263238"/>
<path d="M190.978 147.383C190.434 147.114 185.284 145.412 184.156 145.066C183.029 144.721 178.445 143.271 177.253 143.013C177.248 143.011 177.243 143.011 177.237 143.011C177.232 143.011 177.227 143.012 177.222 143.015C177.217 143.017 177.213 143.02 177.209 143.024C177.206 143.028 177.203 143.033 177.201 143.038C177.199 143.043 177.199 143.048 177.199 143.054C177.199 143.059 177.2 143.064 177.203 143.069C177.205 143.074 177.208 143.078 177.212 143.082C177.216 143.085 177.221 143.088 177.226 143.09C178.347 143.568 182.97 145.05 184.113 145.423C185.256 145.797 190.38 147.367 190.962 147.46C191.022 147.466 191.027 147.4 190.978 147.383Z" fill="#263238"/>
<path d="M164.872 174.658C164.355 175.207 131.051 176.305 130.882 176.097C130.419 175.548 134.519 154.169 137.927 145.989C142.283 135.503 144.787 134.536 146.279 133.91C148.179 133.098 151.658 133.252 152.502 133.598C153.46 133.982 157.642 138.621 158.916 142.382C161.475 149.947 165.324 174.159 164.872 174.658Z" fill="#F39E3A"/>
<path d="M150.204 139.911C150.116 140.658 150.223 141.415 150.514 142.107C150.565 141.743 150.565 141.373 150.514 141.009C150.467 140.629 150.362 140.259 150.204 139.911Z" fill="white"/>
<path d="M150.487 155.942C150.395 156.689 150.501 157.446 150.792 158.139C150.843 157.774 150.843 157.405 150.792 157.04C150.742 156.662 150.639 156.292 150.487 155.942Z" fill="white"/>
<path d="M131.551 172.709C131.465 173.456 131.572 174.213 131.862 174.906C131.912 174.541 131.912 174.172 131.862 173.807C131.814 173.428 131.709 173.058 131.551 172.709Z" fill="white"/>
<path d="M145.195 173.374C145.144 173.738 145.144 174.108 145.195 174.472C145.244 174.841 145.345 175.201 145.495 175.542C145.545 175.178 145.545 174.809 145.495 174.444C145.449 174.074 145.348 173.713 145.195 173.374Z" fill="white"/>
<path d="M156.428 165.967C156.377 166.332 156.377 166.701 156.428 167.066C156.473 167.433 156.572 167.792 156.722 168.131C156.773 167.766 156.773 167.397 156.722 167.033C156.674 166.665 156.575 166.307 156.428 165.967Z" fill="white"/>
<path d="M140.409 149.497C140.358 149.861 140.358 150.231 140.409 150.595C140.454 150.963 140.553 151.322 140.703 151.66C140.757 151.296 140.757 150.926 140.703 150.562C140.657 150.194 140.558 149.835 140.409 149.497Z" fill="white"/>
<path d="M138.797 163.618C138.747 163.982 138.747 164.352 138.797 164.716C138.847 165.082 138.946 165.441 139.091 165.781C139.185 165.034 139.079 164.277 138.786 163.585L138.797 163.618Z" fill="white"/>
<path d="M158.806 152.429C158.755 152.793 158.755 153.163 158.806 153.527C158.856 153.894 158.955 154.252 159.1 154.592C159.154 154.228 159.154 153.858 159.1 153.494C159.055 153.126 158.955 152.767 158.806 152.429Z" fill="white"/>
<path d="M146.982 146.692C147.343 146.743 147.71 146.743 148.071 146.692C148.437 146.646 148.795 146.546 149.132 146.395C148.392 146.299 147.639 146.407 146.955 146.708L146.982 146.692Z" fill="white"/>
<path d="M138.95 157.266C139.691 157.354 140.442 157.246 141.128 156.953C140.767 156.901 140.4 156.901 140.039 156.953C139.663 157 139.295 157.106 138.95 157.266Z" fill="white"/>
<path d="M151.663 163.261C152.025 163.312 152.391 163.312 152.752 163.261C153.117 163.213 153.472 163.113 153.809 162.964C153.447 162.913 153.081 162.913 152.72 162.964C152.356 163.015 152.001 163.114 151.663 163.261Z" fill="white"/>
<path d="M142.228 170.058C142.589 170.109 142.956 170.109 143.317 170.058C143.681 170.007 144.036 169.908 144.373 169.761C144.012 169.71 143.645 169.71 143.284 169.761C142.921 169.812 142.565 169.912 142.228 170.058Z" fill="white"/>
<path d="M160.832 169.871C161.193 169.922 161.559 169.922 161.921 169.871C162.285 169.826 162.641 169.726 162.977 169.575C162.616 169.52 162.249 169.52 161.888 169.575C161.523 169.62 161.167 169.72 160.832 169.871Z" fill="white"/>
<path d="M149.354 135.19C149.716 135.241 150.082 135.241 150.443 135.19C150.809 135.139 151.166 135.04 151.505 134.893C151.144 134.842 150.777 134.842 150.416 134.893C150.05 134.94 149.692 135.04 149.354 135.19Z" fill="white"/>
<path d="M146.007 138.017C145.712 138.243 145.451 138.511 145.233 138.813C145.008 139.106 144.824 139.429 144.689 139.774C144.982 139.55 145.241 139.284 145.457 138.983C145.684 138.689 145.869 138.364 146.007 138.017Z" fill="white"/>
<path d="M153.77 150.002C153.19 150.463 152.738 151.069 152.458 151.759C152.753 151.535 153.012 151.266 153.226 150.963C153.452 150.671 153.636 150.347 153.77 150.002Z" fill="white"/>
<path d="M161.485 162.037C161.194 162.265 160.936 162.533 160.717 162.833C160.491 163.127 160.308 163.453 160.173 163.799C160.465 163.572 160.723 163.303 160.94 163.003C161.168 162.71 161.351 162.384 161.485 162.037Z" fill="white"/>
<path d="M152.905 171.189C152.613 171.414 152.354 171.68 152.137 171.979C151.91 172.273 151.726 172.598 151.593 172.946C151.887 172.723 152.146 172.456 152.36 172.155C152.588 171.861 152.771 171.536 152.905 171.189Z" fill="white"/>
<path d="M135.14 168.334C134.846 168.56 134.588 168.828 134.372 169.13C134.145 169.422 133.962 169.746 133.828 170.091C134.122 169.868 134.381 169.601 134.595 169.3C134.823 169.007 135.006 168.681 135.14 168.334Z" fill="white"/>
<path d="M145.347 159.84C145.057 160.067 144.799 160.333 144.58 160.631C144.354 160.926 144.171 161.251 144.035 161.597C144.326 161.37 144.584 161.104 144.803 160.807C145.03 160.513 145.213 160.187 145.347 159.84Z" fill="white"/>
<path d="M157.222 139.165C156.931 139.39 156.672 139.656 156.455 139.955C156.227 140.248 156.044 140.574 155.91 140.921C156.492 140.462 156.942 139.856 157.217 139.165H157.222Z" fill="white"/>
<path d="M156.803 146.752C156.577 146.458 156.312 146.197 156.013 145.978C155.724 145.749 155.403 145.565 155.061 145.429C155.281 145.726 155.546 145.987 155.845 146.203C156.136 146.432 156.459 146.617 156.803 146.752Z" fill="white"/>
<path d="M134.932 159.742C134.605 159.614 134.297 159.44 134.018 159.226L134.083 158.924L134.143 158.968C134.441 159.187 134.707 159.447 134.932 159.742Z" fill="white"/>
<path d="M157.918 159.484C157.695 159.189 157.431 158.929 157.134 158.71C156.842 158.482 156.52 158.297 156.176 158.16C156.402 158.455 156.668 158.715 156.966 158.935C157.257 159.161 157.577 159.346 157.918 159.484Z" fill="white"/>
<path d="M159.193 175.12C158.967 174.827 158.701 174.566 158.404 174.345C158.113 174.116 157.79 173.931 157.446 173.796C157.673 174.09 157.938 174.35 158.235 174.571C158.527 174.798 158.85 174.983 159.193 175.12Z" fill="white"/>
<path d="M142.228 144.248C142.002 143.948 141.734 143.681 141.433 143.458C141.142 143.229 140.819 143.044 140.474 142.909C140.697 143.204 140.961 143.465 141.259 143.683C141.553 143.918 141.879 144.108 142.228 144.248Z" fill="white"/>
<path d="M148.93 167.066C148.705 166.771 148.439 166.511 148.141 166.291C147.85 166.065 147.529 165.88 147.188 165.742C147.41 166.036 147.672 166.297 147.967 166.517C148.261 166.745 148.585 166.929 148.93 167.066Z" fill="white"/>
<path d="M139.2 174.461C138.977 174.166 138.713 173.906 138.416 173.687C138.125 173.457 137.803 173.272 137.458 173.138C137.68 173.433 137.945 173.694 138.242 173.912C138.534 174.14 138.857 174.325 139.2 174.461Z" fill="white"/>
<path d="M146.937 153.027C146.712 152.734 146.449 152.474 146.153 152.253C145.863 152.023 145.54 151.838 145.195 151.704C145.42 151.997 145.684 152.257 145.979 152.478C146.271 152.706 146.594 152.891 146.937 153.027Z" fill="white"/>
<path d="M140.785 136.782C126.526 147.806 114.248 163.03 115.484 167.801C116.791 172.841 126.776 178.408 135.553 179.479C137.349 179.698 142.783 166.368 140.937 165.753C139.5 165.292 132.967 163.486 132.177 162.591C131.633 161.971 141.607 147.526 144.825 140.005C148.195 132.159 144.601 133.834 140.785 136.782Z" fill="#EB9481"/>
<path d="M137.23 165.418C137.23 165.418 142.718 165.918 146.29 166.418C148.282 166.698 151.658 167.483 153.03 168.361C155.077 169.679 162.83 176.509 161.224 178.436C159.776 180.182 157.538 177.458 157.538 177.458C157.538 177.458 160.26 180.203 158.295 181.488C156.329 182.773 153.738 178.957 153.738 178.957C153.738 178.957 156.83 181.664 154.603 182.839C152.665 183.854 149.23 179.77 149.23 179.77C149.23 179.77 152.785 182.251 150.901 183.492C148.827 184.859 142.909 179.385 142.909 179.385C138.221 179.934 135.33 179.665 132.02 178.76C131.41 178.595 137.23 165.418 137.23 165.418Z" fill="#EB9481"/>
<path d="M154.57 179.863C154.358 179.572 154.134 179.287 153.917 178.996C153.51 178.418 153.066 177.868 152.588 177.349C152.12 176.844 151.63 176.366 151.118 175.905C150.606 175.444 149.996 174.977 149.485 174.472C149.481 174.468 149.476 174.465 149.471 174.464C149.466 174.462 149.461 174.461 149.456 174.461C149.45 174.461 149.445 174.463 149.44 174.465C149.435 174.467 149.431 174.471 149.428 174.475C149.424 174.478 149.421 174.483 149.419 174.488C149.418 174.493 149.417 174.499 149.417 174.504C149.417 174.509 149.419 174.515 149.421 174.519C149.423 174.524 149.426 174.529 149.43 174.532C149.954 175.024 150.449 175.546 150.911 176.097C151.385 176.618 151.848 177.146 152.316 177.673C152.784 178.2 153.258 178.666 153.726 179.171C153.96 179.418 154.183 179.682 154.407 179.94C154.602 180.201 154.819 180.445 155.054 180.67C155.082 180.67 155.109 180.67 155.098 180.632C154.949 180.358 154.772 180.1 154.57 179.863Z" fill="#263238"/>
<path d="M158.093 178.046C157.367 176.955 156.567 175.917 155.698 174.938C154.814 173.967 153.836 173.086 152.779 172.309C152.776 172.305 152.771 172.302 152.766 172.3C152.761 172.299 152.756 172.298 152.75 172.298C152.745 172.298 152.74 172.3 152.735 172.302C152.73 172.304 152.726 172.307 152.722 172.311C152.719 172.315 152.716 172.32 152.714 172.325C152.712 172.33 152.712 172.335 152.712 172.341C152.712 172.346 152.713 172.351 152.716 172.356C152.718 172.361 152.721 172.365 152.725 172.369C153.607 173.341 154.505 174.302 155.398 175.268C155.834 175.735 157.756 177.936 157.99 178.139C158.044 178.172 158.121 178.09 158.093 178.046Z" fill="#263238"/>
<path d="M151.304 181.669C150.6 180.659 149.83 179.696 149.001 178.787C148.069 177.94 147.077 177.162 146.034 176.459C145.995 176.459 145.946 176.492 145.979 176.52C146.905 177.371 147.847 178.2 148.701 179.089C149.137 179.528 150.754 181.362 151.2 181.741C151.21 181.755 151.224 181.764 151.241 181.767C151.257 181.77 151.274 181.767 151.288 181.757C151.301 181.748 151.311 181.733 151.314 181.717C151.317 181.7 151.313 181.683 151.304 181.669Z" fill="#263238"/>
<path d="M141.536 165.221L133.859 180.017C133.859 180.017 116.562 175.411 115.07 167.51C113.578 159.61 133.396 141.448 139.511 137.155C145.625 132.862 149.354 132.285 144.531 142.063C139.707 151.841 132.242 161.899 132.852 162.404C133.369 162.827 141.536 165.221 141.536 165.221Z" fill="#F39E3A"/>
<path d="M129.362 154.438C129.311 154.802 129.311 155.172 129.362 155.536C129.407 155.906 129.506 156.266 129.656 156.607C129.707 156.243 129.707 155.873 129.656 155.509C129.605 155.14 129.506 154.78 129.362 154.438Z" fill="white"/>
<path d="M131.551 172.709C131.465 173.456 131.572 174.213 131.862 174.906C131.912 174.541 131.912 174.172 131.862 173.807C131.814 173.428 131.709 173.058 131.551 172.709Z" fill="white"/>
<path d="M122.622 163.804C122.571 164.169 122.571 164.538 122.622 164.902C122.669 165.27 122.77 165.629 122.921 165.968C122.975 165.603 122.975 165.233 122.921 164.869C122.873 164.502 122.773 164.143 122.622 163.804Z" fill="white"/>
<path d="M140.431 149.557L140.398 149.612C140.396 149.576 140.396 149.539 140.398 149.503C140.412 149.519 140.423 149.538 140.431 149.557Z" fill="white"/>
<path d="M136.282 139.834C136.194 140.581 136.301 141.338 136.592 142.03C136.643 141.666 136.643 141.297 136.592 140.932C136.545 140.552 136.44 140.182 136.282 139.834Z" fill="white"/>
<path d="M139.103 165.792C138.958 165.452 138.859 165.094 138.809 164.727C138.809 164.617 138.798 164.507 138.776 164.397L139.054 164.48C139.054 164.546 139.081 164.617 139.092 164.683C139.148 165.05 139.151 165.423 139.103 165.792Z" fill="white"/>
<path d="M140.18 136.738C140.541 136.79 140.908 136.79 141.269 136.738C141.644 136.69 142.01 136.59 142.358 136.441C141.618 136.347 140.866 136.454 140.18 136.749V136.738Z" fill="white"/>
<path d="M122.175 155.47C122.537 155.521 122.903 155.521 123.264 155.47C123.629 155.425 123.985 155.325 124.321 155.174C123.959 155.123 123.593 155.123 123.232 155.174C122.868 155.224 122.513 155.324 122.175 155.47Z" fill="white"/>
<path d="M129.786 164.869C130.147 164.921 130.514 164.921 130.875 164.869C131.241 164.824 131.599 164.724 131.937 164.573C131.575 164.522 131.209 164.522 130.848 164.573C130.482 164.623 130.125 164.723 129.786 164.869Z" fill="white"/>
<path d="M125.268 175.674C125.629 175.726 125.996 175.726 126.357 175.674C126.723 175.629 127.081 175.529 127.418 175.378C126.678 175.289 125.927 175.397 125.241 175.691L125.268 175.674Z" fill="white"/>
<path d="M117.009 168.164C117.37 168.215 117.737 168.215 118.098 168.164C118.463 168.118 118.819 168.018 119.154 167.867C118.414 167.779 117.663 167.887 116.976 168.18L117.009 168.164Z" fill="white"/>
<path d="M132.983 145.967C133.344 146.019 133.711 146.019 134.072 145.967C134.439 145.922 134.796 145.822 135.134 145.67C134.393 145.582 133.643 145.69 132.956 145.983L132.983 145.967Z" fill="white"/>
<path d="M146.007 138.017C145.712 138.243 145.451 138.511 145.233 138.813C145.008 139.106 144.824 139.429 144.689 139.774C144.982 139.55 145.241 139.284 145.457 138.983C145.684 138.689 145.869 138.364 146.007 138.017Z" fill="white"/>
<path d="M135.14 150.798C134.846 151.024 134.588 151.292 134.372 151.594C134.145 151.886 133.962 152.21 133.828 152.555C134.122 152.333 134.381 152.066 134.595 151.764C134.823 151.471 135.006 151.145 135.14 150.798Z" fill="white"/>
<path d="M135.14 168.334C134.846 168.56 134.588 168.828 134.372 169.13C134.145 169.422 133.962 169.746 133.828 170.091C134.122 169.868 134.381 169.601 134.595 169.3C134.823 169.007 135.006 168.681 135.14 168.334Z" fill="white"/>
<path d="M123.809 170.7C123.228 171.161 122.776 171.767 122.497 172.457C122.791 172.232 123.05 171.964 123.264 171.661C123.491 171.369 123.674 171.045 123.809 170.7Z" fill="white"/>
<path d="M126.575 159.484C126.284 159.711 126.026 159.977 125.807 160.274C125.58 160.568 125.397 160.894 125.263 161.24C125.554 161.015 125.813 160.749 126.03 160.45C126.256 160.155 126.439 159.83 126.575 159.484Z" fill="white"/>
<path d="M134.48 177.563C133.902 178.025 133.452 178.63 133.173 179.32C133.755 178.86 134.205 178.254 134.48 177.563Z" fill="white"/>
<path d="M134.447 159.22L134.322 159.429C134.202 159.357 134.088 159.275 133.974 159.193C133.677 158.973 133.413 158.713 133.19 158.419C133.531 158.556 133.851 158.741 134.142 158.968C134.246 159.05 134.355 159.132 134.447 159.22Z" fill="white"/>
<path d="M119.481 161.899C119.256 161.606 118.992 161.346 118.697 161.125C118.405 160.898 118.082 160.713 117.739 160.576C117.962 160.87 118.226 161.131 118.523 161.35C118.815 161.578 119.137 161.763 119.481 161.899Z" fill="white"/>
<path d="M128.91 170.184C128.686 169.89 128.422 169.629 128.126 169.41C127.833 169.182 127.511 168.997 127.167 168.861C127.393 169.155 127.659 169.416 127.957 169.635C128.248 169.861 128.568 170.046 128.91 170.184Z" fill="white"/>
<path d="M142.228 144.248C142.002 143.948 141.734 143.681 141.433 143.458C141.142 143.229 140.819 143.044 140.474 142.909C140.697 143.204 140.961 143.465 141.259 143.683C141.553 143.918 141.879 144.108 142.228 144.248Z" fill="white"/>
<path d="M129.308 150.343C128.849 149.759 128.249 149.306 127.565 149.025C127.789 149.319 128.053 149.58 128.349 149.799C128.642 150.025 128.965 150.208 129.308 150.343Z" fill="white"/>
<path d="M131.409 177.963C131.774 177.475 134.425 172.715 134.981 171.666C135.536 170.618 137.845 166.363 138.324 165.237C138.326 165.228 138.325 165.219 138.322 165.21C138.318 165.201 138.312 165.194 138.304 165.189C138.296 165.184 138.287 165.182 138.278 165.183C138.269 165.184 138.26 165.187 138.253 165.193C137.572 166.209 135.231 170.497 134.643 171.551C134.055 172.605 131.54 177.371 131.333 177.931C131.317 177.98 131.382 177.996 131.409 177.963Z" fill="#263238"/>
<path d="M141.629 165.171L141.27 165.775C141.319 165.709 141.515 165.259 141.515 165.259C139.174 164.71 136.843 164.123 134.54 163.404C134.252 163.31 133.963 163.217 133.675 163.107C133.365 163.002 133.069 162.86 132.793 162.684C132.769 162.666 132.747 162.646 132.727 162.624C132.693 162.583 132.665 162.537 132.646 162.487C132.625 162.402 132.625 162.313 132.646 162.229C132.673 162.152 132.706 162.064 132.738 161.993C132.771 161.921 132.869 161.707 132.934 161.57C133.07 161.295 133.217 161.021 133.359 160.757C133.936 159.659 134.535 158.627 135.15 157.579C136.397 155.492 137.638 153.406 138.929 151.358C140.148 149.415 141.417 147.219 142.696 145.319C142.772 145.204 142.968 145.099 142.734 145.517C141.558 147.641 140.497 149.475 139.283 151.556L135.613 157.837C135.003 158.885 134.382 159.923 133.8 160.982C133.653 161.246 133.506 161.531 133.37 161.779C133.299 161.91 133.239 162.042 133.174 162.174L133.119 162.322L133.081 162.295C133.084 162.307 133.084 162.32 133.081 162.333C133.081 162.333 133.081 162.382 133.081 162.366V162.328C133.308 162.457 133.545 162.569 133.789 162.662L134.627 162.975C135.754 163.387 136.903 163.755 138.057 164.112L141.629 165.171Z" fill="#263238"/>
<path d="M133.12 162.328V162.366C133.12 162.366 133.12 162.339 133.12 162.333C133.123 162.32 133.123 162.307 133.12 162.295V162.328Z" fill="#263238"/>
<path d="M142.375 148.07C142.538 147.943 142.522 148.07 142.445 148.141C142.026 148.69 141.384 149.266 140.915 149.75C140.367 150.324 139.781 150.861 139.162 151.358C139.645 150.725 140.167 150.124 140.725 149.557C141.24 149.023 141.791 148.526 142.375 148.07Z" fill="#263238"/>
<path d="M151.777 139.417C149.905 139.966 146.529 137.221 145.141 134.899C145.043 134.739 145.211 133.021 145.315 130.924C145.375 129.656 145.413 128.234 145.353 126.938C145.353 126.674 153.52 128.536 153.52 128.536C153.135 130.179 152.952 131.865 152.975 133.554C152.985 133.739 153.01 133.922 153.052 134.103C153.052 134.103 153.052 134.158 153.052 134.19C153.269 135.173 153.585 138.896 151.777 139.417Z" fill="#EB9481"/>
<path d="M145.853 126.949C146.327 129.145 147.928 134.355 152.234 134.251C152.51 134.248 152.785 134.22 153.056 134.169C153.06 134.139 153.06 134.11 153.056 134.081C153.016 133.9 152.989 133.716 152.975 133.532C152.953 131.843 153.136 130.158 153.519 128.514C153.519 128.514 147.617 127.191 145.853 126.949Z" fill="#263238"/>
<path d="M155.409 113.97C155.409 113.97 158.034 115.068 158.518 117.747C159.003 120.427 158.398 123.238 158.17 123.386C157.941 123.534 155.409 113.97 155.409 113.97Z" fill="#263238"/>
<path d="M144.373 117.363C143.611 120.278 145.462 128.552 147.537 130.331C150.591 132.911 155.426 132.983 157.56 129.321C159.629 125.774 157.065 115.046 154.729 113.432C151.288 111.066 145.5 113.053 144.373 117.363Z" fill="#EB9481"/>
<path d="M152.773 122.809C152.773 122.809 152.735 122.848 152.741 122.87C152.882 123.419 152.947 124.083 152.485 124.374C152.485 124.374 152.485 124.412 152.485 124.407C153.089 124.187 152.991 123.314 152.773 122.809Z" fill="#263238"/>
<path d="M152.153 122.337C151.249 122.463 151.57 124.281 152.408 124.16C153.247 124.039 152.915 122.233 152.153 122.337Z" fill="#263238"/>
<path d="M155.899 122.271C155.899 122.271 155.948 122.271 155.948 122.315C156.03 122.864 156.22 123.512 156.754 123.611V123.644C156.133 123.693 155.883 122.82 155.899 122.271Z" fill="#263238"/>
<path d="M156.291 121.596C157.178 121.365 157.565 123.166 156.748 123.38C155.931 123.594 155.55 121.788 156.291 121.596Z" fill="#263238"/>
<path d="M151.075 121.047C151.315 120.979 151.551 120.896 151.782 120.8C152.045 120.748 152.282 120.608 152.458 120.405C152.499 120.33 152.515 120.244 152.505 120.159C152.494 120.074 152.456 119.994 152.398 119.933C152.26 119.83 152.097 119.766 151.927 119.749C151.756 119.731 151.584 119.761 151.429 119.834C151.092 119.928 150.803 120.145 150.617 120.443C150.58 120.514 150.563 120.594 150.569 120.674C150.576 120.754 150.605 120.83 150.653 120.894C150.701 120.957 150.767 121.006 150.841 121.033C150.916 121.06 150.997 121.065 151.075 121.047Z" fill="#263238"/>
<path d="M156.884 120.125C156.634 120.118 156.385 120.098 156.138 120.064C155.871 120.08 155.607 120.007 155.387 119.856C155.326 119.795 155.288 119.715 155.277 119.63C155.266 119.544 155.283 119.458 155.327 119.384C155.434 119.249 155.575 119.147 155.735 119.086C155.894 119.025 156.067 119.008 156.236 119.038C156.586 119.046 156.92 119.183 157.178 119.422C157.233 119.481 157.269 119.554 157.283 119.634C157.297 119.713 157.288 119.795 157.257 119.87C157.226 119.944 157.174 120.008 157.108 120.053C157.042 120.098 156.964 120.123 156.884 120.125Z" fill="#263238"/>
<path d="M152.758 128.201C152.905 128.346 153.098 128.433 153.302 128.448C153.509 128.404 153.705 128.32 153.879 128.201C153.879 128.201 153.918 128.201 153.907 128.201C153.847 128.326 153.754 128.432 153.639 128.509C153.524 128.585 153.391 128.628 153.253 128.634C153.131 128.628 153.013 128.584 152.916 128.509C152.818 128.433 152.746 128.33 152.709 128.212C152.709 128.212 152.736 128.184 152.758 128.201Z" fill="#263238"/>
<path d="M153.05 126.438C153.23 126.636 153.449 126.794 153.693 126.902C153.936 127.01 154.2 127.065 154.466 127.064C154.698 127.068 154.929 127.038 155.152 126.976L155.283 126.938L155.402 126.9C155.431 126.887 155.454 126.866 155.47 126.839C155.485 126.813 155.492 126.782 155.49 126.751C155.491 126.733 155.491 126.715 155.49 126.696V126.647C155.43 126.213 155.272 125.549 155.272 125.549C155.441 125.604 156.306 125.823 156.252 125.598C155.861 123.647 155.273 121.741 154.499 119.911C154.492 119.901 154.482 119.895 154.471 119.891C154.46 119.888 154.449 119.888 154.438 119.891C154.427 119.895 154.418 119.902 154.411 119.911C154.404 119.921 154.401 119.932 154.401 119.944C154.755 121.739 155.413 123.463 155.8 125.263C155.491 125.179 155.172 125.141 154.853 125.148C154.798 125.176 155.179 126.4 155.19 126.598C154.845 126.696 154.484 126.723 154.128 126.676C153.773 126.63 153.43 126.512 153.121 126.329C153.045 126.329 153.007 126.372 153.05 126.438Z" fill="#263238"/>
<path d="M154.864 126.773C154.684 127.125 154.415 127.424 154.086 127.641C153.902 127.752 153.69 127.803 153.476 127.789C153.013 127.75 152.932 127.339 152.932 126.971C152.945 126.775 152.979 126.582 153.035 126.394C153.588 126.717 154.23 126.85 154.864 126.773Z" fill="#263238"/>
<path d="M154.086 127.641C153.902 127.752 153.69 127.803 153.476 127.789C153.013 127.75 152.932 127.339 152.932 126.971C153.17 126.938 153.413 126.986 153.622 127.107C153.831 127.228 153.994 127.416 154.086 127.641Z" fill="#FF98B9"/>
<path d="M145.451 125.209C146.42 125.34 147.019 122.37 147.139 121.25C147.248 120.262 147.057 117.209 147.068 117.001C147.079 116.792 151.516 118.977 153.721 117.907C155.926 116.836 157.13 114.475 156.988 113.515C156.846 112.554 153.569 110.528 151.054 110.819C148.538 111.11 145.702 114.865 145.702 114.865C146.029 114.339 146.317 113.788 146.562 113.218C146.502 113.108 144.999 114.031 144.896 115.233C144.896 115.233 144.972 113.729 144.847 113.723C144.721 113.718 143.676 115.173 144.112 116.062C144.112 116.062 142.876 117.572 142.974 118.977C143.072 120.383 144.319 125.055 145.451 125.209Z" fill="#263238"/>
<path d="M155.284 117.138C154.663 117.63 153.968 118.021 153.226 118.296C152.385 118.513 151.503 118.513 150.662 118.296C149.814 118.12 149.001 117.803 148.256 117.358C147.591 116.973 146.982 116.479 146.296 116.155C146.121 116.073 145.98 116.331 146.1 116.457C147.376 117.752 149.03 118.599 150.82 118.873C151.651 119.001 152.502 118.909 153.287 118.606C154.073 118.303 154.767 117.799 155.301 117.143C155.301 117.143 155.295 117.133 155.284 117.138Z" fill="#263238"/>
<path d="M146.393 124.083C146.393 124.083 144.373 121.503 143.202 122.244C142.032 122.985 143.66 126.806 145.108 127.256C145.291 127.327 145.486 127.359 145.681 127.351C145.876 127.344 146.068 127.297 146.245 127.213C146.422 127.129 146.58 127.009 146.71 126.862C146.841 126.715 146.94 126.543 147.003 126.356L146.393 124.083Z" fill="#EB9481"/>
<path d="M143.692 123.325C143.692 123.325 143.692 123.358 143.692 123.364C144.716 123.715 145.293 124.616 145.717 125.56C145.653 125.463 145.569 125.381 145.471 125.319C145.372 125.258 145.262 125.219 145.147 125.205C145.032 125.191 144.915 125.202 144.805 125.238C144.695 125.273 144.594 125.333 144.509 125.412C144.509 125.412 144.509 125.472 144.541 125.461C144.714 125.395 144.902 125.385 145.08 125.431C145.258 125.477 145.418 125.578 145.538 125.719C145.735 125.956 145.907 126.214 146.05 126.488C146.104 126.576 146.262 126.521 146.224 126.416C146.158 125.11 145.064 123.375 143.692 123.325Z" fill="#263238"/>
<path d="M144.155 135.508C145.047 136.604 145.999 137.649 147.008 138.637C147.933 139.605 149.144 140.245 150.46 140.46C151.739 140.576 153.019 140.312 153.487 138.736C153.819 137.38 153.85 135.967 153.579 134.597C153.577 134.589 153.576 134.581 153.577 134.574C153.578 134.566 153.581 134.558 153.586 134.552C153.59 134.545 153.596 134.54 153.603 134.537C153.61 134.533 153.618 134.531 153.626 134.531C153.633 134.531 153.641 134.533 153.648 134.537C153.655 134.54 153.661 134.545 153.666 134.552C153.67 134.558 153.673 134.566 153.674 134.574C153.675 134.581 153.674 134.589 153.672 134.597C153.966 136.656 154.271 139.851 152.414 140.565C150.334 141.366 148.293 140.285 146.828 138.835C145.803 137.842 144.89 136.737 144.106 135.541C144.122 135.514 144.155 135.486 144.155 135.508Z" fill="#263238"/>
</svg>
