<svg width="25" height="25" viewBox="0 0 25 25" fill="none" xmlns="http://www.w3.org/2000/svg">
<path d="M19.6429 10.7143C22.6004 10.7143 25 8.31473 25 5.35714C25 2.39955 22.6004 0 19.6429 0C16.6853 0 14.2857 2.39955 14.2857 5.35714C14.2857 5.58036 14.2969 5.80357 14.3248 6.0212L9.07366 8.64397C8.11384 7.71205 6.80246 7.14286 5.35714 7.14286C2.39955 7.14286 0 9.54241 0 12.5C0 15.4576 2.39955 17.8571 5.35714 17.8571C6.80246 17.8571 8.11384 17.2879 9.07366 16.356L14.3248 18.9788C14.2969 19.1964 14.2857 19.4141 14.2857 19.6429C14.2857 22.6004 16.6853 25 19.6429 25C22.6004 25 25 22.6004 25 19.6429C25 16.6853 22.6004 14.2857 19.6429 14.2857C18.1975 14.2857 16.8862 14.8549 15.9263 15.7868L10.6752 13.1641C10.7031 12.9464 10.7143 12.7288 10.7143 12.5C10.7143 12.2712 10.7031 12.0536 10.6752 11.8359L15.9263 9.21317C16.8862 10.1451 18.1975 10.7143 19.6429 10.7143Z" fill="white"/>
</svg>
