<svg width="64" height="64" viewBox="0 0 64 64" fill="none" xmlns="http://www.w3.org/2000/svg">
<path d="M32.0016 64.0015C49.6739 64.0015 64.0002 49.6751 64.0002 32.0027C64.0002 14.3303 49.6739 0.00390625 32.0016 0.00390625C14.3292 0.00390625 0.00292969 14.3303 0.00292969 32.0027C0.00292969 49.6751 14.3292 64.0015 32.0016 64.0015Z" fill="white"/>
<path d="M62.1709 21.332H42.4546C43.3111 28.1678 43.3161 35.6998 42.4712 42.5441H62.2129C63.3966 39.1554 64.0004 35.5913 63.9989 32.0018C63.9995 28.2587 63.3512 24.6693 62.1709 21.332Z" fill="#EFECEC"/>
<path d="M42.4546 21.3322H62.1705C62.1677 21.3227 62.1643 21.3134 62.1603 21.3043C58.0652 9.75663 47.5304 1.2606 34.873 0.132812C39.7717 2.81778 41.2025 11.3245 42.4546 21.3322Z" fill="#429945"/>
<path d="M34.874 63.8677C47.554 62.7379 58.1035 54.2125 62.1829 42.6339C62.1936 42.6031 62.2026 42.5727 62.2137 42.543H42.4717C41.2292 52.6048 39.7922 61.1715 34.874 63.8677Z" fill="#0B0B0B"/>
<path d="M0 32.0018C0 35.6968 0.634622 39.2422 1.78605 42.5441H44.1185C44.9643 35.6993 44.9582 28.1678 44.1028 21.332H1.82861C0.648269 24.6695 0 28.2589 0 32.0018Z" fill="#EFEFEF"/>
<path d="M1.83875 21.3038C1.83567 21.3132 1.83229 21.3225 1.82861 21.3317H44.103C42.8499 11.3238 39.7718 2.81727 34.8738 0.132306C33.9264 0.0484012 32.9685 0.000976564 31.9995 0.000976564C18.079 0.000841451 6.24111 8.8914 1.83875 21.3038Z" fill="#49A948"/>
<path d="M44.1186 42.543H1.78613C1.79681 42.5728 1.8068 42.6031 1.81694 42.6339C6.20174 55.0781 18.0566 64.0001 31.9994 64.0001C32.9686 64.0001 33.9265 63.9526 34.8738 63.8677C39.7926 61.1717 42.8761 52.605 44.1186 42.543Z" fill="#151515"/>
<path d="M0 32.0012C0 45.3214 8.14227 56.7384 19.7199 61.5551V2.44629C8.14227 7.26198 0 18.679 0 32.0012Z" fill="#E73B36"/>
</svg>
